SplineFontDB: 3.2
FontName: base64mono
FullName: Base 64 Monospace
FamilyName: base64
Weight: Regular
Copyright: Copyright (c) 2022, pointerless
UComments: "2022-9-29: Created with FontForge (http://fontforge.org)"
Version: 001.000
ItalicAngle: 0
UnderlinePosition: -102
UnderlineWidth: 51
Ascent: 819
Descent: 205
InvalidEm: 0
LayerCount: 2
Layer: 0 0 "Back" 1
Layer: 1 0 "Fore" 0
XUID: [1021 868 2108544949 9309604]
StyleMap: 0x0000
FSType: 0
OS2Version: 0
OS2_WeightWidthSlopeOnly: 0
OS2_UseTypoMetrics: 1
CreationTime: 1664473548
ModificationTime: 1665099606
PfmFamily: 17
TTFWeight: 400
TTFWidth: 5
LineGap: 92
VLineGap: 92
OS2TypoAscent: 0
OS2TypoAOffset: 1
OS2TypoDescent: 0
OS2TypoDOffset: 1
OS2TypoLinegap: 92
OS2WinAscent: 0
OS2WinAOffset: 1
OS2WinDescent: 0
OS2WinDOffset: 1
HheadAscent: 0
HheadAOffset: 1
HheadDescent: 0
HheadDOffset: 1
OS2Vendor: 'PfEd'
MarkAttachClasses: 1
DEI: 91125
LangName: 1033
Encoding: ISO8859-1
UnicodeInterp: none
NameList: AGL For New Fonts
DisplaySize: -48
AntiAlias: 1
FitToEm: 0
WinInfo: 48 16 6
BeginPrivate: 0
EndPrivate
BeginChars: 256 256

StartChar: A
Encoding: 65 65 0
Width: 640
Flags: HW
HStem: 793 2<328.041 337.758>
VStem: 318.853 22<477.135 740.583>
LayerCount: 2
Fore
SplineSet
309 784 m 0
 317 792 325 797 329 795 c 0
 333 793 337 793 339 793 c 0
 341 793 342 752 342 696 c 0
 342 683 342 670 342 656 c 0
 336 -168 337 -193 329 -195 c 0
 325 -196 320 -194 320 -190 c 0
 320 -186 318 -162 315 -135 c 0
 312 -106 310 -65 310 -12 c 0
 310 35 312 93 314 158 c 0
 315 197 316 234 316 255 c 0
 316 263 316 269 316 272 c 0
 316 282 316 295 317 300 c 0
 317 307 318 326 318 352 c 0
 318 442 315 613 313 673 c 0
 309 751 308 767 302 769 c 0
 296 770 298 773 309 784 c 0
EndSplineSet
Validated: 1
EndChar

StartChar: B
Encoding: 66 66 1
Width: 640
Flags: HW
HStem: -182 28<83.7711 298.187 326.616 560.418>
VStem: 305.397 23<-151 42.8616 84.4243 735.089>
LayerCount: 2
Fore
SplineSet
305 734 m 0
 309 738 324 736 327 731 c 0
 328 728 329 710 329 644 c 0
 329 578 328 466 327 276 c 0
 326 220 326 176 326 142 c 0
 326 70 328 45 331 43 c 0
 335 40 335 40 331 40 c 0
 326 40 325 17 325 -58 c 2
 325 -156 l 1
 339 -159 l 2
 343 -160 350 -160 358 -160 c 0
 366 -160 376 -160 384 -159 c 0
 401 -158 429 -156 445 -156 c 0
 461 -156 476 -153 477 -151 c 0
 478 -150 484 -149 492 -149 c 0
 512 -149 546 -153 555 -157 c 0
 565 -163 566 -184 556 -188 c 0
 552 -189 544 -188 539 -185 c 0
 531 -180 506 -176 485 -176 c 0
 473 -176 462 -177 457 -180 c 0
 447 -184 378 -188 335 -188 c 0
 315 -188 301 -187 301 -185 c 0
 301 -183 250 -182 187 -182 c 0
 165 -182 148 -182 134 -182 c 0
 86 -182 76 -181 76 -177 c 0
 76 -176 76 -175 77 -174 c 0
 79 -170 87 -163 94 -159 c 0
 101 -154 107 -152 129 -152 c 0
 141 -152 157 -153 179 -154 c 0
 200 -155 221 -156 239 -156 c 0
 256 -156 271 -155 278 -154 c 2
 304 -151 l 1
 304 291 l 2
 304 534 304 733 305 734 c 0
EndSplineSet
Validated: 1
EndChar

StartChar: C
Encoding: 67 67 2
Width: 640
Flags: HW
VStem: 301.875 19<267.228 472.783>
LayerCount: 2
Fore
SplineSet
304 758 m 0
 312 760 318 762 318 762 c 1
 318 762 320 697 320 618 c 0
 321 539 322 432 322 378 c 0
 323 295 324 278 331 268 c 0
 335 261 360 214 387 162 c 0
 414 110 439 64 442 60 c 0
 446 56 449 51 449 49 c 0
 449 31 528 -117 541 -125 c 0
 545 -127 549 -135 551 -143 c 0
 552 -151 556 -160 560 -163 c 0
 569 -170 569 -185 560 -189 c 0
 559 -189 558 -189 557 -189 c 0
 548 -189 534 -177 534 -167 c 0
 534 -163 529 -152 522 -143 c 0
 516 -134 505 -118 498 -106 c 0
 473 -62 469 -53 464 -47 c 0
 461 -44 452 -24 443 -4 c 0
 435 17 425 40 420 47 c 0
 415 54 394 93 373 134 c 0
 341 199 326 225 322 225 c 0
 321 225 321 224 321 222 c 0
 321 218 317 217 311 218 c 0
 310 218 309 218 309 218 c 0
 302 218 296 210 278 173 c 0
 255 125 225 69 217 59 c 0
 215 56 194 18 171 -27 c 0
 148 -71 126 -111 123 -115 c 0
 120 -119 113 -133 106 -147 c 0
 95 -173 85 -186 79 -186 c 0
 76 -186 74 -182 74 -172 c 0
 74 -164 77 -155 81 -152 c 0
 85 -148 93 -135 100 -122 c 0
 153 -25 174 18 183 40 c 0
 188 54 197 72 204 81 c 0
 210 89 235 134 259 181 c 2
 303 267 l 1
 300 333 l 2
 290 543 286 661 286 712 c 0
 286 729 286 739 287 743 c 0
 289 751 295 756 304 758 c 0
EndSplineSet
Validated: 1
EndChar

StartChar: D
Encoding: 68 68 3
Width: 640
Flags: HW
HStem: -171 27<114.101 511.183> -101 12<536.378 544.962> 288 7<361.084 365.36>
VStem: 289.989 26<515.559 743> 310.989 5<126.962 130.323> 511.989 33<-143.289 -114.204> 535.989 9<-100.643 -89.054>
LayerCount: 2
Fore
SplineSet
286 741 m 0xf4
 287 742 295 743 302 743 c 2
 315 743 l 1
 315 710 l 1
 317 483 321 306 325 301 c 0
 328 297 328 293 324 288 c 0
 323 286 322 284 322 282 c 0
 322 275 326 265 337 242 c 0
 380 152 414 86 424 72 c 0
 431 64 440 44 446 28 c 0
 452 13 468 -13 480 -27 c 0
 492 -41 504 -58 505 -65 c 0
 507 -72 515 -87 522 -100 c 0
 534 -120 537 -121 540 -114 c 0
 543 -107 544 -108 544 -119 c 0
 544 -127 549 -138 556 -145 c 0
 563 -152 567 -161 566 -165 c 0
 564 -170 549 -174 537 -174 c 0
 532 -174 528 -174 525 -172 c 0
 523 -171 506 -170 481 -170 c 0
 464 -170 442 -171 420 -171 c 0
 357 -173 335 -174 307 -174 c 0
 283 -174 254 -173 191 -171 c 0
 97 -169 78 -167 75 -161 c 0
 72 -156 73 -151 76 -148 c 0
 79 -145 81 -137 81 -130 c 0
 81 -123 84 -115 88 -112 c 0
 95 -106 100 -97 136 -25 c 0
 146 -4 167 32 181 54 c 0
 195 76 213 107 220 123 c 0
 227 139 245 180 262 213 c 2
 292 274 l 1
 289 400 l 2
 286 540 285 644 285 698 c 0
 285 726 285 740 286 741 c 0xf4
307 222 m 0
 311 231 304 235 298 228 c 0
 295 225 284 204 274 182 c 0
 243 116 217 64 211 54 c 0
 181 4 167 -19 144 -63 c 0
 117 -114 108 -131 108 -138 c 0
 108 -141 110 -142 113 -144 c 0
 115 -145 140 -146 176 -146 c 0
 202 -146 233 -145 266 -145 c 0
 346 -144 433 -144 461 -144 c 0
 489 -144 511 -143 511 -141 c 0
 511 -139 507 -132 502 -125 c 0
 497 -118 493 -112 493 -111 c 0
 493 -110 478 -84 461 -55 c 0
 417 21 381 87 351 147 c 0
 337 176 321 203 315 207 c 0xec
 309 212 306 218 307 222 c 0
360 290 m 0
 359 292 360 295 364 295 c 0
 372 295 374 292 367 288 c 0
 365 287 362 287 360 290 c 0
535 -93 m 0xe2
 535 -91 538 -89 540 -89 c 0
 543 -89 544 -92 544 -96 c 0
 544 -100 543 -102 540 -101 c 0
 538 -100 535 -96 535 -93 c 0xe2
EndSplineSet
Validated: 1
EndChar

StartChar: E
Encoding: 69 69 4
Width: 640
Flags: HW
VStem: 80.1572 21<-22.3787 125.151> 301.157 23<314.627 699.747> 530.157 29<12.9679 66.9495>
LayerCount: 2
Fore
SplineSet
98 149 m 24
 116 176 112 164 146 217 c 0
 159 237 239 282 271 288 c 0
 295 291 301 298 301 323 c 0
 301 327 301 331 301 335 c 0
 300 351 297 448 296 549 c 0
 295 595 295 630 295 657 c 0
 295 715 297 735 300 737 c 0
 307 741 312 741 324 736 c 0
 329 734 331 732 328 732 c 0
 325 732 323 709 323 638 c 0
 323 606 323 563 324 508 c 0
 325 399 328 334 328 296 c 0
 328 264 326 253 319 253 c 0
 318 253 318 253 317 253 c 0
 306 256 301 262 287 262 c 0
 279 262 267 260 250 253 c 0
 205 236 173 215 162 197 c 0
 158 190 147 176 138 167 c 0
 110 134 103 114 101 56 c 0
 100 40 100 28 100 20 c 0
 100 1 102 -6 112 -25 c 0
 133 -66 182 -111 230 -131 c 0
 256 -142 265 -145 287 -145 c 0
 296 -145 306 -145 319 -144 c 0
 366 -142 371 -141 396 -126 c 0
 453 -92 517 -7 530 51 c 0
 532 60 537 66 543 67 c 0
 544 67 545 67 546 67 c 0
 556 67 561 61 561 50 c 0
 561 46 560 42 559 37 c 0
 557 27 555 12 553 -1 c 0
 551 -10 559 -3 547 -15 c 0
 530 -31 542 -13 527 -27 c 0
 518 -35 509 -49 506 -57 c 0
 499 -73 468 -105 425 -139 c 0
 410 -151 398 -162 398 -164 c 0
 398 -166 387 -170 375 -172 c 0
 362 -174 348 -176 343 -177 c 0
 337 -178 326 -179 313 -179 c 0
 295 -179 274 -178 258 -176 c 0
 244 -175 223 -167 209 -158 c 0
 195 -150 179 -140 173 -137 c 0
 167 -134 146 -115 128 -95 c 0
 88 -52 80 -33 80 24 c 0
 80 31 80 39 80 47 c 0
 80 50 80 52 80 55 c 0
 80 70 79 86 79 99 c 0
 79 111 80 122 84 127 c 0
 92 138 93 141 98 149 c 24
EndSplineSet
Validated: 1
EndChar

StartChar: F
Encoding: 70 70 5
Width: 640
Flags: HW
HStem: -178 31<223.592 376.214>
VStem: 79.7285 23<-5.32861 58.9494> 290.729 31<357.624 743.296>
LayerCount: 2
Fore
SplineSet
299 737 m 0
 307 746 313 747 317 741 c 0
 318 739 321 656 322 557 c 0
 326 320 327 318 330 315 c 0
 331 314 342 311 354 310 c 0
 379 307 416 298 423 293 c 0
 426 291 434 288 442 286 c 0
 457 282 501 244 520 216 c 0
 527 205 537 195 541 194 c 0
 556 189 561 166 562 82 c 0
 562 70 562 58 562 48 c 0
 562 19 561 -2 560 -3 c 0
 558 -4 556 -10 556 -15 c 0
 556 -20 553 -24 550 -23 c 0
 547 -23 538 -32 530 -44 c 0
 492 -101 475 -114 410 -147 c 0
 376 -164 344 -178 339 -178 c 0
 334 -178 327 -182 325 -186 c 0
 322 -191 320 -193 320 -190 c 0
 320 -187 306 -183 283 -181 c 0
 250 -178 240 -174 200 -152 c 0
 150 -125 128 -103 105 -55 c 0
 99 -41 92 -29 90 -29 c 0
 85 -29 78 27 78 55 c 0
 78 62 79 68 80 69 c 0
 81 70 83 71 85 71 c 0
 91 71 99 57 103 35 c 0
 117 -40 158 -98 218 -129 c 0
 248 -144 254 -147 281 -147 c 0
 287 -147 294 -147 303 -147 c 0
 354 -146 382 -138 439 -105 c 0
 466 -90 494 -54 519 -4 c 0
 530 17 534 33 534 56 c 0
 534 67 533 80 531 97 c 0
 524 153 511 183 477 218 c 0
 438 258 415 269 365 272 c 0
 353 273 344 273 338 273 c 0
 327 273 325 272 325 267 c 0
 325 256 319 257 310 270 c 0
 297 289 291 367 291 552 c 0
 291 707 292 731 299 737 c 0
EndSplineSet
Validated: 1
EndChar

StartChar: G
Encoding: 71 71 6
Width: 640
Flags: HW
LayerCount: 2
Fore
SplineSet
107 -16 m 24
 93 5 79 20 79 44 c 0
 79 53 79 65 79 80 c 0
 79 134 81 144 103 201 c 0
 115 233 161 295 173 295 c 0
 175 295 181 298 185 302 c 0
 195 311 256 329 276 329 c 0
 294 329 295 329 301 369 c 0
 304 389 306 486 306 577 c 0
 306 645 305 710 303 735 c 0
 302 746 301 754 301 759 c 0
 301 768 303 771 306 771 c 0
 317 771 326 763 328 753 c 0
 331 731 333 683 333 625 c 0
 333 580 332 529 330 478 c 0
 327 415 326 359 326 341 c 0
 326 337 326 335 326 335 c 0
 327 334 344 331 363 326 c 0
 406 318 464 286 486 261 c 0
 500 245 524 201 527 195 c 0
 531 188 543 177 545 173 c 0
 547 169 555 167 555 140 c 0
 555 121 557 97 560 88 c 0
 561 84 561 78 561 72 c 0
 561 66 561 60 560 55 c 0
 560 53 559 50 559 46 c 0
 559 42 560 38 560 33 c 0
 560 20 559 4 553 -9 c 8
 539 -42 514 -69 500 -85 c 0
 487 -99 477 -111 477 -114 c 0
 476 -120 423 -143 401 -147 c 0
 378 -151 358 -153 337 -153 c 0
 311 -153 285 -150 255 -143 c 2
 207 -132 l 1
 166 -90 l 2
 140 -63 127 -47 107 -16 c 24
375 295 m 0
 356 300 341 302 332 302 c 0
 324 302 320 301 320 297 c 0
 320 293 316 290 310 290 c 0
 305 290 301 293 301 295 c 0
 301 299 297 300 289 300 c 0
 273 300 242 293 203 279 c 0
 183 272 129 218 124 199 c 0
 105 135 100 116 100 101 c 0
 100 96 100 91 101 86 c 0
 105 53 114 20 122 9 c 0
 125 4 128 -4 128 -8 c 0
 128 -12 135 -21 143 -30 c 0
 151 -37 165 -52 175 -62 c 0
 185 -71 202 -84 214 -90 c 0
 226 -96 240 -104 245 -108 c 0
 254 -115 271 -119 295 -119 c 0
 310 -119 328 -118 348 -115 c 0
 430 -105 466 -81 497 -19 c 0
 516 18 524 49 524 82 c 0
 524 98 522 115 518 133 c 0
 511 162 506 171 481 201 c 0
 465 220 446 238 439 242 c 0
 432 245 425 253 423 260 c 0
 422 266 417 273 412 274 c 0
 408 276 402 281 399 284 c 0
 397 288 386 293 375 295 c 0
EndSplineSet
Validated: 1
EndChar

StartChar: H
Encoding: 72 72 7
Width: 640
Flags: HW
LayerCount: 2
Fore
SplineSet
301 745 m 0
 304 749 308 752 310 752 c 0
 321 752 324 735 324 589 c 0
 324 573 323 555 323 535 c 2
 323 331 l 1
 356 326 l 2
 397 319 419 312 435 304 c 0
 462 289 496 257 515 227 c 0
 526 208 538 194 541 194 c 0
 543 194 546 189 546 183 c 0
 546 177 548 169 552 166 c 0
 556 162 558 123 558 84 c 0
 558 46 556 6 552 -1 c 0
 548 -6 546 -8 546 -4 c 0
 546 -2 545 -1 544 -1 c 0
 541 -1 529 -19 518 -42 c 0
 497 -85 421 -147 375 -156 c 0
 359 -160 341 -167 334 -172 c 0
 328 -177 321 -180 319 -178 c 0
 316 -177 300 -173 284 -171 c 0
 238 -166 202 -147 164 -108 c 0
 133 -76 124 -62 102 -5 c 0
 88 32 82 52 82 77 c 0
 82 86 83 96 84 107 c 0
 90 173 99 193 146 252 c 0
 155 264 198 299 218 311 c 0
 222 314 240 318 259 321 c 2
 293 327 l 1
 298 387 l 2
 301 413 302 484 302 554 c 0
 302 631 301 708 298 725 c 0
 297 732 298 742 301 745 c 0
402 285 m 0
 386 293 356 300 340 300 c 0
 334 300 330 299 329 297 c 0
 327 296 309 294 290 294 c 0
 244 294 227 289 192 265 c 0
 159 243 140 219 121 176 c 0
 109 149 108 141 108 91 c 0
 108 38 109 34 125 -4 c 0
 135 -26 147 -48 154 -54 c 0
 160 -60 166 -67 166 -69 c 0
 166 -79 208 -115 233 -128 c 0
 257 -140 273 -145 288 -145 c 0
 296 -145 304 -144 314 -141 c 0
 326 -137 350 -131 367 -128 c 0
 399 -121 416 -111 459 -72 c 0
 479 -54 491 -36 509 -3 c 0
 529 38 531 46 532 79 c 0
 532 80 532 80 532 81 c 0
 532 119 523 157 507 182 c 0
 502 190 494 204 488 213 c 0
 474 238 444 264 402 285 c 0
296 93 m 0
 301 98 309 103 312 103 c 0
 322 103 339 85 339 76 c 0
 339 67 322 50 312 50 c 0
 309 50 301 54 296 59 c 0
 290 65 286 72 286 76 c 0
 286 80 290 88 296 93 c 0
EndSplineSet
Validated: 1
EndChar

StartChar: I
Encoding: 73 73 8
Width: 640
Flags: HW
LayerCount: 2
Fore
SplineSet
315 782 m 0
 316 784 321 784 326 781 c 0
 331 779 365 777 402 776 c 0
 440 776 488 774 511 773 c 0
 522 772 532 772 540 772 c 0
 547 772 552 772 552 773 c 0
 552 775 556 777 560 777 c 0
 566 777 566 775 562 771 c 0
 558 767 559 763 565 753 c 0
 569 745 572 739 570 738 c 0
 569 738 562 737 550 737 c 0
 533 737 506 738 477 739 c 0
 426 741 376 742 364 742 c 2
 343 741 l 1
 342 695 l 2
 341 669 340 555 338 441 c 0
 335 327 333 173 333 98 c 0
 332 -89 329 -165 320 -166 c 0
 319 -166 317 -166 316 -166 c 0
 307 -166 303 -154 303 -120 c 0
 303 -108 304 -94 305 -76 c 0
 309 -2 313 342 313 557 c 0
 313 597 313 632 313 660 c 2
 312 743 l 1
 207 742 l 2
 112 741 101 741 92 733 c 0
 83 725 83 725 75 740 c 0
 68 754 68 755 76 761 c 0
 80 765 87 767 92 767 c 0
 96 767 101 770 104 772 c 0
 108 777 113 777 124 772 c 0
 131 769 140 768 142 769 c 0
 147 772 223 776 281 777 c 0
 298 778 314 780 315 782 c 0
EndSplineSet
Validated: 1
EndChar

StartChar: J
Encoding: 74 74 9
Width: 640
Flags: HW
LayerCount: 2
Fore
SplineSet
76 768 m 0
 77 771 82 772 87 769 c 0
 93 766 213 765 327 765 c 0
 420 765 508 766 525 768 c 0
 534 769 540 770 546 770 c 0
 561 770 566 765 566 755 c 0
 566 753 566 752 566 750 c 2
 564 738 l 1
 453 738 l 2
 391 738 338 736 334 733 c 0
 331 731 330 720 330 683 c 0
 330 655 331 611 332 543 c 0
 334 459 335 378 335 343 c 0
 335 335 335 329 335 326 c 0
 334 272 334 159 334 60 c 0
 334 -38 334 -124 335 -124 c 0
 337 -125 359 -126 384 -126 c 0
 409 -126 456 -127 489 -129 c 2
 548 -132 l 1
 548 -145 l 1
 548 -158 l 1
 494 -156 l 2
 463 -154 434 -153 429 -153 c 0
 424 -153 401 -153 376 -154 c 0
 353 -154 331 -155 328 -157 c 0
 326 -158 269 -159 202 -159 c 0
 101 -159 80 -158 73 -151 c 0
 69 -148 63 -144 60 -144 c 0
 50 -144 55 -138 68 -132 c 0
 74 -130 88 -129 102 -129 c 0
 105 -129 108 -129 111 -129 c 0
 134 -130 172 -130 207 -130 c 0
 250 -130 290 -130 292 -128 c 0
 300 -124 302 -76 305 130 c 0
 306 223 307 285 307 332 c 0
 307 388 306 423 304 465 c 0
 303 484 302 553 302 618 c 2
 301 735 l 1
 256 736 l 2
 231 736 185 738 155 739 c 0
 140 740 127 740 116 740 c 0
 104 740 95 740 93 738 c 0
 90 736 86 735 86 736 c 0
 80 746 75 757 75 764 c 0
 75 766 76 767 76 768 c 0
571 758 m 0
 571 761 575 763 578 763 c 0
 582 763 585 761 585 758 c 0
 585 756 582 754 578 754 c 0
 575 754 571 756 571 758 c 0
EndSplineSet
Validated: 1
EndChar

StartChar: K
Encoding: 75 75 10
Width: 640
Flags: HW
LayerCount: 2
Fore
SplineSet
319 784 m 0
 329 784 325 784 341 782 c 0
 355 781 360 781 427 776 c 0
 460 774 495 773 517 773 c 0
 524 773 530 773 534 773 c 0
 540 774 545 774 549 774 c 0
 560 774 564 772 570 766 c 0
 573 762 575 759 575 756 c 0
 575 750 566 748 547 748 c 0
 539 748 530 748 519 749 c 0
 494 751 443 753 404 754 c 2
 334 756 l 1
 332 608 l 2
 332 597 332 585 332 574 c 0
 332 434 338 329 347 303 c 0
 351 293 365 262 378 233 c 0
 391 205 405 171 409 158 c 0
 425 111 441 99 442 91 c 0
 443 82 444 87 444 85 c 0
 444 83 445 81 446 79 c 0
 452 68 457 41 496 -29 c 0
 515 -62 543 -97 549 -97 c 0
 553 -97 557 -104 559 -112 c 0
 561 -120 563 -133 565 -141 c 0
 566 -149 568 -148 562 -153 c 0
 559 -156 561 -154 558 -156 c 0
 557 -157 558 -158 552 -158 c 0
 550 -158 551 -158 548 -156 c 0
 545 -154 547 -156 541 -150 c 0
 536 -145 526 -131 520 -119 c 0
 513 -106 502 -89 495 -80 c 0
 488 -70 472 -45 460 -22 c 0
 448 0 436 21 432 25 c 0
 424 36 393 108 393 117 c 0
 393 125 374 170 352 216 c 0
 346 229 341 243 341 245 c 0
 341 247 335 255 329 262 c 0
 323 268 320 272 317 272 c 0
 312 272 307 260 293 227 c 0
 285 210 255 149 227 91 c 0
 199 33 161 -43 145 -77 c 0
 127 -115 107 -140 103 -147 c 0
 98 -156 99 -151 94 -160 c 0
 86 -172 94 -170 84 -170 c 0
 76 -170 71 -169 68 -161 c 0
 63 -149 64 -147 75 -136 c 0
 82 -130 87 -121 87 -117 c 0
 87 -112 92 -106 97 -104 c 0
 103 -101 110 -90 114 -79 c 0
 118 -67 126 -50 133 -39 c 0
 139 -29 151 -5 159 13 c 0
 179 62 188 82 263 237 c 0
 277 267 291 296 292 301 c 0
 293 305 296 308 300 315 c 0
 305 325 310 332 310 356 c 0
 310 364 309 374 308 387 c 0
 305 414 302 508 302 596 c 2
 301 756 l 1
 214 757 l 2
 201 757 189 757 177 757 c 0
 142 757 118 756 109 753 c 0
 92 749 90 749 84 756 c 0
 81 759 80 762 80 764 c 0
 80 777 117 780 230 783 c 0
 262 784 282 784 295 784 c 0
 308 784 314 784 319 784 c 0
EndSplineSet
Validated: 1
EndChar

StartChar: L
Encoding: 76 76 11
Width: 640
Flags: HW
LayerCount: 2
Fore
SplineSet
105 770 m 0
 115 772 124 773 138 773 c 0
 157 773 185 771 235 768 c 0
 242 768 247 767 253 767 c 0
 288 767 301 775 309 776 c 0
 319 776 321 775 330 775 c 0
 340 775 356 765 413 765 c 0
 418 765 423 765 428 765 c 0
 475 767 523 770 533 773 c 0
 546 776 554 776 562 772 c 0
 576 765 576 762 562 749 c 0
 552 739 546 738 458 736 c 0
 406 735 357 733 348 732 c 2
 332 729 l 1
 335 540 l 2
 339 330 342 301 366 260 c 0
 375 246 390 215 400 193 c 0
 415 158 435 119 456 86 c 0
 458 82 470 58 482 32 c 0
 494 6 506 -19 509 -24 c 0
 534 -71 540 -80 546 -80 c 0
 547 -80 547 -80 548 -80 c 0
 552 -78 553 -80 552 -85 c 0
 550 -89 554 -102 561 -114 c 0
 569 -128 573 -134 573 -140 c 0
 573 -145 569 -148 562 -155 c 0
 552 -166 551 -166 544 -160 c 0
 538 -154 496 -150 443 -150 c 0
 421 -150 398 -151 374 -152 c 0
 358 -153 339 -154 321 -154 c 0
 303 -154 286 -153 273 -152 c 0
 244 -149 218 -148 195 -148 c 0
 155 -148 121 -152 92 -160 c 0
 85 -163 80 -159 73 -149 c 0
 65 -135 65 -134 74 -127 c 0
 79 -124 86 -120 90 -120 c 0
 94 -120 105 -108 114 -93 c 0
 130 -65 169 12 169 18 c 0
 169 20 177 31 187 43 c 0
 197 55 208 70 211 77 c 0
 214 83 224 102 234 119 c 0
 255 153 281 204 299 248 c 0
 309 270 311 278 311 320 c 0
 311 330 311 341 311 354 c 0
 311 397 308 477 306 532 c 0
 305 573 304 620 304 654 c 0
 304 666 304 676 304 684 c 2
 305 734 l 1
 279 734 l 2
 264 734 223 738 188 741 c 0
 161 744 145 746 134 746 c 0
 123 746 117 744 109 741 c 0
 100 736 96 734 92 734 c 0
 87 734 86 725 81 737 c 0
 79 743 78 748 78 752 c 0
 78 761 85 765 105 770 c 0
353 217 m 0
 343 238 337 247 333 247 c 0
 330 247 328 242 325 233 c 0
 322 223 318 214 316 210 c 0
 315 206 313 202 308 198 c 0
 304 194 297 187 293 177 c 0
 276 136 241 72 212 35 c 0
 201 19 132 -106 132 -112 c 0
 132 -116 148 -116 164 -112 c 0
 173 -109 180 -111 188 -117 c 0
 199 -125 203 -125 211 -120 c 0
 217 -118 226 -116 231 -117 c 0
 235 -119 241 -118 242 -115 c 0
 243 -113 250 -113 261 -113 c 0
 271 -113 283 -113 297 -114 c 0
 331 -117 369 -118 401 -118 c 0
 441 -118 472 -116 474 -112 c 0
 476 -108 482 -108 495 -112 c 0
 504 -115 513 -116 515 -114 c 0
 515 -114 515 -114 515 -114 c 0
 515 -103 429 69 420 77 c 0
 416 80 413 84 413 86 c 0
 413 90 373 178 353 217 c 0
EndSplineSet
Validated: 1
EndChar

StartChar: M
Encoding: 77 77 12
Width: 640
Flags: HW
LayerCount: 2
Fore
SplineSet
311 780 m 0
 313 788 316 788 325 779 c 0
 330 774 341 773 389 773 c 0
 402 773 418 773 437 773 c 0
 453 773 467 773 479 773 c 0
 541 773 555 771 555 757 c 0
 555 753 554 750 553 745 c 0
 550 728 544 725 541 739 c 0
 539 746 537 748 506 748 c 0
 491 748 471 748 442 747 c 0
 389 746 343 744 341 742 c 0
 335 735 328 514 328 397 c 0
 328 360 328 334 330 327 c 0
 334 316 333 311 328 307 c 0
 324 304 323 298 321 296 c 0
 317 293 319 295 314 294 c 0
 302 292 272 292 241 275 c 0
 213 258 148 192 132 164 c 0
 117 137 106 87 106 47 c 0
 106 43 106 38 106 34 c 0
 111 -27 156 -87 213 -108 c 0
 256 -124 263 -125 318 -126 c 0
 359 -126 370 -124 392 -114 c 0
 417 -103 474 -56 504 -21 c 0
 522 -1 537 41 537 67 c 0
 537 88 542 93 557 89 c 0
 565 86 566 83 563 71 c 0
 561 63 559 42 557 23 c 0
 555 1 552 -10 548 -10 c 0
 545 -10 535 -19 527 -31 c 0
 490 -82 403 -143 366 -144 c 0
 358 -144 345 -146 338 -148 c 0
 334 -149 328 -150 320 -150 c 0
 309 -150 296 -149 281 -147 c 0
 226 -140 156 -107 131 -76 c 0
 122 -65 115 -54 115 -52 c 0
 114 -50 108 -44 104 -38 c 0
 96 -29 97 -30 95 -25 c 0
 91 -17 85 -19 82 28 c 0
 80 51 78 72 77 77 c 0
 77 80 75 86 77 89 c 0
 79 91 82 104 84 117 c 0
 86 130 89 143 91 145 c 0
 93 148 102 162 110 178 c 0
 126 208 194 279 226 299 c 0
 237 306 258 314 272 317 c 2
 300 323 l 1
 298 405 l 2
 298 449 296 493 296 503 c 0
 296 506 296 510 296 516 c 0
 296 533 297 560 298 586 c 0
 303 649 305 687 305 710 c 0
 305 729 304 737 301 739 c 0
 297 741 258 743 202 743 c 0
 150 744 103 744 97 745 c 0
 82 748 74 757 80 763 c 0
 86 769 156 773 250 774 c 0
 293 774 309 776 311 780 c 0
EndSplineSet
Validated: 1
EndChar

StartChar: N
Encoding: 78 78 13
Width: 640
Flags: HW
LayerCount: 2
Fore
SplineSet
496 774 m 0
 498 776 502 777 507 777 c 0
 517 777 531 774 538 769 c 0
 544 765 545 760 545 753 c 0
 545 741 544 745 538 745 c 0
 533 745 523 749 488 749 c 0
 485 749 481 749 477 749 c 0
 446 749 401 748 379 747 c 0
 357 747 337 744 334 742 c 0
 329 740 328 694 327 547 c 0
 327 442 326 347 326 335 c 2
 325 314 l 1
 348 313 l 2
 361 312 388 305 409 297 c 0
 492 267 547 214 558 156 c 0
 561 142 565 127 568 121 c 0
 569 118 570 112 570 103 c 0
 570 90 569 70 565 38 c 0
 559 -15 553 -55 550 -55 c 0
 550 -55 549 -53 549 -49 c 0
 549 -43 547 -40 545 -40 c 0
 540 -40 530 -53 512 -80 c 0
 475 -135 469 -140 451 -147 c 0
 405 -165 362 -177 344 -177 c 0
 335 -177 327 -179 325 -182 c 0
 323 -185 320 -185 314 -180 c 0
 310 -177 291 -170 270 -166 c 0
 251 -161 225 -151 212 -143 c 0
 178 -122 115 -56 105 -31 c 0
 100 -19 95 -7 92 -3 c 0
 80 17 74 37 73 59 c 0
 72 82 72 84 84 85 c 0
 96 87 97 85 99 59 c 0
 105 12 151 -66 191 -96 c 0
 200 -103 213 -113 220 -119 c 0
 235 -131 268 -142 317 -149 c 0
 331 -151 340 -152 348 -152 c 0
 360 -152 368 -149 384 -144 c 0
 399 -139 415 -135 418 -135 c 0
 431 -135 463 -105 488 -70 c 0
 529 -13 536 3 538 50 c 0
 538 56 538 61 538 67 c 0
 538 137 516 198 477 231 c 0
 446 258 417 272 372 281 c 0
 355 285 346 286 340 286 c 0
 334 286 330 285 326 282 c 0
 316 276 314 276 304 284 c 2
 293 291 l 1
 298 406 l 2
 300 468 302 565 302 638 c 0
 302 696 301 739 299 741 c 0
 298 742 251 744 194 745 c 2
 90 746 l 1
 89 736 l 2
 86 713 67 734 70 757 c 2
 72 769 l 1
 283 771 l 2
 399 771 494 773 496 774 c 0
EndSplineSet
Validated: 1
EndChar

StartChar: O
Encoding: 79 79 14
Width: 640
Flags: HW
LayerCount: 2
Fore
SplineSet
304 785 m 0
 307 787 344 788 387 788 c 0
 437 788 495 787 517 785 c 0
 524 785 534 785 539 787 c 0
 540 787 541 787 542 787 c 0
 551 787 562 774 562 763 c 0
 562 757 559 751 551 749 c 0
 541 746 548 745 541 747 c 0
 531 750 540 750 500 752 c 0
 482 753 451 754 421 754 c 0
 410 754 399 754 389 754 c 2
 322 754 l 1
 319 718 l 2
 318 706 317 693 317 681 c 0
 317 672 317 665 318 660 c 0
 318 648 320 578 321 505 c 0
 324 387 328 317 332 317 c 0
 332 317 350 314 371 311 c 0
 405 307 418 302 477 271 c 0
 491 264 505 250 535 214 c 0
 541 207 548 191 551 177 c 0
 554 164 559 152 561 152 c 0
 570 152 575 108 575 68 c 0
 575 48 574 29 571 17 c 0
 568 6 563 -11 560 -22 c 0
 558 -33 554 -40 553 -39 c 0
 551 -37 544 -45 537 -55 c 0
 520 -81 456 -147 448 -147 c 0
 445 -147 436 -151 429 -157 c 0
 415 -168 356 -177 313 -177 c 0
 305 -177 297 -177 290 -176 c 0
 240 -169 204 -158 182 -141 c 0
 160 -124 125 -86 107 -59 c 0
 100 -49 90 -46 89 -43 c 0
 87 -39 85 -35 85 -35 c 0
 80 -11 75 42 75 79 c 0
 75 91 76 101 77 108 c 0
 84 162 119 218 177 274 c 0
 203 299 229 310 283 320 c 2
 298 322 l 1
 297 398 l 2
 296 440 293 491 290 512 c 0
 288 534 285 595 283 650 c 0
 282 705 281 749 281 750 c 0
 281 751 273 751 261 751 c 0
 217 751 113 747 94 744 c 0
 71 741 69 741 66 751 c 0
 62 765 71 775 87 775 c 0
 151 776 299 782 304 785 c 0
389 280 m 0
 380 286 334 290 298 290 c 0
 280 290 265 289 257 287 c 0
 205 272 198 268 165 228 c 0
 118 172 94 118 94 65 c 0
 94 14 115 -35 158 -83 c 0
 201 -131 237 -148 304 -148 c 0
 313 -148 323 -148 334 -147 c 0
 398 -142 428 -131 466 -98 c 0
 490 -76 521 -25 537 20 c 0
 543 38 546 62 546 86 c 0
 546 105 544 124 540 138 c 0
 531 168 507 209 488 229 c 0
 472 245 419 273 406 273 c 0
 402 273 394 277 389 280 c 0
EndSplineSet
Validated: 1
EndChar

StartChar: P
Encoding: 80 80 15
Width: 640
Flags: HW
LayerCount: 2
Fore
SplineSet
189 777 m 0
 201 778 215 779 226 779 c 0
 229 779 233 779 235 779 c 0
 243 778 313 777 390 777 c 0
 541 777 544 777 544 752 c 0
 544 738 538 734 526 741 c 0
 521 743 478 747 427 748 c 0
 411 748 397 748 386 748 c 0
 347 748 336 747 333 743 c 0
 330 740 328 714 328 649 c 0
 328 619 328 581 329 533 c 0
 331 421 333 328 334 325 c 0
 336 323 347 321 359 321 c 0
 388 321 423 309 440 293 c 0
 448 287 460 277 468 272 c 0
 504 250 544 201 544 180 c 0
 544 176 547 173 549 173 c 0
 552 173 553 161 553 146 c 0
 553 132 556 107 559 93 c 0
 560 85 561 73 561 61 c 0
 561 39 559 18 556 18 c 0
 556 18 555 19 555 20 c 0
 553 24 547 16 539 3 c 0
 515 -40 469 -100 455 -108 c 0
 448 -112 433 -121 422 -128 c 0
 404 -140 378 -149 353 -152 c 0
 345 -153 337 -157 335 -159 c 0
 332 -162 315 -163 295 -163 c 0
 261 -163 218 -153 189 -138 c 0
 173 -130 140 -96 126 -74 c 0
 114 -55 118 -69 112 -55 c 0
 111 -52 113 -58 105 -48 c 0
 98 -38 93 -16 88 3 c 0
 82 24 79 37 79 56 c 0
 79 62 79 69 80 76 c 0
 83 135 95 163 154 247 c 0
 173 275 216 301 255 307 c 0
 273 310 291 314 295 316 c 0
 300 318 301 335 301 430 c 0
 301 456 301 488 301 527 c 0
 300 640 300 736 300 739 c 0
 300 745 272 748 236 748 c 0
 184 748 117 742 102 733 c 0
 93 727 91 727 85 735 c 0
 82 739 79 747 80 752 c 0
 81 761 100 766 189 777 c 0
385 289 m 0
 369 295 357 298 349 298 c 0
 345 298 342 297 340 295 c 0
 339 294 330 292 320 291 c 0
 281 287 224 275 214 268 c 0
 195 255 159 217 148 196 c 0
 113 133 107 123 107 89 c 0
 107 81 108 73 108 62 c 0
 111 3 114 -8 139 -48 c 0
 160 -80 185 -103 217 -120 c 0
 240 -132 246 -133 296 -133 c 0
 356 -133 362 -131 422 -96 c 0
 457 -76 467 -68 481 -46 c 0
 490 -32 498 -20 498 -19 c 0
 498 -17 505 -6 512 6 c 0
 523 24 527 37 530 69 c 0
 531 82 532 94 532 105 c 0
 532 157 516 192 479 227 c 0
 442 260 415 278 385 289 c 0
302 102 m 0
 309 109 316 112 322 112 c 0
 328 112 333 109 337 102 c 0
 342 92 342 87 338 75 c 0
 334 66 337 56 331 54 c 0
 330 53 329 54 326 54 c 0
 324 54 323 53 321 52 c 0
 318 51 319 53 311 53 c 0
 303 53 298 57 295 65 c 0
 292 72 291 77 291 82 c 0
 291 89 295 95 302 102 c 0
EndSplineSet
Validated: 1
EndChar

StartChar: Q
Encoding: 81 81 16
Width: 640
Flags: HW
LayerCount: 2
Fore
SplineSet
80 788 m 0
 80 788 81 788 81 788 c 0
 92 788 134 711 144 676 c 0
 147 663 162 628 177 599 c 0
 192 569 204 543 204 540 c 0
 204 535 235 473 246 453 c 0
 248 449 259 427 270 405 c 0
 285 374 292 363 298 363 c 0
 304 363 308 367 308 371 c 0
 308 376 311 378 317 376 c 0
 323 375 328 379 337 398 c 0
 343 411 351 430 352 439 c 0
 354 447 360 461 365 468 c 0
 370 474 374 482 374 484 c 0
 374 486 379 498 385 511 c 0
 391 524 405 553 415 575 c 0
 425 597 444 633 457 655 c 0
 469 677 488 712 499 734 c 0
 518 774 530 790 542 790 c 0
 544 790 545 790 546 790 c 0
 556 789 562 777 562 766 c 0
 562 762 562 758 560 755 c 0
 557 749 554 746 553 748 c 0
 552 750 550 751 549 751 c 0
 543 751 534 737 516 704 c 0
 505 680 492 658 489 655 c 0
 477 640 444 569 444 558 c 0
 444 552 442 546 439 544 c 0
 433 540 374 418 374 408 c 0
 374 404 370 394 366 388 c 0
 356 369 338 318 336 314 c 0
 335 312 334 309 330 305 c 0
 325 298 322 298 321 273 c 0
 319 90 317 39 313 -3 c 0
 312 -18 311 -36 311 -53 c 0
 311 -94 314 -135 319 -145 c 0
 322 -151 320 -154 315 -156 c 0
 313 -157 311 -157 309 -157 c 0
 291 -157 283 -119 283 -29 c 0
 283 -0 284 34 286 74 c 0
 290 175 291 231 291 264 c 0
 291 299 289 305 288 309 c 0
 288 312 288 310 285 316 c 0
 282 323 282 324 279 329 c 0
 274 338 280 333 267 352 c 0
 260 362 250 382 243 396 c 0
 217 457 175 535 166 541 c 0
 160 545 158 550 160 557 c 0
 160 558 160 559 160 560 c 0
 160 568 156 582 148 598 c 0
 140 614 126 650 117 678 c 0
 108 705 95 737 89 749 c 0
 81 763 78 774 78 781 c 0
 78 784 78 786 80 788 c 0
EndSplineSet
Validated: 1
EndChar

StartChar: plus
Encoding: 43 43 60
Width: 640
Flags: HW
LayerCount: 2
Fore
SplineSet
323 814 m 0
 332 814 342 815 351 815 c 0
 361 815 370 814 375 814 c 0
 422 808 497 751 519 705 c 0
 522 696 528 684 532 678 c 0
 538 666 547 609 548 573 c 0
 548 572 548 570 548 569 c 0
 548 541 539 509 527 491 c 0
 521 483 513 467 509 457 c 0
 492 418 443 359 407 337 c 2
 387 324 l 1
 403 314 l 2
 411 309 419 305 421 305 c 0
 430 305 480 262 499 238 c 0
 545 182 547 179 557 133 c 0
 562 112 564 95 564 79 c 0
 564 57 559 37 548 10 c 0
 517 -66 452 -119 349 -152 c 0
 319 -162 304 -164 265 -164 c 0
 222 -164 216 -163 194 -151 c 0
 181 -144 164 -134 156 -128 c 0
 140 -114 97 -58 97 -49 c 0
 97 -45 93 -38 89 -31 c 0
 81 -21 75 24 75 64 c 0
 75 82 76 99 79 110 c 0
 85 139 111 194 124 208 c 0
 130 213 134 220 134 222 c 0
 134 226 142 234 182 265 c 0
 200 279 220 293 238 298 c 0
 243 300 247 302 247 305 c 0
 247 310 239 317 217 325 c 0
 181 337 136 368 131 383 c 0
 129 389 124 398 120 404 c 0
 115 410 111 419 111 423 c 0
 111 427 107 438 102 447 c 0
 96 458 93 473 93 489 c 0
 93 502 90 515 88 516 c 0
 86 518 85 527 85 540 c 0
 85 577 93 647 102 657 c 0
 104 660 107 668 108 677 c 0
 110 684 115 693 118 697 c 0
 122 700 128 708 132 716 c 0
 143 736 166 764 172 764 c 0
 176 764 181 768 186 773 c 0
 190 778 202 784 212 787 c 0
 223 790 245 797 261 802 c 0
 278 807 305 813 323 814 c 0
397 785 m 0
 378 791 361 794 342 794 c 0
 312 794 279 785 232 768 c 0
 180 749 125 677 118 617 c 0
 115 595 114 574 114 555 c 0
 114 511 122 477 137 453 c 0
 146 441 152 430 152 428 c 0
 152 420 205 370 231 353 c 0
 255 337 261 335 293 333 c 0
 298 333 303 333 308 333 c 0
 338 333 364 338 387 348 c 0
 403 356 440 400 463 439 c 0
 471 454 483 470 488 475 c 0
 494 480 498 489 498 495 c 0
 498 500 501 506 505 508 c 0
 508 510 511 513 511 515 c 0
 511 518 515 524 519 529 c 0
 525 535 526 538 521 542 c 0
 519 544 518 550 518 558 c 0
 518 563 518 569 519 575 c 0
 520 580 520 585 520 589 c 0
 520 603 518 616 514 630 c 0
 510 645 505 664 503 671 c 0
 494 713 438 772 397 785 c 0
385 297 m 0
 374 301 364 304 362 304 c 0
 359 304 355 305 350 305 c 0
 343 305 335 304 326 299 c 0
 321 297 301 297 296 298 c 0
 291 299 287 300 283 300 c 0
 268 300 257 291 216 265 c 0
 188 246 166 230 166 228 c 0
 166 226 158 214 148 202 c 0
 139 190 125 168 118 153 c 0
 106 130 105 121 103 70 c 0
 102 55 102 43 102 34 c 0
 102 12 104 2 113 -22 c 0
 120 -41 131 -63 136 -70 c 0
 151 -92 185 -123 200 -129 c 0
 216 -136 238 -139 263 -139 c 0
 317 -139 383 -125 423 -101 c 0
 471 -73 493 -51 520 -7 c 0
 533 15 541 52 541 83 c 0
 541 95 540 107 537 116 c 0
 523 168 492 218 456 246 c 0
 446 255 430 268 421 276 c 0
 412 283 396 293 385 297 c 0
299 574 m 0
 303 576 306 578 309 578 c 0
 318 578 325 567 325 555 c 0
 325 546 321 537 313 531 c 0
 304 525 301 524 291 529 c 0
 285 531 279 537 279 541 c 0
 279 549 291 569 299 574 c 0
EndSplineSet
Validated: 1
EndChar

StartChar: slash
Encoding: 47 47 64
Width: 640
Flags: HW
LayerCount: 2
Fore
SplineSet
240 791 m 0
 262 800 288 804 313 804 c 0
 352 804 390 794 412 775 c 0
 420 769 428 764 430 764 c 0
 433 764 452 746 474 725 c 0
 507 692 514 682 519 664 c 0
 522 652 527 636 530 630 c 0
 533 623 536 607 538 593 c 0
 541 579 543 560 545 550 c 0
 546 547 546 543 546 540 c 0
 546 519 535 491 502 418 c 0
 496 403 482 384 472 374 c 2
 454 355 l 1
 468 377 l 2
 476 389 482 400 482 403 c 0
 482 405 488 416 493 427 c 0
 512 460 522 505 522 544 c 0
 522 549 522 553 522 558 c 0
 515 645 491 688 421 742 c 0
 373 777 361 782 313 784 c 0
 308 784 303 784 299 784 c 0
 251 784 225 774 199 748 c 0
 150 698 127 666 118 634 c 0
 112 613 109 588 109 563 c 0
 109 524 116 485 129 457 c 0
 133 449 137 438 139 432 c 0
 142 423 141 422 131 423 c 0
 125 424 118 430 114 438 c 0
 110 446 106 456 103 459 c 0
 95 474 89 490 88 501 c 0
 87 507 85 518 83 524 c 0
 83 526 82 529 82 533 c 0
 82 560 94 628 105 656 c 0
 113 677 125 693 162 730 c 0
 202 772 212 780 240 791 c 0
312 557 m 0
 315 562 319 565 323 565 c 0
 332 565 342 555 342 542 c 0
 342 540 342 537 341 534 c 0
 336 520 324 515 314 524 c 0
 310 528 307 534 307 540 c 0
 307 545 309 551 312 557 c 0
146 404 m 0
 146 409 148 412 152 410 c 0
 160 408 203 358 207 347 c 0
 209 340 213 339 222 341 c 0
 223 341 224 341 226 341 c 0
 243 341 292 329 304 322 c 0
 306 321 305 316 302 311 c 0
 299 305 298 300 302 297 c 0
 305 294 308 295 311 301 c 0
 314 306 315 312 314 313 c 0
 312 314 312 318 314 320 c 0
 315 322 317 322 319 322 c 0
 327 322 342 311 342 301 c 0
 342 288 336 284 316 284 c 0
 273 284 208 247 177 205 c 0
 166 189 162 187 160 193 c 0
 159 201 169 215 177 215 c 0
 179 215 184 220 188 227 c 0
 195 241 238 275 249 275 c 0
 253 275 257 277 259 280 c 0
 261 283 265 283 268 282 c 0
 275 279 290 297 286 303 c 0
 285 305 279 307 274 307 c 0
 270 307 257 311 246 316 c 0
 235 321 217 329 204 334 c 0
 181 344 166 356 166 365 c 0
 166 368 162 376 156 383 c 0
 150 389 146 399 146 404 c 0
429 348 m 0
 448 358 452 353 436 337 c 0
 428 328 418 321 416 321 c 0
 406 320 390 303 390 296 c 0
 390 294 391 293 394 293 c 0
 404 293 459 251 485 225 c 0
 526 180 557 109 557 66 c 0
 557 55 556 47 552 40 c 0
 549 36 544 21 540 8 c 0
 532 -18 527 -26 493 -72 c 0
 474 -98 430 -132 391 -151 c 0
 379 -157 362 -166 354 -170 c 0
 343 -176 332 -178 309 -178 c 0
 304 -178 299 -178 294 -178 c 0
 255 -177 246 -175 221 -163 c 0
 205 -156 181 -139 168 -127 c 0
 135 -97 102 -37 95 3 c 0
 92 20 91 37 91 51 c 0
 91 69 93 83 98 86 c 0
 101 89 104 95 104 99 c 0
 104 104 107 111 111 116 c 0
 115 121 118 129 118 134 c 0
 118 142 124 151 146 177 c 0
 154 187 157 179 148 167 c 0
 144 160 141 153 141 151 c 0
 141 148 136 134 129 119 c 0
 120 99 115 76 115 53 c 0
 115 -23 162 -106 233 -142 c 0
 260 -155 267 -157 303 -157 c 0
 331 -157 345 -154 353 -149 c 0
 360 -145 373 -139 383 -136 c 0
 407 -128 450 -95 483 -57 c 0
 504 -33 513 -19 524 12 c 0
 533 37 536 48 536 63 c 0
 536 70 536 77 535 87 c 0
 533 111 530 122 526 124 c 0
 522 126 519 130 519 134 c 0
 519 147 496 184 479 200 c 0
 470 207 462 219 462 224 c 0
 461 232 457 236 446 240 c 0
 438 243 428 249 425 253 c 0
 422 257 416 261 411 261 c 0
 407 261 404 263 404 265 c 0
 404 270 367 289 357 289 c 0
 351 289 350 291 352 298 c 0
 355 304 365 311 381 316 c 0
 394 321 409 329 413 334 c 0
 417 339 424 345 429 348 c 0
313 92 m 0
 323 96 326 95 331 83 c 0
 336 73 336 70 328 64 c 0
 322 60 314 58 308 58 c 0
 302 58 297 60 295 63 c 0
 293 66 296 70 300 73 c 0
 304 75 307 80 307 83 c 0
 307 87 310 91 313 92 c 0
EndSplineSet
Validated: 1
EndChar

StartChar: zero
Encoding: 48 48 65
Width: 640
Flags: HW
LayerCount: 2
Fore
SplineSet
276 774 m 0
 300 780 320 784 340 784 c 0
 358 784 377 781 400 775 c 0
 434 767 443 763 466 743 c 0
 494 720 522 686 527 669 c 0
 529 663 537 650 544 641 c 0
 552 630 560 617 561 611 c 0
 563 603 564 578 564 550 c 0
 564 535 564 520 563 505 c 0
 561 479 559 473 548 462 c 0
 542 455 530 438 522 424 c 0
 504 395 484 377 442 352 c 0
 425 342 406 330 401 326 c 0
 395 321 387 318 383 318 c 0
 379 318 368 313 357 308 c 0
 346 304 334 300 329 300 c 0
 329 300 328 300 328 300 c 0
 316 300 284 286 272 275 c 0
 266 270 261 268 259 271 c 0
 256 273 251 272 244 266 c 0
 237 261 231 257 229 257 c 0
 224 257 182 221 170 207 c 0
 155 188 137 152 130 124 c 0
 127 114 126 103 126 91 c 0
 126 48 143 -5 172 -48 c 0
 202 -91 281 -123 344 -123 c 0
 361 -123 377 -120 391 -115 c 0
 436 -97 488 -55 514 -15 c 0
 535 18 541 30 547 63 c 0
 552 90 553 97 559 97 c 0
 561 97 564 96 568 95 c 0
 577 93 578 91 576 74 c 0
 574 65 571 55 569 53 c 0
 567 50 566 43 567 37 c 0
 567 35 568 33 568 31 c 0
 568 18 561 -2 555 -6 c 0
 554 -8 543 -21 531 -37 c 0
 520 -52 500 -75 487 -85 c 0
 474 -96 457 -111 449 -118 c 0
 442 -125 428 -132 419 -134 c 0
 410 -135 400 -138 398 -140 c 0
 394 -143 373 -145 356 -145 c 0
 347 -145 339 -144 336 -143 c 0
 334 -141 322 -140 311 -140 c 0
 309 -140 306 -140 304 -140 c 0
 272 -140 254 -133 218 -109 c 0
 172 -78 159 -65 140 -34 c 0
 132 -21 124 -11 121 -11 c 0
 118 -11 115 -6 115 -1 c 0
 115 4 111 29 105 55 c 0
 100 79 98 91 98 100 c 0
 98 108 100 113 103 122 c 0
 107 134 112 151 113 162 c 0
 115 173 119 186 124 190 c 0
 149 219 209 276 220 282 c 0
 227 285 236 291 239 295 c 0
 248 303 266 312 283 316 c 0
 303 320 300 324 272 331 c 0
 235 340 169 393 143 434 c 0
 137 445 128 457 124 460 c 0
 115 468 107 524 107 563 c 0
 107 569 108 575 108 580 c 0
 114 633 116 642 121 642 c 0
 124 642 131 654 138 668 c 0
 150 693 170 714 195 729 c 0
 202 733 215 743 224 750 c 0
 236 760 251 767 276 774 c 0
413 751 m 0
 385 760 364 765 343 765 c 0
 332 765 321 763 309 761 c 0
 260 751 235 736 185 692 c 0
 161 670 140 632 134 601 c 0
 133 593 132 576 132 558 c 0
 132 554 132 550 132 546 c 0
 132 511 133 507 152 471 c 0
 176 423 218 378 253 362 c 0
 266 356 295 349 318 345 c 0
 332 343 344 342 354 342 c 0
 374 342 387 347 405 358 c 0
 414 363 432 374 444 381 c 0
 477 400 502 429 522 472 c 0
 536 501 541 515 541 533 c 0
 541 547 543 564 545 572 c 0
 545 574 545 575 545 578 c 0
 545 596 533 631 516 659 c 0
 509 670 504 680 504 682 c 0
 504 688 475 718 458 731 c 0
 451 736 431 745 413 751 c 0
EndSplineSet
Validated: 1
EndChar

StartChar: one
Encoding: 49 49 66
Width: 640
Flags: HW
LayerCount: 2
Fore
SplineSet
359 773 m 0
 424 738 462 728 508 666 c 0
 552 606 558 577 559 525 c 0
 559 516 559 509 559 503 c 0
 559 480 558 473 552 465 c 0
 547 458 542 448 540 444 c 0
 537 435 494 388 449 346 c 0
 439 336 418 323 402 316 c 0
 383 307 370 299 370 296 c 0
 370 295 372 294 375 294 c 0
 378 294 396 286 414 278 c 0
 451 261 491 232 502 213 c 0
 506 207 513 199 517 195 c 0
 521 192 533 172 543 153 c 0
 560 119 561 115 561 75 c 0
 561 70 561 65 561 61 c 0
 561 31 559 30 520 -40 c 0
 494 -85 444 -124 383 -147 c 0
 370 -151 355 -155 349 -156 c 0
 340 -157 352 -160 328 -160 c 0
 323 -160 322 -160 316 -160 c 0
 310 -160 304 -158 302 -156 c 0
 299 -154 283 -148 265 -143 c 0
 247 -137 231 -131 230 -128 c 0
 228 -126 215 -118 200 -111 c 0
 153 -87 108 -31 95 20 c 0
 91 36 86 54 84 61 c 0
 81 70 82 73 87 75 c 0
 101 81 106 77 109 61 c 0
 118 9 154 -56 186 -77 c 0
 242 -114 290 -132 336 -132 c 0
 343 -132 349 -132 356 -131 c 0
 403 -125 475 -71 505 -21 c 0
 512 -10 522 6 527 15 c 0
 536 27 537 36 537 64 c 0
 537 106 528 145 515 165 c 0
 468 231 432 258 367 276 c 0
 327 288 312 292 304 292 c 0
 301 292 300 292 298 291 c 0
 298 291 298 291 297 291 c 0
 287 291 220 320 205 332 c 0
 202 335 188 343 175 350 c 0
 162 358 140 377 124 396 c 0
 100 423 94 434 87 459 c 0
 82 480 79 515 79 544 c 0
 79 571 81 593 86 596 c 0
 90 599 94 612 96 625 c 0
 97 638 100 648 102 648 c 0
 104 648 114 660 124 674 c 0
 150 713 171 731 216 753 c 0
 246 768 264 774 285 775 c 0
 301 777 316 781 320 781 c 0
 325 781 326 779 330 778 c 0
 335 777 348 779 359 773 c 0
454 699 m 24
 432 720 427 721 387 739 c 0
 373 745 366 747 356 747 c 0
 348 747 339 746 324 746 c 0
 320 746 317 746 313 746 c 2
 261 747 l 1
 226 730 l 2
 183 709 155 682 135 643 c 0
 121 613 107 564 107 540 c 0
 107 537 108 535 108 533 c 0
 109 526 108 516 106 510 c 0
 104 505 104 497 106 492 c 0
 108 488 113 478 117 470 c 0
 121 462 124 452 124 446 c 0
 124 432 149 395 169 378 c 0
 203 348 283 315 314 315 c 0
 318 315 321 315 323 316 c 0
 329 318 340 321 349 322 c 0
 387 329 473 385 490 415 c 0
 493 419 500 427 506 432 c 0
 515 438 522 453 530 477 c 0
 538 500 542 523 542 545 c 0
 542 564 539 582 533 599 c 0
 525 625 490 665 454 699 c 24
EndSplineSet
Validated: 1
EndChar

StartChar: two
Encoding: 50 50 67
Width: 640
Flags: HW
LayerCount: 2
Fore
SplineSet
282 773 m 0
 293 775 304 777 314 777 c 0
 348 777 381 764 433 733 c 0
 475 709 494 693 511 667 c 0
 518 656 529 639 534 630 c 0
 540 621 547 602 549 587 c 0
 551 576 552 560 552 542 c 0
 552 504 548 460 543 460 c 0
 539 460 529 445 520 427 c 0
 497 384 452 338 419 325 c 0
 386 311 384 309 402 300 c 0
 425 288 511 197 534 160 c 2
 555 127 l 1
 553 68 l 1
 552 8 l 1
 530 -26 l 2
 495 -83 438 -135 398 -149 c 0
 374 -157 353 -161 333 -161 c 0
 307 -161 281 -154 248 -139 c 0
 203 -119 150 -68 133 -27 c 0
 120 4 113 51 113 91 c 0
 113 114 115 134 120 148 c 0
 128 171 151 207 171 227 c 0
 178 233 188 245 194 253 c 0
 202 264 232 285 262 300 c 0
 267 303 271 306 271 307 c 0
 271 309 250 320 224 333 c 0
 174 358 133 391 121 416 c 0
 117 424 107 439 100 449 c 0
 86 467 86 468 85 523 c 0
 85 567 86 582 92 592 c 0
 96 600 105 618 113 633 c 0
 120 647 132 666 139 674 c 0
 146 682 160 698 170 709 c 0
 210 757 217 761 282 773 c 0
396 731 m 0
 363 748 348 754 323 754 c 0
 315 754 305 753 292 752 c 0
 236 746 216 736 188 702 c 0
 175 686 159 667 152 660 c 0
 131 638 107 582 102 543 c 0
 102 540 102 536 102 532 c 0
 102 519 103 502 105 489 c 0
 109 462 113 452 134 421 c 0
 147 401 166 379 176 373 c 0
 213 348 233 337 255 331 c 0
 267 327 282 321 288 318 c 0
 297 312 299 312 305 318 c 0
 309 323 320 324 344 324 c 0
 348 324 352 324 355 324 c 0
 375 324 384 327 408 338 c 0
 452 361 487 398 511 451 c 0
 525 481 531 501 531 535 c 0
 531 542 531 550 530 559 c 0
 529 598 527 609 517 628 c 0
 503 656 468 695 449 705 c 0
 441 709 418 721 396 731 c 0
373 296 m 0
 361 300 349 302 340 302 c 0
 334 302 329 301 327 298 c 0
 326 296 318 295 310 297 c 0
 309 297 307 297 306 297 c 0
 281 297 237 273 204 240 c 0
 172 206 141 162 141 149 c 0
 141 144 138 136 136 130 c 0
 132 124 131 113 131 97 c 0
 131 81 132 60 136 35 c 0
 147 -42 190 -100 257 -126 c 0
 284 -136 315 -142 340 -142 c 0
 352 -142 362 -140 371 -138 c 0
 422 -126 489 -66 522 -3 c 2
 542 34 l 1
 539 75 l 2
 537 100 532 123 527 135 c 0
 522 145 518 155 518 157 c 0
 518 161 507 175 475 211 c 0
 460 227 446 243 445 247 c 0
 438 258 393 289 373 296 c 0
EndSplineSet
Validated: 1
EndChar

StartChar: three
Encoding: 51 51 68
Width: 640
Flags: HW
LayerCount: 2
Fore
SplineSet
357 790 m 0
 358 791 360 792 363 792 c 0
 368 792 377 789 394 784 c 0
 453 762 491 732 519 684 c 0
 525 673 534 660 538 655 c 0
 546 646 557 612 562 585 c 0
 563 581 563 575 563 569 c 0
 563 532 549 469 535 454 c 0
 530 448 520 436 514 426 c 0
 497 400 448 352 432 344 c 0
 425 341 413 334 405 330 c 0
 398 326 384 321 376 318 c 2
 360 312 l 1
 378 305 l 2
 401 295 452 262 452 257 c 0
 452 250 439 253 436 260 c 0
 434 263 430 267 427 267 c 0
 423 267 406 274 390 282 c 0
 362 297 332 305 305 305 c 0
 301 305 296 304 292 304 c 0
 283 303 259 294 238 284 c 0
 208 270 196 261 167 230 c 0
 119 179 108 154 103 90 c 0
 103 86 103 83 103 80 c 0
 103 63 105 49 110 32 c 0
 115 16 120 -2 122 -11 c 0
 127 -33 157 -76 184 -98 c 0
 198 -109 225 -125 244 -133 c 0
 267 -143 275 -146 292 -146 c 0
 300 -146 310 -145 324 -144 c 0
 377 -141 406 -133 437 -113 c 0
 468 -93 506 -56 506 -46 c 0
 506 -42 510 -32 516 -25 c 0
 529 -7 538 60 538 104 c 0
 538 124 536 139 532 144 c 0
 528 149 524 157 522 164 c 0
 521 171 515 180 508 184 c 0
 502 188 497 194 497 197 c 0
 497 201 490 211 481 220 c 0
 473 228 466 237 466 240 c 0
 466 249 475 244 490 228 c 0
 537 176 552 140 552 72 c 0
 552 70 552 67 552 65 c 0
 551 16 551 13 533 -28 c 0
 514 -71 510 -76 477 -103 c 0
 428 -145 371 -165 316 -165 c 0
 264 -165 214 -148 171 -112 c 0
 125 -73 103 -33 88 40 c 0
 86 55 82 72 80 78 c 0
 79 84 79 91 79 93 c 0
 79 95 83 112 86 130 c 0
 95 176 108 201 143 235 c 0
 181 273 187 277 216 294 c 0
 230 302 242 310 243 312 c 0
 243 312 243 312 243 313 c 0
 243 317 209 335 191 340 c 0
 179 343 123 400 101 431 c 0
 85 454 77 488 77 524 c 0
 77 565 87 609 107 646 c 0
 131 691 185 752 200 752 c 0
 203 752 216 757 229 762 c 0
 254 774 290 782 331 786 c 0
 344 787 356 789 357 790 c 0
400 759 m 0
 381 766 369 769 358 769 c 0
 349 769 341 767 331 762 c 0
 322 758 302 754 287 753 c 0
 271 753 254 749 248 746 c 0
 243 743 229 736 218 732 c 0
 203 726 189 716 170 694 c 0
 120 637 95 583 95 527 c 0
 95 513 97 498 100 484 c 0
 108 441 110 439 157 391 c 0
 203 344 225 334 293 331 c 0
 302 330 310 330 318 330 c 0
 352 330 378 335 402 346 c 0
 410 349 419 351 421 350 c 0
 421 350 421 350 422 350 c 0
 429 350 469 389 482 408 c 0
 486 415 494 426 499 432 c 0
 504 437 515 458 523 479 c 0
 536 512 538 520 538 561 c 0
 538 620 535 627 489 696 c 0
 472 723 444 742 400 759 c 0
302 115 m 0
 311 125 321 121 329 104 c 0
 332 99 333 94 333 90 c 0
 333 80 326 74 314 74 c 0
 313 74 313 74 312 74 c 0
 299 76 297 77 296 92 c 0
 295 102 297 111 302 115 c 0
EndSplineSet
Validated: 1
EndChar

StartChar: four
Encoding: 52 52 69
Width: 640
Flags: HW
LayerCount: 2
Fore
SplineSet
300 777 m 0
 301 779 315 780 334 780 c 0
 338 780 342 780 347 780 c 0
 389 780 394 779 413 767 c 0
 425 761 435 755 436 755 c 0
 438 755 449 747 461 737 c 0
 493 711 520 676 531 644 c 0
 542 613 542 615 549 563 c 2
 554 527 l 1
 536 486 l 2
 517 442 512 435 476 389 c 0
 461 368 448 357 439 354 c 0
 431 351 420 344 415 338 c 0
 403 326 374 316 348 316 c 2
 333 316 l 1
 329 248 l 2
 328 211 327 161 327 136 c 0
 327 112 326 69 325 42 c 0
 324 16 322 -35 321 -70 c 0
 320 -109 318 -135 315 -138 c 0
 312 -141 310 -146 310 -150 c 0
 310 -163 304 -159 296 -142 c 0
 292 -133 291 -125 291 -101 c 0
 291 -87 291 -68 292 -41 c 0
 293 -13 294 16 294 39 c 0
 294 55 293 67 293 74 c 0
 293 81 292 88 292 95 c 0
 292 104 293 111 294 115 c 0
 297 125 303 244 303 291 c 0
 303 299 302 305 302 308 c 0
 301 318 299 320 287 320 c 0
 264 320 241 325 239 331 c 0
 238 334 228 341 218 345 c 0
 199 354 139 399 139 405 c 0
 139 408 122 436 105 461 c 0
 101 467 95 488 91 508 c 0
 87 525 86 535 86 542 c 0
 86 548 87 552 90 557 c 0
 94 564 97 572 97 575 c 0
 97 578 101 589 106 600 c 0
 147 695 168 723 211 740 c 0
 227 747 247 755 257 760 c 0
 267 764 279 769 286 770 c 0
 292 772 299 775 300 777 c 0
403 740 m 0
 397 746 375 749 355 749 c 0
 342 749 330 748 325 744 c 0
 320 740 316 739 313 742 c 0
 310 745 306 746 300 746 c 0
 291 746 278 742 261 734 c 0
 247 727 226 718 216 713 c 0
 191 703 170 676 144 625 c 2
 124 587 l 1
 124 538 l 2
 124 489 125 487 139 458 c 0
 158 422 172 405 203 384 c 0
 237 361 269 351 306 350 c 0
 309 350 313 350 316 350 c 0
 370 350 410 365 433 392 c 0
 441 403 455 419 464 428 c 0
 491 455 509 496 514 537 c 0
 515 549 516 558 516 566 c 0
 516 580 514 591 509 612 c 0
 503 632 497 650 495 652 c 0
 492 653 487 662 483 670 c 0
 474 687 442 718 423 728 c 0
 416 732 407 738 403 740 c 0
305 568 m 0
 312 576 318 579 324 579 c 0
 329 579 334 576 338 569 c 0
 341 565 342 560 342 556 c 0
 342 549 338 542 329 536 c 0
 323 532 319 525 319 519 c 0
 319 511 318 511 312 522 c 0
 308 529 302 538 299 542 c 0
 291 551 291 554 305 568 c 0
EndSplineSet
Validated: 1
EndChar

StartChar: five
Encoding: 53 53 70
Width: 640
Flags: HW
LayerCount: 2
Fore
SplineSet
479 -143 m 24
 421 -148 334 -151 330 -155 c 0
 326 -157 319 -157 309 -154 c 0
 300 -151 276 -148 254 -147 c 0
 233 -147 192 -144 163 -141 c 0
 140 -139 101 -137 88 -137 c 0
 85 -137 83 -137 83 -137 c 0
 70 -132 70 -128 80 -118 c 0
 86 -113 106 -110 126 -110 c 0
 137 -110 147 -110 156 -112 c 0
 165 -113 191 -116 213 -117 c 0
 235 -118 264 -121 276 -122 c 2
 298 -125 l 1
 299 -109 l 2
 300 -99 301 -78 302 -62 c 0
 303 -45 304 43 304 135 c 2
 305 303 l 1
 288 307 l 2
 278 310 261 316 248 320 c 0
 235 324 221 328 217 328 c 0
 211 328 196 341 178 359 c 0
 156 382 144 398 131 426 c 0
 122 446 113 469 112 476 c 0
 112 483 109 500 107 514 c 0
 106 520 106 525 106 530 c 0
 106 541 108 550 112 563 c 0
 116 575 119 592 119 600 c 0
 119 629 139 665 181 711 c 0
 206 739 226 752 248 757 c 0
 257 758 266 763 269 766 c 0
 272 770 278 775 284 776 c 0
 289 778 299 779 310 779 c 0
 348 779 409 769 421 759 c 0
 426 754 438 749 448 748 c 0
 463 746 471 741 486 725 c 0
 509 701 537 650 537 630 c 0
 538 623 540 612 544 606 c 0
 548 599 550 582 550 556 c 0
 550 519 549 516 530 475 c 0
 520 452 501 420 490 403 c 0
 457 355 396 311 353 304 c 2
 333 301 l 1
 335 221 l 2
 335 132 336 114 336 104 c 0
 336 98 338 97 338 85 c 0
 338 79 337 74 337 58 c 0
 337 46 338 28 339 -2 c 0
 340 -33 341 -71 342 -89 c 0
 342 -113 344 -119 349 -121 c 0
 350 -121 353 -121 357 -121 c 0
 367 -121 387 -120 407 -119 c 0
 445 -117 520 -115 551 -115 c 0
 556 -115 560 -115 562 -115 c 0
 569 -115 568 -126 561 -132 c 0
 557 -135 511 -140 479 -143 c 24
369 751 m 0
 344 756 331 758 320 758 c 0
 310 758 302 756 286 751 c 0
 243 739 203 711 181 678 c 0
 175 670 168 659 165 655 c 0
 161 650 152 630 145 610 c 0
 135 580 132 567 132 537 c 0
 132 484 147 438 178 399 c 0
 205 364 213 356 238 344 c 0
 263 333 271 331 315 330 c 0
 324 330 333 329 340 329 c 0
 372 329 383 334 412 354 c 0
 440 374 455 389 473 418 c 0
 501 463 519 526 519 574 c 0
 519 585 518 596 516 605 c 0
 505 656 478 703 446 725 c 0
 424 740 420 741 369 751 c 0
319 554 m 0
 324 557 329 559 333 559 c 0
 342 559 347 551 348 537 c 0
 349 528 347 523 339 517 c 0
 333 512 328 506 328 504 c 0
 328 495 322 499 317 511 c 0
 313 518 312 527 312 534 c 0
 312 544 314 551 319 554 c 0
EndSplineSet
Validated: 1
EndChar

StartChar: six
Encoding: 54 54 71
Width: 640
Flags: HW
LayerCount: 2
Fore
SplineSet
234 784 m 0
 255 788 280 791 306 791 c 0
 362 791 423 780 459 755 c 0
 485 736 510 708 524 682 c 0
 530 671 538 661 541 661 c 0
 544 661 545 659 544 657 c 0
 542 654 543 650 545 647 c 0
 549 642 552 602 552 563 c 0
 552 548 552 534 551 521 c 0
 549 506 545 488 542 482 c 0
 538 476 531 464 526 454 c 0
 515 433 436 351 426 351 c 0
 422 351 418 348 416 345 c 0
 415 341 399 332 381 325 c 0
 358 314 351 310 351 305 c 0
 351 304 351 302 352 301 c 0
 355 290 409 193 429 163 c 0
 435 152 441 142 441 139 c 0
 441 137 446 128 452 121 c 0
 458 113 463 104 463 101 c 0
 463 99 470 83 478 67 c 0
 487 51 500 21 507 1 c 0
 519 -35 537 -61 549 -61 c 0
 552 -61 555 -66 555 -73 c 0
 555 -80 558 -92 561 -98 c 0
 565 -106 568 -113 568 -118 c 0
 568 -124 565 -128 559 -131 c 0
 554 -135 550 -142 550 -148 c 0
 549 -154 547 -145 544 -128 c 0
 540 -109 531 -84 518 -61 c 0
 500 -26 474 25 411 145 c 0
 387 193 361 235 353 239 c 0
 351 240 349 245 349 249 c 0
 349 262 336 278 330 272 c 0
 323 266 318 271 318 284 c 0
 318 296 313 297 307 286 c 0
 305 281 294 261 282 241 c 0
 271 222 259 196 255 184 c 0
 252 173 244 156 238 147 c 0
 233 137 226 125 224 119 c 0
 219 100 197 55 156 -28 c 0
 134 -71 112 -114 107 -123 c 0
 103 -132 100 -149 100 -161 c 0
 100 -175 96 -174 93 -172 c 0
 91 -171 88 -174 83 -165 c 0
 78 -157 83 -143 84 -136 c 0
 85 -128 86 -107 99 -87 c 0
 110 -70 181 73 185 85 c 0
 187 90 199 116 212 142 c 0
 225 167 235 191 235 193 c 0
 235 204 272 273 288 292 c 0
 292 296 297 305 298 310 c 0
 299 312 299 314 299 315 c 0
 299 320 291 322 243 328 c 0
 202 335 158 361 129 398 c 0
 117 413 105 424 103 425 c 0
 102 426 103 426 100 428 c 0
 95 431 101 426 94 440 c 0
 86 457 86 482 82 491 c 0
 76 504 73 530 73 557 c 0
 73 591 77 627 86 643 c 0
 88 647 91 659 93 669 c 0
 95 684 101 693 123 715 c 0
 148 740 173 759 206 781 c 0
 213 786 220 781 234 784 c 0
313 773 m 0
 306 773 294 777 277 777 c 0
 269 777 260 776 249 773 c 0
 202 759 136 710 122 677 c 0
 105 640 97 602 97 561 c 0
 97 543 99 524 102 504 c 0
 107 476 135 421 156 402 c 0
 189 370 209 360 259 349 c 0
 288 343 315 340 336 340 c 0
 350 340 361 341 368 344 c 0
 393 355 419 372 442 394 c 0
 453 405 465 416 469 417 c 0
 475 421 507 466 520 491 c 0
 524 498 526 521 526 565 c 0
 526 626 526 630 515 648 c 0
 509 659 499 676 494 686 c 0
 481 708 444 743 419 755 c 0
 399 765 360 774 339 774 c 0
 335 774 332 774 330 773 c 0
 324 772 315 773 313 773 c 0
307 530 m 16
 304 538 299 548 299 555 c 0
 299 561 302 566 309 569 c 0
 313 570 316 571 319 571 c 0
 330 571 336 562 336 545 c 0
 336 535 334 525 331 524 c 0
 329 522 312 521 307 530 c 16
EndSplineSet
Validated: 1
EndChar

StartChar: seven
Encoding: 55 55 72
Width: 640
Flags: HW
LayerCount: 2
Fore
SplineSet
250 -119 m 24
 207 -121 142 -125 141 -125 c 0
 137 -125 126 -131 119 -131 c 0
 115 -131 113 -129 113 -125 c 0
 113 -120 115 -113 121 -101 c 1
 127 -98 142 -75 152 -53 c 0
 162 -32 183 12 199 45 c 0
 215 77 228 104 228 106 c 0
 228 108 232 117 238 126 c 0
 244 135 254 157 261 175 c 0
 268 192 281 218 289 233 c 0
 317 285 332 315 332 319 c 0
 332 320 332 320 332 320 c 0
 323 320 267 331 242 337 c 0
 213 344 171 369 143 394 c 0
 131 406 110 429 100 457 c 16
 92 479 89 497 89 516 c 0
 89 523 89 530 90 538 c 0
 92 557 95 576 97 578 c 0
 102 585 111 618 111 629 c 0
 111 635 114 641 117 642 c 0
 120 644 126 652 131 660 c 0
 144 680 192 728 210 739 c 0
 218 744 234 755 245 764 c 0
 255 772 274 781 289 785 c 0
 303 789 316 793 317 795 c 0
 318 796 321 796 326 796 c 0
 346 796 393 791 422 785 c 0
 473 775 522 739 551 697 c 0
 564 678 559 680 563 676 c 0
 567 671 567 676 576 658 c 0
 580 651 580 629 583 610 c 0
 587 585 587 587 587 572 c 16
 587 561 587 555 587 549 c 0
 587 538 586 528 582 499 c 0
 578 474 575 473 572 469 c 0
 570 466 557 458 545 439 c 0
 534 422 516 400 505 391 c 0
 439 334 435 332 395 328 c 0
 379 326 364 324 363 323 c 0
 363 323 363 322 363 322 c 0
 363 316 375 289 392 255 c 0
 420 202 451 145 461 130 c 0
 471 113 484 91 502 57 c 0
 506 49 516 35 524 26 c 0
 532 17 538 8 538 6 c 0
 538 3 544 -8 552 -19 c 0
 563 -34 568 -38 575 -36 c 0
 581 -34 583 -36 583 -47 c 0
 583 -54 587 -72 592 -86 c 0
 596 -99 599 -111 599 -116 c 0
 599 -117 599 -118 599 -118 c 0
 598 -121 597 -122 578 -122 c 0
 557 -122 516 -121 430 -117 c 0
 398 -116 382 -115 364 -115 c 0
 341 -115 294 -117 250 -119 c 24
408 762 m 0
 386 765 367 767 350 767 c 0
 302 767 269 753 229 721 c 0
 218 711 201 697 192 690 c 0
 171 673 139 628 136 611 c 0
 134 603 130 588 126 578 c 0
 122 567 121 554 121 534 c 0
 121 527 121 521 121 513 c 0
 124 451 134 430 181 393 c 0
 219 362 261 347 315 347 c 0
 336 347 359 349 384 354 c 0
 424 361 433 364 453 380 c 0
 535 441 560 487 560 576 c 0
 560 577 560 578 560 580 c 0
 560 649 531 702 475 737 c 0
 449 754 443 756 408 762 c 0
385 223 m 0
 369 252 355 275 354 275 c 0
 338 272 337 271 307 217 c 0
 295 193 271 139 265 121 c 0
 264 117 248 86 230 52 c 0
 211 18 196 -11 196 -14 c 0
 196 -17 188 -36 179 -56 c 0
 169 -77 161 -94 161 -95 c 0
 161 -95 164 -95 170 -95 c 0
 185 -95 214 -95 247 -94 c 0
 285 -93 322 -92 339 -92 c 0
 343 -92 346 -92 347 -92 c 0
 355 -92 408 -94 465 -95 c 0
 498 -96 520 -97 536 -97 c 0
 562 -97 569 -95 569 -92 c 0
 569 -84 551 -53 519 -6 c 0
 492 33 462 84 432 139 c 0
 422 157 401 195 385 223 c 0
331 582 m 0
 336 584 340 585 344 585 c 0
 356 585 363 577 363 561 c 0
 362 545 351 529 340 529 c 0
 339 529 338 530 337 530 c 0
 324 535 309 550 309 559 c 0
 309 567 320 578 331 582 c 0
EndSplineSet
Validated: 1
EndChar

StartChar: eight
Encoding: 56 56 73
Width: 640
Flags: HW
LayerCount: 2
Fore
SplineSet
64 97 m 1
 85 170 l 2
 89 182 100 197 103 204 c 0
 107 211 112 217 114 217 c 0
 116 217 126 229 135 243 c 0
 151 268 182 295 199 301 c 0
 219 307 232 315 232 317 c 0
 232 319 227 323 220 324 c 0
 193 331 164 346 143 364 c 0
 114 390 87 426 83 445 c 0
 81 454 76 465 72 470 c 0
 65 477 64 489 64 529 c 0
 64 575 65 582 77 608 c 0
 103 662 114 682 131 704 c 0
 146 724 177 752 186 753 c 0
 188 753 203 762 219 773 c 0
 236 785 260 798 275 801 c 0
 288 804 305 806 323 806 c 0
 361 806 404 799 426 788 c 0
 433 784 442 781 446 781 c 0
 467 781 555 689 555 666 c 0
 555 660 558 648 561 641 c 0
 568 628 572 599 572 575 c 0
 572 563 571 553 569 545 c 0
 567 534 562 516 559 505 c 0
 557 494 550 481 546 475 c 0
 541 470 533 456 528 444 c 0
 516 419 440 340 426 340 c 0
 421 340 402 334 385 326 c 0
 367 319 346 311 337 309 c 0
 328 307 318 305 316 303 c 0
 314 302 306 302 297 302 c 0
 293 302 288 302 284 302 c 0
 282 302 279 302 277 302 c 0
 262 302 249 299 239 295 c 0
 186 271 181 268 168 249 c 0
 161 238 148 219 138 207 c 0
 102 162 90 128 90 76 c 0
 90 48 92 33 97 28 c 0
 100 24 109 9 115 -4 c 0
 129 -30 201 -103 228 -117 c 0
 281 -145 290 -149 317 -149 c 0
 317 -149 318 -149 318 -149 c 0
 417 -149 523 -57 545 49 c 0
 553 86 558 94 570 94 c 0
 577 94 579 92 577 83 c 0
 575 77 569 56 564 35 c 0
 558 14 548 -13 540 -26 c 0
 509 -78 458 -126 410 -148 c 0
 397 -153 383 -160 379 -162 c 0
 376 -164 354 -168 331 -172 c 2
 291 -178 l 1
 245 -155 l 2
 206 -136 191 -125 150 -86 c 0
 116 -54 98 -33 90 -16 c 0
 84 -3 76 8 73 8 c 0
 66 8 62 29 62 62 c 0
 62 73 63 84 64 97 c 1
415 772 m 0
 394 782 383 783 333 783 c 0
 324 784 315 784 309 784 c 0
 277 784 271 781 255 772 c 0
 161 717 148 702 102 599 c 0
 95 585 92 561 92 536 c 0
 92 512 95 486 102 471 c 0
 123 414 171 361 212 348 c 0
 243 338 277 333 309 333 c 0
 338 333 366 337 389 345 c 0
 416 354 425 361 461 398 c 0
 494 432 507 449 523 481 c 0
 542 522 543 523 543 572 c 0
 543 615 541 626 532 644 c 0
 526 656 522 667 522 669 c 0
 522 676 487 718 463 739 c 0
 449 751 428 766 415 772 c 0
291 569 m 0
 302 578 309 579 320 574 c 0
 325 573 327 568 327 562 c 0
 327 555 324 547 318 542 c 0
 310 535 309 535 294 543 c 0
 277 553 276 559 291 569 c 0
EndSplineSet
Validated: 1
EndChar

StartChar: nine
Encoding: 57 57 74
Width: 1024
Flags: H
LayerCount: 2
Fore
SplineSet
283 100 m 0
 285 103 287 104 288 104 c 0
 300 104 312 54 312 44 c 0
 312 41 315 32 318 24 c 0
 322 16 330 -2 337 -18 c 0
 350 -50 370 -68 405 -84 c 0
 418 -90 442 -101 457 -108 c 0
 482 -121 488 -122 539 -122 c 2
 593 -123 l 1
 622 -107 l 2
 648 -92 680 -64 680 -56 c 0
 680 -55 686 -45 693 -35 c 0
 710 -12 716 12 716 60 c 0
 716 63 716 67 716 71 c 0
 716 115 715 120 702 146 c 0
 663 226 635 254 569 282 c 0
 546 292 522 300 515 300 c 0
 509 300 503 302 500 304 c 0
 498 307 486 311 474 313 c 0
 440 320 414 333 390 354 c 0
 378 365 359 378 348 385 c 0
 336 392 323 404 314 418 c 0
 306 430 295 446 289 453 c 0
 279 465 279 470 279 529 c 0
 280 584 280 594 291 621 c 0
 317 687 335 712 394 760 c 0
 420 780 429 784 464 790 c 0
 482 793 504 796 515 796 c 0
 515 796 516 796 516 796 c 0
 546 796 616 771 654 747 c 0
 683 729 715 698 715 688 c 0
 715 686 720 677 726 669 c 0
 732 660 739 639 742 622 c 0
 744 610 745 601 745 591 c 0
 745 578 743 564 740 541 c 0
 734 499 730 486 713 452 c 0
 690 408 655 370 621 354 c 0
 609 349 599 342 598 340 c 0
 596 338 585 333 571 329 c 0
 556 325 548 320 550 317 c 0
 551 315 571 304 593 294 c 0
 627 278 639 269 666 241 c 0
 683 223 698 206 698 204 c 0
 698 201 707 184 718 166 c 2
 738 132 l 1
 738 87 l 2
 738 82 738 77 738 73 c 0
 738 52 736 36 734 31 c 0
 731 26 729 17 729 10 c 0
 729 -13 704 -56 675 -85 c 0
 635 -126 620 -138 602 -141 c 0
 593 -142 585 -146 584 -148 c 0
 583 -150 568 -152 551 -152 c 0
 534 -152 519 -154 518 -157 c 0
 515 -160 513 -159 510 -154 c 0
 508 -150 501 -147 495 -147 c 0
 473 -147 437 -135 416 -121 c 0
 405 -114 387 -103 377 -98 c 0
 332 -76 316 -55 294 14 c 0
 288 34 276 54 276 75 c 0
 276 83 278 92 283 100 c 0
571 759 m 0
 546 768 523 773 502 773 c 0
 477 773 454 767 429 755 c 0
 360 719 319 658 305 569 c 0
 302 552 301 538 301 524 c 0
 301 497 307 475 319 451 c 0
 341 407 402 360 461 340 c 0
 471 337 486 335 502 335 c 0
 521 335 540 338 549 342 c 0
 554 345 566 350 580 357 c 0
 585 359 591 361 596 364 c 0
 637 383 672 416 694 456 c 0
 706 479 711 494 717 534 c 0
 720 554 722 569 722 582 c 0
 722 604 717 622 704 652 c 0
 681 706 652 729 571 759 c 0
514 581 m 0
 521 586 524 584 531 574 c 0
 537 566 537 564 530 553 c 0
 523 541 512 532 505 532 c 0
 504 532 504 533 503 533 c 0
 500 535 499 539 499 545 c 0
 499 557 505 574 514 581 c 0
EndSplineSet
Validated: 1
EndChar

StartChar: R
Encoding: 82 82 82
Width: 640
Flags: HW
LayerCount: 2
Fore
SplineSet
85 756 m 0
 91 758 97 760 99 760 c 0
 107 761 118 751 121 738 c 0
 122 732 132 714 143 698 c 0
 166 664 208 588 224 554 c 0
 232 537 233 538 235 534 c 0
 237 530 237 529 238 526 c 0
 240 521 238 524 240 520 c 0
 243 514 240 520 243 514 c 0
 250 500 262 475 275 452 c 0
 282 439 288 427 288 424 c 0
 288 419 314 362 317 362 c 0
 318 362 318 366 317 371 c 0
 314 378 317 381 326 385 c 0
 332 387 338 393 339 397 c 0
 342 405 343 407 365 448 c 0
 381 479 405 515 420 535 c 0
 425 542 439 565 450 588 c 0
 462 612 474 635 478 639 c 0
 489 651 526 725 526 733 c 0
 526 733 531 740 531 740 c 0
 532 742 533 745 539 751 c 0
 548 760 549 760 556 752 c 0
 564 744 564 743 557 730 c 0
 552 723 549 716 550 714 c 0
 552 705 549 695 544 690 c 0
 540 686 532 674 525 662 c 0
 518 649 508 631 501 622 c 0
 487 601 461 546 461 537 c 0
 461 534 455 526 449 519 c 0
 428 496 405 459 369 389 c 2
 333 320 l 1
 337 291 l 2
 346 233 347 231 347 225 c 0
 347 220 347 223 347 219 c 0
 347 217 347 215 347 211 c 0
 347 193 349 155 349 148 c 0
 348 138 346 88 344 65 c 0
 343 55 341 45 341 32 c 0
 341 27 341 20 342 13 c 0
 343 3 344 -6 344 -13 c 0
 344 -21 343 -28 341 -33 c 0
 339 -40 338 -49 340 -51 c 0
 341 -53 342 -67 345 -80 c 2
 351 -104 l 1
 368 -104 l 2
 388 -105 406 -105 421 -105 c 0
 428 -105 435 -105 441 -105 c 0
 459 -105 471 -105 476 -107 c 0
 483 -110 503 -113 521 -115 c 2
 553 -118 l 1
 552 -137 l 2
 552 -154 551 -156 541 -153 c 0
 534 -152 528 -149 527 -146 c 0
 525 -144 512 -141 498 -140 c 0
 472 -138 417 -137 375 -137 c 0
 344 -137 320 -138 318 -139 c 0
 315 -141 309 -140 305 -138 c 0
 301 -136 251 -133 194 -132 c 0
 138 -131 90 -128 88 -127 c 0
 87 -125 87 -114 89 -104 c 0
 93 -88 94 -86 99 -92 c 0
 103 -97 133 -99 175 -99 c 0
 196 -99 221 -99 247 -97 c 0
 285 -94 295 -92 304 -84 c 0
 312 -76 314 -75 314 -41 c 0
 314 -31 314 -18 314 -1 c 0
 313 52 310 73 308 81 c 0
 307 86 305 94 305 99 c 0
 305 100 305 102 305 105 c 0
 305 128 307 209 307 259 c 0
 307 284 307 302 305 303 c 0
 303 304 301 309 301 313 c 0
 301 339 214 511 205 527 c 0
 203 530 203 531 201 535 c 0
 197 541 190 575 149 647 c 0
 122 696 107 718 84 741 c 0
 75 751 75 751 85 756 c 0
EndSplineSet
Validated: 1
EndChar

StartChar: S
Encoding: 83 83 83
Width: 640
Flags: HW
LayerCount: 2
Fore
SplineSet
522 739 m 0
 529 747 543 776 553 776 c 0
 558 776 562 768 563 744 c 0
 563 738 553 731 552 724 c 0
 551 713 536 691 530 691 c 0
 530 691 529 691 529 691 c 0
 529 691 529 691 528 691 c 0
 523 691 504 649 504 637 c 0
 504 631 502 626 499 626 c 0
 497 626 487 611 477 594 c 0
 463 568 462 560 458 549 c 0
 454 538 452 538 448 532 c 0
 445 527 443 526 438 515 c 0
 432 500 410 451 366 363 c 0
 357 344 351 330 349 326 c 0
 347 321 349 321 346 316 c 0
 344 313 341 311 340 306 c 0
 340 304 339 303 339 301 c 0
 339 290 346 274 368 226 c 0
 374 215 382 195 387 182 c 0
 392 168 400 152 405 146 c 0
 414 132 441 82 441 77 c 0
 441 76 454 50 471 21 c 0
 514 -58 530 -68 540 -79 c 0
 541 -81 547 -95 551 -104 c 0
 554 -112 555 -117 555 -122 c 0
 555 -126 554 -131 552 -136 c 0
 546 -154 546 -143 536 -131 c 0
 524 -118 531 -126 524 -119 c 24
 521 -115 523 -120 515 -108 c 0
 503 -90 487 -61 481 -49 c 0
 479 -43 464 -17 449 10 c 0
 433 36 415 69 409 82 c 0
 402 96 386 131 372 160 c 0
 358 189 347 214 347 215 c 0
 347 217 343 225 338 233 c 0
 330 244 326 247 318 245 c 0
 310 244 304 236 293 211 c 0
 285 193 274 171 269 161 c 0
 249 122 233 94 229 88 c 0
 218 75 191 27 170 -14 c 0
 150 -55 131 -88 108 -121 c 0
 103 -127 100 -138 100 -144 c 0
 100 -161 89 -156 86 -138 c 0
 85 -134 85 -130 85 -126 c 0
 85 -114 89 -105 100 -94 c 0
 111 -82 153 -9 153 -2 c 0
 153 2 158 9 162 15 c 0
 167 21 171 28 171 30 c 0
 171 33 177 44 184 55 c 0
 199 78 201 89 205 96 c 0
 211 104 208 102 220 121 c 0
 236 144 251 174 285 250 c 2
 305 295 l 1
 289 331 l 2
 280 351 267 377 260 389 c 0
 253 400 242 425 234 444 c 0
 227 462 220 481 217 485 c 0
 207 503 190 544 187 554 c 0
 185 560 179 572 174 581 c 0
 168 589 162 603 159 612 c 0
 156 620 150 631 147 634 c 0
 144 638 136 654 131 669 c 0
 119 699 113 699 109 708 c 0
 106 716 106 708 99 725 c 0
 95 737 90 741 79 750 c 0
 78 751 77 752 77 754 c 0
 77 762 97 771 104 771 c 0
 106 771 107 771 107 770 c 2
 133 739 l 1
 133 733 142 716 145 716 c 0
 147 716 149 712 149 708 c 0
 149 696 181 641 184 636 c 0
 185 633 186 631 187 627 c 0
 188 624 190 615 197 600 c 0
 217 553 223 552 226 545 c 0
 228 541 226 543 228 539 c 0
 232 532 228 539 231 531 c 0
 233 526 233 526 233 524 c 0
 233 520 259 453 271 426 c 0
 283 400 297 387 311 361 c 24
 314 356 310 351 314 347 c 0
 318 342 320 342 320 347 c 0
 320 350 321 351 324 351 c 0
 324 351 324 351 324 351 c 0
 329 351 360 399 360 406 c 0
 360 409 366 422 374 435 c 0
 381 449 392 473 397 488 c 0
 405 512 418 539 428 552 c 0
 458 589 456 601 462 614 c 0
 466 623 465 637 481 666 c 0
 501 702 514 722 514 729 c 0
 522 739 l 0
EndSplineSet
Validated: 1
EndChar

StartChar: T
Encoding: 84 84 84
Width: 640
Flags: HW
LayerCount: 2
Fore
SplineSet
376 -141 m 0
 365 -140 300 -139 218 -137 c 0
 195 -136 177 -136 163 -136 c 0
 132 -136 119 -138 112 -141 c 0
 105 -144 99 -146 99 -146 c 0
 98 -145 96 -139 92 -133 c 0
 90 -130 90 -127 90 -123 c 0
 90 -113 97 -100 113 -75 c 0
 118 -68 139 -27 161 17 c 0
 183 61 208 107 217 119 c 0
 226 131 236 148 239 157 c 0
 243 167 259 203 276 238 c 0
 293 273 307 307 307 313 c 0
 307 319 294 351 277 384 c 0
 260 417 238 462 229 484 c 0
 219 507 209 528 205 532 c 0
 202 536 199 541 199 544 c 0
 199 558 134 678 120 691 c 0
 111 699 112 703 107 710 c 24
 98 724 88 740 85 745 c 0
 76 757 77 764 88 768 c 0
 95 770 100 768 108 759 c 0
 113 753 120 747 122 747 c 0
 124 747 131 736 137 724 c 0
 154 687 207 581 222 553 c 0
 229 539 235 525 235 523 c 0
 235 521 245 498 257 473 c 0
 269 447 283 415 289 401 c 0
 303 370 305 369 310 360 c 0
 314 353 316 340 321 341 c 0
 332 342 334 351 339 364 c 0
 342 371 346 380 348 383 c 0
 350 387 353 394 355 399 c 0
 356 403 363 417 369 428 c 0
 435 551 473 628 473 635 c 0
 473 639 484 662 531 760 c 0
 538 776 543 778 549 766 c 0
 550 764 551 761 551 758 c 0
 551 746 545 729 537 721 c 0
 528 711 507 667 477 597 c 0
 462 563 449 532 446 530 c 0
 444 527 442 522 442 517 c 0
 442 512 438 505 433 500 c 0
 424 490 356 365 356 358 c 0
 356 356 352 345 347 334 c 0
 343 326 341 320 341 312 c 0
 341 299 348 282 369 242 c 0
 380 220 398 183 409 161 c 0
 420 139 431 117 433 114 c 0
 435 110 453 76 473 38 c 0
 492 -1 515 -45 523 -61 c 0
 532 -77 544 -98 551 -108 c 0
 563 -122 564 -125 558 -132 c 0
 555 -136 551 -141 551 -142 c 0
 550 -143 547 -141 543 -138 c 0
 540 -135 534 -134 523 -134 c 0
 518 -134 511 -134 503 -135 c 0
 486 -137 460 -139 446 -139 c 0
 433 -139 401 -140 376 -141 c 0
355 218 m 0
 338 251 331 260 322 263 c 0
 320 264 318 264 317 264 c 0
 309 264 304 254 275 192 c 0
 263 168 254 144 253 140 c 0
 252 136 250 132 249 130 c 0
 247 125 228 99 196 38 c 0
 185 16 173 -4 170 -7 c 0
 159 -21 125 -90 125 -99 c 0
 125 -100 125 -100 125 -100 c 0
 128 -108 188 -112 341 -112 c 0
 381 -112 413 -112 437 -112 c 0
 492 -112 512 -111 515 -105 c 0
 516 -101 l 0
 516 -92 437 68 428 81 c 0
 426 84 413 106 401 130 c 0
 388 155 368 194 355 218 c 0
EndSplineSet
Validated: 1
EndChar

StartChar: U
Encoding: 85 85 85
Width: 640
Flags: HW
LayerCount: 2
Fore
SplineSet
549 99 m 17
 549 99 549 98 549 97 c 0
 549 92 550 77 550 66 c 0
 550 44 546 33 530 1 c 0
 512 -35 472 -93 464 -93 c 0
 462 -93 459 -96 458 -101 c 0
 454 -113 435 -122 392 -132 c 0
 366 -139 347 -142 329 -142 c 0
 295 -142 268 -129 217 -95 c 0
 167 -62 146 -42 127 -10 c 0
 120 3 108 16 105 22 c 0
 101 29 96 35 96 85 c 0
 96 147 109 171 111 175 c 0
 113 179 111 175 116 186 c 0
 128 212 153 242 189 269 c 0
 207 284 227 299 233 303 c 0
 238 307 256 316 273 321 c 0
 297 329 304 333 304 339 c 0
 304 340 304 340 304 341 c 0
 304 355 248 484 223 532 c 0
 190 594 154 659 148 666 c 0
 145 670 135 686 125 702 c 0
 116 718 106 732 104 733 c 0
 99 735 90 753 90 762 c 0
 90 764 91 765 91 766 c 0
 92 770 93 772 96 772 c 0
 102 772 116 755 134 724 c 0
 147 704 161 680 166 673 c 0
 171 665 181 648 188 635 c 0
 195 621 209 597 219 581 c 0
 235 554 282 456 294 424 c 0
 296 415 305 395 313 379 c 2
 326 351 l 1
 334 364 l 2
 338 371 353 396 369 419 c 0
 385 443 414 495 433 536 c 0
 454 576 474 617 480 625 c 0
 485 634 492 648 495 655 c 0
 498 663 505 683 511 700 c 0
 518 717 525 738 528 746 c 0
 534 766 548 765 547 745 c 0
 544 702 518 656 514 648 c 0
 506 630 495 608 489 601 c 0
 484 594 475 576 468 561 c 0
 463 546 444 510 428 481 c 0
 411 453 397 426 395 423 c 0
 394 420 384 405 375 390 c 0
 365 375 350 351 343 335 c 0
 332 313 327 307 319 307 c 0
 318 307 316 307 315 307 c 0
 313 307 301 302 287 296 c 0
 273 289 260 285 257 285 c 0
 247 285 197 251 173 228 c 0
 145 202 130 175 120 133 c 0
 117 119 116 104 116 89 c 0
 116 68 119 47 125 29 c 0
 139 -14 198 -67 270 -103 c 0
 287 -112 313 -116 338 -116 c 0
 359 -116 378 -113 392 -107 c 0
 404 -102 416 -97 421 -97 c 0
 425 -97 441 -86 455 -71 c 0
 503 -23 529 30 529 77 c 2
 529 100 l 1
 549 99 l 17
EndSplineSet
Validated: 1
EndChar

StartChar: V
Encoding: 86 86 86
Width: 640
Flags: HW
LayerCount: 2
Fore
SplineSet
522 211 m 8
 544 172 553 119 553 65 c 0
 553 61 553 56 553 52 c 0
 553 23 543 10 528 -12 c 24
 502 -50 471 -87 450 -101 c 0
 444 -104 439 -110 438 -114 c 0
 437 -118 428 -123 414 -126 c 0
 362 -138 340 -146 331 -146 c 0
 326 -147 324 -151 316 -150 c 0
 310 -149 304 -146 298 -146 c 0
 293 -146 269 -141 247 -136 c 0
 209 -127 203 -124 182 -104 c 0
 169 -92 147 -63 132 -41 c 0
 117 -19 107 -7 104 -2 c 0
 101 3 87 72 87 94 c 0
 87 98 87 100 88 101 c 0
 97 110 107 101 107 84 c 0
 107 47 141 -26 181 -73 c 0
 205 -103 246 -119 300 -119 c 0
 302 -119 303 -119 305 -119 c 0
 380 -119 414 -105 467 -57 c 0
 496 -29 508 -11 522 31 c 0
 527 47 530 66 530 87 c 0
 530 128 519 174 502 200 c 0
 464 253 449 268 400 298 c 0
 388 305 367 309 350 309 c 0
 337 309 326 307 324 302 c 0
 324 302 323 301 323 301 c 0
 316 301 281 372 161 616 c 0
 133 674 107 726 102 733 c 0
 98 739 94 749 92 757 c 0
 91 767 92 769 101 769 c 0
 112 769 126 747 154 682 c 0
 163 661 177 631 185 616 c 0
 202 586 244 503 282 421 c 0
 297 391 312 363 317 358 c 0
 325 351 325 351 336 365 c 0
 351 384 399 481 414 521 c 0
 421 537 428 555 432 561 c 0
 436 566 441 579 444 589 c 0
 455 624 503 773 545 773 c 0
 546 773 546 773 547 773 c 0
 550 773 551 770 551 766 c 0
 551 758 544 742 539 737 c 0
 538 736 528 721 519 703 c 0
 509 686 500 669 498 667 c 0
 495 661 462 580 462 576 c 0
 462 574 454 555 444 534 c 0
 434 513 426 493 426 490 c 0
 426 484 391 411 371 377 c 0
 361 360 353 344 353 342 c 0
 353 339 360 337 368 337 c 0
 409 337 484 279 522 211 c 8
EndSplineSet
Validated: 1
EndChar

StartChar: W
Encoding: 87 87 87
Width: 640
Flags: HW
LayerCount: 2
Fore
SplineSet
349 363 m 0
 348 362 348 361 348 360 c 0
 348 346 413 333 448 309 c 0
 460 301 541 211 549 134 c 0
 550 124 551 113 551 102 c 0
 551 67 545 31 542 27 c 0
 540 24 532 14 523 -2 c 0
 515 -18 498 -42 487 -54 c 0
 463 -80 410 -117 392 -121 c 0
 359 -128 344 -131 333 -132 c 0
 323 -133 323 -135 316 -135 c 0
 312 -135 304 -132 292 -130 c 0
 262 -126 241 -119 227 -109 c 0
 221 -104 205 -92 192 -81 c 0
 172 -67 136 -21 136 -12 c 0
 136 -11 129 5 121 23 c 0
 102 62 97 77 97 97 c 0
 97 105 98 115 99 127 c 0
 104 170 116 209 136 241 c 0
 144 252 150 263 150 266 c 0
 150 274 206 327 223 335 c 0
 232 338 243 345 250 348 c 0
 256 352 264 355 268 355 c 0
 280 355 288 367 284 378 c 0
 282 383 274 398 266 411 c 0
 258 424 244 447 236 462 c 0
 228 477 219 492 215 496 c 0
 207 505 155 623 139 647 c 0
 122 672 84 753 81 758 c 0
 78 764 96 776 105 763 c 0
 166 670 212 555 243 496 c 0
 253 477 266 454 271 446 c 0
 304 387 310 377 315 374 c 0
 315 374 316 374 317 374 c 0
 326 374 351 408 373 453 c 0
 399 508 414 540 414 543 c 0
 414 546 448 621 462 648 c 0
 469 661 485 692 498 719 c 0
 512 745 527 770 532 774 c 0
 547 786 555 781 544 758 c 0
 533 734 541 748 533 734 c 0
 529 727 532 736 523 719 c 0
 518 707 510 692 505 685 c 0
 486 653 464 610 452 582 c 0
 413 490 405 439 349 363 c 0
373 324 m 0
 358 328 336 331 314 331 c 0
 296 331 279 329 267 326 c 0
 186 302 122 210 122 112 c 0
 122 80 125 69 136 40 c 0
 161 -19 194 -56 247 -84 c 0
 267 -94 299 -100 329 -100 c 0
 342 -100 355 -99 366 -96 c 0
 428 -81 480 -39 505 15 c 0
 518 43 521 53 522 94 c 0
 522 99 522 105 522 110 c 0
 522 157 513 185 488 225 c 0
 450 283 419 310 373 324 c 0
EndSplineSet
Validated: 1
EndChar

StartChar: X
Encoding: 88 88 88
Width: 640
Flags: HW
HStem: 73 45.584<293.916 331.663>
VStem: 495.183 39.1387<707.546 749.653>
LayerCount: 2
Fore
SplineSet
556 20 m 8
 549 -14 522 -43 512 -57 c 0
 489 -87 452 -109 401 -124 c 0
 379 -130 363 -133 344 -133 c 0
 330 -133 315 -131 296 -129 c 0
 281 -127 264 -125 254 -122 c 0
 244 -119 243 -121 237 -118 c 0
 234 -116 231 -113 223 -110 c 0
 190 -97 139 -64 124 -46 c 0
 115 -36 108 -25 107 -23 c 0
 107 -22 103 -15 99 -10 c 0
 90 0 85 41 85 80 c 0
 85 112 88 141 95 153 c 0
 98 158 111 180 122 202 c 0
 135 223 152 247 162 256 c 0
 187 277 266 319 286 322 c 0
 295 323 303 327 303 329 c 0
 303 332 292 353 278 375 c 0
 264 397 253 415 253 417 c 0
 253 418 244 434 233 452 c 0
 222 469 208 495 202 508 c 0
 195 520 187 533 183 536 c 0
 179 540 176 545 176 547 c 0
 176 556 107 691 95 705 c 0
 88 714 83 727 81 739 c 0
 81 743 80 747 80 750 c 0
 80 756 81 760 84 760 c 0
 89 760 102 740 122 700 c 0
 139 667 164 619 178 594 c 0
 192 569 206 542 210 535 c 0
 214 527 218 518 221 514 c 0
 223 510 241 479 260 444 c 0
 280 408 300 374 306 367 c 0
 312 360 317 351 317 348 c 0
 317 343 318 341 320 341 c 0
 326 341 339 364 349 393 c 0
 352 403 364 429 374 449 c 0
 385 470 399 501 405 518 c 0
 415 546 434 587 495 713 c 0
 511 747 519 759 524 759 c 0
 525 759 525 759 525 759 c 0
 531 758 533 752 534 738 c 0
 536 720 529 727 524 718 c 0
 519 710 521 710 514 704 c 0
 504 695 494 665 459 591 c 0
 448 568 436 542 432 535 c 0
 429 527 413 492 397 457 c 0
 381 422 365 386 362 378 c 0
 359 369 352 356 348 348 c 0
 336 328 337 324 357 320 c 0
 382 316 439 290 462 274 c 0
 484 258 499 240 513 211 c 0
 523 192 529 194 532 188 c 0
 534 184 535 182 536 176 c 0
 537 170 544 157 549 141 c 0
 555 122 560 95 560 65 c 0
 560 51 559 35 556 20 c 8
139 172 m 0
 138 169 135 161 130 154 c 0
 120 141 115 114 115 84 c 0
 115 69 116 52 119 36 c 0
 123 15 129 -7 133 -14 c 0
 146 -34 180 -63 198 -69 c 0
 207 -72 223 -79 234 -85 c 0
 261 -100 299 -109 330 -109 c 0
 356 -109 404 -99 414 -93 c 0
 417 -90 427 -86 437 -83 c 0
 450 -78 466 -66 487 -44 c 0
 526 -3 533 8 533 49 c 0
 533 55 533 62 533 70 c 0
 530 125 521 157 492 209 c 0
 465 259 397 295 328 295 c 0
 300 295 273 289 248 276 c 0
 204 254 145 183 139 172 c 0
299 119 m 0
 306 121 311 122 314 122 c 0
 321 122 325 119 332 113 c 0
 347 101 340 95 335 83 c 0
 332 76 326 73 318 73 c 0
 309 73 301 77 298 85 c 0
 295 93 289 102 289 109 c 0
 289 113 292 117 299 119 c 0
EndSplineSet
Validated: 1
EndChar

StartChar: Y
Encoding: 89 89 89
Width: 640
Flags: HW
LayerCount: 2
Fore
SplineSet
552 722 m 24
 542 701 525 680 523 670 c 0
 522 661 516 648 511 642 c 0
 503 631 492 612 451 533 c 0
 440 513 420 477 406 454 c 0
 393 432 375 401 368 386 c 0
 360 371 349 352 344 343 c 0
 334 329 333 322 333 269 c 0
 333 211 330 149 325 62 c 0
 324 38 322 -20 321 -66 c 0
 320 -137 319 -149 312 -150 c 0
 301 -153 298 -144 297 -133 c 0
 296 -127 297 -121 296 -109 c 0
 295 -101 294 -92 294 -75 c 0
 294 -63 294 -47 296 -26 c 0
 299 5 301 41 301 60 c 0
 301 62 301 65 301 67 c 0
 301 82 303 112 305 134 c 0
 308 159 309 197 309 230 c 0
 309 268 308 301 307 305 c 0
 307 308 308 312 305 316 c 0
 303 319 294 332 285 344 c 0
 275 357 261 378 252 392 c 0
 238 415 196 486 179 513 c 0
 164 539 145 575 139 590 c 0
 136 598 129 613 124 621 c 0
 118 630 113 643 111 650 c 0
 109 657 102 669 94 676 c 0
 87 682 81 691 81 696 c 0
 81 700 79 716 76 730 c 0
 72 750 72 757 76 762 c 0
 81 768 84 768 91 765 c 0
 96 762 160 760 227 760 c 0
 267 760 308 761 339 762 c 0
 442 766 494 769 522 769 c 0
 549 769 552 766 558 762 c 0
 570 753 570 753 561 746 c 0
 556 741 557 731 552 722 c 24
535 745 m 0
 535 746 517 747 494 747 c 0
 458 747 409 745 389 743 c 0
 374 741 302 740 228 740 c 2
 95 740 l 1
 97 727 l 2
 99 720 105 704 110 693 c 0
 126 664 166 576 166 574 c 0
 166 567 242 435 272 390 c 0
 298 349 308 335 316 335 c 0
 319 335 321 337 324 340 c 0
 329 345 333 352 335 357 c 0
 337 363 343 379 353 400 c 0
 363 420 376 442 381 449 c 0
 386 456 394 470 400 480 c 0
 405 490 411 501 413 505 c 0
 416 508 425 526 433 543 c 0
 441 560 461 598 478 627 c 0
 494 656 508 682 508 685 c 0
 508 687 514 701 521 716 c 0
 529 731 535 744 535 745 c 0
EndSplineSet
Validated: 1
EndChar

StartChar: Z
Encoding: 90 90 90
Width: 640
Flags: HW
LayerCount: 2
Fore
SplineSet
317 212 m 8
 314 268 316 324 292 353 c 0
 284 363 268 390 255 414 c 0
 226 472 196 531 191 539 c 0
 185 550 165 597 162 609 c 0
 158 625 121 697 112 707 c 0
 106 714 94 749 94 759 c 0
 94 761 120 763 152 763 c 0
 163 763 176 763 190 763 c 0
 218 763 251 763 274 763 c 0
 309 761 387 760 447 760 c 0
 508 760 559 759 560 757 c 0
 562 755 557 749 552 738 c 0
 546 722 547 728 543 722 c 0
 540 717 533 712 510 665 c 0
 492 631 471 591 461 577 c 0
 452 563 445 548 442 544 c 0
 441 541 436 536 434 530 c 0
 430 521 414 491 368 390 c 2
 340 327 l 1
 340 108 l 1
 341 -110 l 1
 442 -107 l 2
 467 -107 487 -106 502 -106 c 0
 536 -106 548 -108 554 -111 c 0
 560 -114 562 -117 559 -117 c 0
 556 -117 554 -122 554 -128 c 0
 554 -141 550 -145 543 -138 c 0
 541 -136 532 -135 514 -135 c 0
 501 -135 482 -135 457 -136 c 0
 439 -137 413 -137 384 -137 c 0
 295 -137 173 -133 133 -128 c 0
 119 -126 111 -127 107 -131 c 0
 102 -137 99 -136 90 -125 c 2
 79 -112 l 1
 89 -104 l 2
 96 -98 102 -97 109 -100 c 0
 114 -102 162 -105 214 -107 c 0
 245 -108 266 -108 281 -108 c 0
 305 -108 312 -107 313 -104 c 0
 316 -99 319 -12 319 81 c 0
 319 126 319 172 317 212 c 8
299 736 m 0
 280 738 270 739 254 739 c 0
 238 739 217 738 177 736 c 0
 146 734 133 734 133 725 c 0
 133 718 140 707 152 687 c 0
 161 672 175 642 184 622 c 0
 200 584 202 579 261 459 c 0
 295 389 313 360 322 360 c 0
 324 360 328 364 330 368 c 0
 333 372 337 376 340 382 c 0
 344 390 353 414 373 465 c 0
 379 480 389 501 395 512 c 0
 401 522 402 529 404 533 c 0
 404 535 405 542 412 550 c 0
 418 557 421 562 424 567 c 0
 426 570 428 579 435 587 c 0
 445 599 514 732 514 738 c 0
 514 739 499 740 477 740 c 0
 428 740 344 737 341 735 c 0
 340 734 337 734 332 734 c 0
 324 734 312 735 299 736 c 0
EndSplineSet
Validated: 1
EndChar

StartChar: a
Encoding: 97 97 97
Width: 640
Flags: HW
LayerCount: 2
Fore
SplineSet
89 763 m 0
 95 766 101 766 104 764 c 0
 105.797958971 763.101020514 109.414287202 762.606123087 114.213277102 762.606123087 c 0
 120.09081537 762.606123087 127.742346142 763.348469228 136 765 c 0
 147.231056256 767.246211251 162.561552813 768.546397818 186.241432251 768.546397818 c 0
 204.730123424 768.546397818 228.308696897 767.753788749 259 766 c 0
 305 764 335.75 763 370.25 763 c 0
 404.75 763 443 764 504 766 c 0
 516.973665961 766.240253073 526.888090342 766.422784607 534.506000888 766.422784607 c 0
 558.595949225 766.422784607 559.72075922 764.597469266 562 757 c 0
 563 752 562 743 559 738 c 0
 557 733 556 727 557 725 c 0
 559 722 557 715 553 708 c 2
 546 695 l 1
 546 708 l 2
 546 724 541 722 528 697 c 0
 523 686 514 670 509 661 c 0
 503 652 493 635 486 623 c 0
 479 611 466 590 458 576 c 0
 449 562 443 548 443 545 c 0
 443 542 438 534 432 527 c 0
 426 520 417 503 413 490 c 0
 406 468 398 452 350 361 c 0
 336.336389027 335.249348551 329.577151753 316.955420697 329.577151753 300.022486589 c 0
 329.577151753 284.734341826 335.087040476 270.555630539 346 253 c 0
 355 239 365 220 369 211 c 0
 372 202 381 185 388 173 c 0
 421 117 457 51 474 17 c 0
 479 7 496 -23 513 -48 c 0
 552.032047957 -105.302368278 562.097580638 -121.224000447 562.097580638 -132.4213476 c 0
 562.097580638 -134.707159639 561.678123578 -136.796098371 561 -139 c 0
 560 -146 557 -151 554 -151 c 0
 548.283702812 -151 529.860051467 -133.754305073 529.860051467 -129.529170568 c 0
 529.860051467 -129.319474938 529.905432396 -129.141851406 530 -129 c 0
 530.172894255 -128.827105745 530.25611124 -128.534641797 530.25611124 -128.132298583 c 0
 530.25611124 -123.880430307 520.962634471 -107.357504579 510 -90 c 0
 488 -54 449 12 421 64 c 0
 413 81 393 116 377 143 c 0
 362 170 347 198 343 205 c 0
 341 211 337 216 335 215 c 0
 334.752551286 214.835034191 334.484692283 214.751709536 334.196422992 214.751709536 c 0
 330.989794856 214.751709536 325.257653858 225.062072616 317 248 c 0
 311 262 311 262 303 255 c 0
 298 251 288 233 279 215 c 0
 245 144 232 116 229 103 c 0
 227 95 214 66 200 37 c 0
 185 8 167 -29 159 -46 c 0
 152 -63 139 -89 132 -103 c 0
 125 -118 120 -131 122 -133 c 0
 124 -138 109 -147 99 -147 c 0
 93 -147 92 -143 94 -121 c 0
 97 -94 105 -61 109 -61 c 0
 110 -61 110 -65 109 -70 c 0
 108.120226592 -73.695048315 107.704853933 -76.30649488 107.704853933 -77.9106056154 c 0
 107.704853933 -79.2288299875 107.985363637 -79.8667797455 108.519174208 -79.8667797455 c 0
 111.027526411 -79.8667797455 119.128808452 -65.780731512 130 -42 c 0
 140 -22 157 14 168 37 c 0
 178.954559894 60.3697277733 184.042336645 72.5392331831 184.042336645 78.1825545802 c 0
 184.042336645 80.2665925455 183.348480035 81.4606079858 182 82 c 0
 178 85 178 87 183 90 c 0
 191 94 205 119 205 128 c 0
 205 131 210 140 216 148 c 0
 222 156 227 164 227 165 c 0
 227 166 241 197 258 233 c 2
 290 298 l 1
 279 322 l 2
 254 378 182 523 178 525 c 0
 175 526 173 531 173 535 c 0
 173 538 170 548 167 555 c 0
 143 611 130 634 117 653 c 0
 108 665 101 678 101 682 c 0
 101 686 96 695 89 703 c 0
 80.4833147735 713.220022272 77.7693437268 719.813348181 77.7693437268 731.428458501 c 0
 77.7693437268 733.451412769 77.8516685226 735.626696362 78 738 c 0
 79 754 82 760 89 763 c 0
238 740 m 0
 204 741 167 743 157 744 c 0
 154.173557826 744.565288435 151.307171775 744.830997793 148.468581283 744.830997793 c 0
 131.221209862 744.830997793 115 735.021490478 115 723 c 0
 115 713 141 660 158 634 c 0
 166 623 174 607 178 599 c 0
 198 544 298 338 304 338 c 0
 311 338 321 368 321 385 c 0
 321 394 323 402 326 404 c 0
 329 405 330 404 330 402 c 0
 330 389 340 399 351 422 c 0
 356 435 366 454 372 463 c 0
 378 472 386 492 391 507 c 0
 395 522 403 538 407 543 c 0
 417 555 449 608 453 619 c 0
 455 624 470 651 486 678 c 0
 501 705 514 729 514 731 c 0
 514 733 497 734 475 734 c 0
 453 734 429 734 420 734 c 0
 412 734 386 733 364 733 c 0
 358.105117767 732.732050808 352.138438763 732.607695155 346.42700706 732.607695155 c 0
 330.823085464 732.607695155 317.124355653 733.535898385 312 735 c 0
 306 737 273 740 238 740 c 0
EndSplineSet
Validated: 1
EndChar

StartChar: b
Encoding: 98 98 98
Width: 640
Flags: HW
LayerCount: 2
Fore
SplineSet
526 692 m 0
 524 685 512 667 502 651 c 0
 491 634 480 614 478 605 c 0
 474 596 469 584 464 578 c 0
 454 561 416 486 405 459 c 0
 400 445 388 424 379 409 c 0
 350 364 332 331 332 323 c 0
 332 319 330 313 327 310 c 0
 323 306 325 299 334 280 c 0
 341 266 346 254 346 252 c 0
 346 251 356 232 368 212 c 0
 380 192 394 167 399 157 c 0
 418 121 429 102 435 95 c 0
 438 92 447 75 455 59 c 0
 464 43 473 26 476 23 c 0
 481 17 501 -20 523 -61 c 0
 526 -68 532 -75 535 -76 c 0
 539 -78 542 -82 542 -85 c 0
 542 -94 555 -120 564 -126 c 0
 573 -133 567 -139 548 -144 c 0
 538 -145 533 -145 533 -141 c 0
 533 -139.062746067 527.16207342 -137.959481645 513.062746067 -137.959481645 c 0
 505.328083908 -137.959481645 495.107201491 -138.291502622 482 -139 c 0
 431 -142 208 -146 133 -146 c 0
 103 -146 94 -147 89 -153 c 0
 85 -159 83 -158 77 -144 c 0
 70 -131 70 -127 74 -122 c 0
 79 -117 126 -24 181 89 c 0
 186 99 205 136 224 173 c 0
 242 209 264 254 272 272 c 2
 287 304 l 1
 269 347 l 2
 258 370 248 392 246 396 c 0
 229 429 216 450 207 459 c 0
 201 466 194 478 190 487 c 0
 185 495 159 549 130 605 c 0
 101 662 78 712 78 716 c 0
 78 721 73 733 66 744 c 0
 58 758 56 765 60 767 c 0
 62.3205080757 768.392304845 74.118189755 769.138438763 109.48782668 769.138438763 c 0
 150.329165481 769.138438763 222.599777942 768.143593539 348 766 c 0
 414.464281995 764.860612309 455.10872269 764.153959388 480.561346326 764.153959388 c 0
 522.125306675 764.153959388 523.177754868 766.038367177 530 771 c 0
 539 777 540 777 547 768 c 0
 555 760 555 758 549 746 c 0
 545 739 541 725 541 716 c 0
 541 706 529 697 526 692 c 0
307 347 m 0
 353 426 343 405 419 554 c 0
 454 622 484 682 488 686 c 0
 494 693 510 724 510 729 c 0
 510 732 391 738 294 739 c 0
 249 740 187 743 156 744 c 2
 100 747 l 1
 103 730 l 2
 107 707 121 674 139 642 c 0
 147 628 170 586 189 548 c 0
 208 511 229 475 235 469 c 0
 240 462 250 447 256 434 c 0
 290.469259905 365.061480189 295.740621097 338.796812345 300.845717021 338.796812345 c 0
 302.553486042 338.796812345 304.242649108 341.735966479 307 347 c 0
318 255 m 24
 312 261 302 276 289 247 c 0
 264 193 213 93 207 86 c 0
 204 83 197 70 192 59 c 0
 187 47 175 22 164 4 c 0
 143.201030962 -31.9254919746 111.676513667 -105.390402849 111.676513667 -116.684577921 c 0
 111.676513667 -117.336757071 111.781630734 -117.781630734 112 -118 c 0
 113.527864045 -119.527864045 153.281012933 -120.180339887 205.680253352 -120.180339887 c 0
 290.464005336 -120.180339887 408.355654776 -118.472135955 451 -116 c 0
 483 -114 511 -112 514 -109 c 0
 515.083045974 -108.566781611 515.649976972 -107.570528702 515.649976972 -105.858793208 c 0
 515.649976972 -99.6681148805 508.234597716 -84.1190230165 491 -52 c 0
 447 28 421 74 411 86 c 0
 406 93 391 120 377 147 c 0
 354 190 349 218 318 255 c 24
EndSplineSet
Validated: 1
EndChar

StartChar: c
Encoding: 99 99 99
Width: 640
Flags: HW
LayerCount: 2
Fore
SplineSet
85 26 m 16
 81.8979157617 40.1809565181 80.9560803568 52.3980504604 80.9560803568 64.2178133778 c 0
 80.9560803568 79.0699052731 82.4431548912 93.2946467358 83 110 c 0
 84 129 86 138 93 144 c 0
 98 149 106 159 109 167 c 0
 135 217 242 305 277 305 c 0
 288 305 296 312 289 316 c 0
 284 319 252 373 231 412 c 0
 224 426 214 442 209 447 c 0
 205 452 195 467 188 480 c 0
 181 493 168 514 160 527 c 0
 146 549 125 597 125 606 c 0
 125 608 119 621 112 635 c 0
 100 659 92 667 92 654 c 0
 92 651 89 653 86 660 c 0
 82 665 80 675 82 681 c 0
 83 687 80 699 76 707 c 0
 68.8703258852 721.25934823 65.3715269835 732.665865934 65.3715269835 742.540316228 c 0
 65.3715269835 752.055574621 68.620411678 760.148198988 75 768 c 0
 81 775 88 780 89 778 c 0
 90.4641016151 776.535898385 126.225699861 775.607695155 176.277247623 775.607695155 c 0
 194.597385602 775.607695155 214.832013798 775.732050808 236 776 c 0
 315 777 417 777 463 777 c 0
 482.25 776.75 497.0625 776.5625 508.453125 776.5625 c 0
 542.625 776.5625 546 778.25 546 785 c 0
 547 792 547 792 549 784 c 0
 550 779 553 773 555 770 c 0
 557.043623052 767.615773106 557.927136332 760.359085169 557.927136332 751.193470032 c 0
 557.927136332 733.44918573 554.615773106 708.550338528 550 698 c 0
 547 690 542 685 539 686 c 0
 538.383422394 686.308288803 537.777405009 686.500415178 537.143965871 686.500415178 c 0
 531.613323155 686.500415178 523.992245564 671.85409885 489 592 c 0
 475 564 458 529 450 515 c 0
 441 501 413 448 388 397 c 0
 340.406779661 305.338983051 326.215455329 279.704969836 317.356321727 279.704969836 c 0
 316.16374605 279.704969836 315.06779661 280.169491525 314 281 c 0
 312.567481368 282.146014906 310.067865727 282.676396922 306.748086642 282.676396922 c 0
 286.893444043 282.676396922 237.702444103 263.705207146 212 244 c 0
 151 200 120 154 110 95 c 0
 107.928932188 82.1593795664 106.715728753 73.6080810142 106.715728753 65.3663068789 c 0
 106.715728753 53.7106781187 109.142135624 42.6740981922 115 21 c 0
 123 -11 129 -25 143 -41 c 0
 165 -67 217 -108 238 -116 c 0
 247 -119 260 -125 269 -128 c 0
 278.897019835 -132.398675482 291.817218732 -134.681125621 302.108953653 -134.681125621 c 0
 310.535098626 -134.681125621 317.199337741 -133.151158953 319 -130 c 0
 321 -127 324 -126 326 -128 c 0
 327.127965496 -128.704978435 329.090881911 -129.032240979 331.706556599 -129.032240979 c 0
 347.642333678 -129.032240979 387.80688355 -116.885064694 411 -104 c 0
 439 -88 471 -58 496 -25 c 0
 511.076567769 -5.21200480384 533.256351027 50.9799697783 533.256351027 67.4401270005 c 0
 533.256351027 68.4483033937 533.173143543 69.3074258264 533 70 c 0
 532.777883194 70.9625061576 532.670883431 71.8811582039 532.670883431 72.7531150909 c 0
 532.670883431 79.3677994085 538.828477241 83.2952831709 547.599998553 83.2952831709 c 0
 553.289312349 83.2952831709 560.078298909 81.6430005743 567 78 c 0
 575 74 577 71 573 71 c 0
 565 71 560 46 560 10 c 0
 560 -8 552 -19 546 -9 c 0
 544 -6 539 -10 533 -21 c 0
 529 -31 520 -44 514 -51 c 0
 468 -103 463 -106 415 -129 c 0
 389 -142 359 -155 349 -156 c 0
 339 -158 330 -161 328 -163 c 0
 327 -165 320 -165 314 -163 c 0
 307 -160 294 -158 285 -158 c 0
 275 -158 260 -155 251 -149 c 0
 242 -145 230 -139 223 -137 c 0
 216 -135 203 -127 194 -119 c 0
 185 -111 168 -98 158 -90 c 0
 147 -82 128 -63 114 -46 c 0
 90 -17 90 -4 85 26 c 16
468 749 m 1
 437 749 408 750 403 751 c 0
 400.606627862 751.448757276 397.318219758 751.651379661 393.432668997 751.651379661 c 0
 371.342814096 751.651379661 329.95289969 745.102485448 324 740 c 0
 319 736 315 735 311 739 c 0
 305.675306306 742.549795796 232.794982413 745.049504076 173.744879775 745.049504076 c 0
 132.986250813 745.049504076 98.8167347347 743.858571571 98 741 c 0
 97.9489578808 740.897915762 97.923968741 740.743725565 97.923968741 740.539956028 c 0
 97.923968741 736.751541459 106.561463311 715.826031259 117 694 c 0
 129 670 147 630 158 603 c 0
 168 577 180 550 185 544 c 0
 190 537 200 520 207 506 c 0
 214 492 223 476 228 471 c 0
 233 465 245 445 254 426 c 0
 263 407 281 378 292 361 c 2
 314 331 l 1
 330 350 l 2
 338 359 364 406 387 452 c 0
 410 498 431 539 434 543 c 0
 436 547 448 571 460 597 c 0
 471 623 490 663 502 687 c 0
 514.663273312 713.143532 522.153692077 728.273889801 522.153692077 737.026201836 c 0
 522.153692077 748.43941639 509.416418524 749.006920415 478.802768166 749.006920415 c 0
 475.422145329 749.006920415 471.823529412 749 468 749 c 1
EndSplineSet
Validated: 1
EndChar

StartChar: d
Encoding: 100 100 100
Width: 640
Flags: HW
LayerCount: 2
Fore
SplineSet
579 25 m 8
 535 -54 457 -117 410 -132 c 0
 396 -136 377 -141 367 -144 c 0
 357 -148 348 -158 342 -159 c 0
 335 -160 334 -162 320 -158 c 0
 309 -155 300 -149 296 -150 c 0
 292 -152 287 -151 285 -149 c 0
 284 -146 278 -143 274 -143 c 0
 269 -143 250 -136 231 -126 c 0
 205 -114 187 -100 160 -72 c 0
 123 -34 105 -4 91 42 c 0
 86.3675323681 58.4709960244 84.1194821096 69.1134162472 84.1194821096 75.5636660467 c 0
 84.1194821096 81.6450198782 86.1177490061 84 90 84 c 0
 99 84 112 71 112 63 c 0
 112 51 142 -13 156 -31 c 0
 205 -94 255 -123 314 -125 c 0
 318.180290331 -125.119436867 322.282914763 -125.180228054 326.311596386 -125.180228054 c 0
 423.474826537 -125.180228054 477.627611065 -89.8197096688 541 11 c 0
 553.87754373 32.0107292432 560.783329225 64.5056089372 560.783329225 99.1443664739 c 0
 560.783329225 115.612901369 559.222345405 132.566038432 556 149 c 0
 548 187 522 238 499 259 c 0
 486 271 392 302 367 302 c 0
 353 302 340 292 332 286 c 2
 325 280 l 1
 319 289 l 0
 302 328 253 439 218 495 c 0
 207 513 175 577 152 626 c 0
 125 682 88 765 86 772 c 0
 83 780 84 782 90 780 c 0
 94 778 104 779 113 782 c 0
 122 784 180 788 223 788 c 16
 234.428571429 788.142857143 245.183673469 788.204081633 255.448979592 788.204081633 c 0
 317.040816327 788.204081633 361 786 427 786 c 0
 436.358674373 786.183503419 445.481634212 786.265986324 454.152607403 786.265986324 c 0
 492.734013676 786.265986324 522.367006838 784.632993162 524 783 c 0
 527 782 536 782 545 785 c 0
 559 789 563 788 570 781 c 0
 578 773 578 770 570 751 c 0
 566 740 566 731 560 719 c 24
 552 702 546 698 536 676 c 0
 511 620 473 542 463 525 c 0
 458 516 436 473 415 430 c 0
 395 387 373 345 368 337 c 2
 358 321 l 1
 381 321 l 2
 393 321 411 318 420 315 c 0
 429 311 451 303 469 296 c 0
 509 281 517 271 540 246 c 24
 561 223 572 197 579 176 c 0
 590.238858928 139.072320664 597.467814682 113.028664232 597.467814682 88.9783140575 c 0
 597.467814682 68.0901738668 592.014854762 48.7056283171 579 25 c 8
429 757 m 24
 348 760 301 759 222 761 c 0
 206.476659403 761.585786438 192.24011537 761.828427125 179.843145751 761.828427125 c 0
 149.914213562 761.828427125 130.707106781 760.414213562 130 759 c 0
 129.770459909 758.655689864 129.659469288 758.100625115 129.659469288 757.357482299 c 0
 129.659469288 751.625566113 136.262470499 734.704599093 146 717 c 0
 157 696 174 660 184 636 c 0
 202 591 214 569 252 508 c 0
 277 470 291 444 307 412 c 0
 314.922455369 395.16478234 338.536235509 344.985499543 340.935675053 344.985499543 c 0
 340.959160658 344.985499543 340.980613842 344.990306921 341 345 c 0
 342 345 350 359 359 377 c 0
 427 519 446 557 451 563 c 0
 455 567 466 590 477 614 c 0
 488 639 501 667 506 678 c 0
 520.438055216 708.680867333 532.433249825 740.176021535 532.433249825 750.441614907 c 0
 532.433249825 751.552172373 532.292864647 752.414270706 532 753 c 0
 530 756 469 756 429 757 c 24
EndSplineSet
Validated: 1
EndChar

StartChar: e
Encoding: 101 101 101
Width: 640
Flags: HW
LayerCount: 2
Fore
SplineSet
206 757 m 0
 214.201010127 758.171572875 225.147186258 758.656854249 235.421356237 758.656854249 c 0
 242.686291501 758.656854249 249.615223689 758.414213562 255 758 c 0
 268 757 337 755 408 753 c 0
 517 749 537 747 544 741 c 0
 551 734 551 733 545 721 c 0
 542 714 539 702 539 695 c 0
 539 687 537 682 533 682 c 0
 526 682 502 645 497 627 c 0
 495 622 486 602 477 584 c 0
 468 566 458 542 455 531 c 0
 452 520 446 508 444 504 c 0
 441 501 423 466 404 427 c 0
 360.476555368 336.471235165 352.565767109 321.714079636 352.565767109 316.771704567 c 0
 352.565767109 316.036248859 352.740937785 315.518124429 353 315 c 0
 354 313 371 306 392 299 c 0
 442 282 477 256 512 209 c 0
 537 176 539 170 546 122 c 0
 548.514360705 103.645166856 549.890759654 87.6926974174 549.890759654 73.2365303503 c 0
 549.890759654 30.1982932138 537.691121111 0.422452194522 507 -40 c 0
 485 -70 463 -88 417 -117 c 0
 380.633311447 -140.311979842 358.17890204 -147.103128198 317.204494678 -147.103128198 c 0
 314.237538372 -147.103128198 311.173477897 -147.067520806 308 -147 c 0
 262 -147 239 -141 206 -120 c 0
 171 -97 154 -78 133 -41 c 0
 106 9 99 33 99 83 c 0
 100 138 104 154 131 194 c 0
 167 251 217 288 267 299 c 0
 284 302 298 306 299 307 c 0
 299 307 289 326 276 348 c 0
 238 409 189 501 158 568 c 0
 143 601 128 630 126 631 c 0
 124 632 122 636 122 640 c 0
 122 644 116 655 109 665 c 0
 100.384586553 679.359022412 89.9364484426 712.961653788 89.9364484426 728.088101325 c 0
 89.9364484426 728.76333628 89.9572681608 729.401754251 90 730 c 0
 91 736 150 750 206 757 c 0
270 735 m 0
 260.473088065 735.414213562 249.916738879 735.656854249 239.894444303 735.656854249 c 0
 225.720779386 735.656854249 212.615223689 735.171572875 205 734 c 0
 162.527387759 728.07358899 122.981637807 720.195936453 122.981637807 717.112626961 c 0
 122.981637807 717.07434112 122.987735168 717.036794495 123 717 c 0
 126 712 139 685 174 606 c 0
 213 522 260 428 270 416 c 0
 273 412 284 397 291 384 c 0
 300.229509831 366.250942632 309.459019662 324.811701649 321.551361344 324.811701649 c 0
 326.491391342 324.811701649 331.909208189 331.727624566 338 350 c 0
 342 361 364 406 387 451 c 0
 409 496 428 535 428 538 c 0
 428 544 477 646 499 686 c 0
 507.533333333 702 511.8 712.311111111 511.8 718.45037037 c 0
 511.8 723.822222222 508.533333333 726 502 726 c 0
 497 726 315 733 270 735 c 0
373 276 m 0
 359 282 345 287 340 287 c 0
 303 284 264 278 249 274 c 0
 224 267 193 244 166 210 c 0
 135.551128154 173.841964683 125.92655057 148.548778546 125.92655057 102.244324894 c 0
 125.92655057 99.8854807932 125.951527245 97.4721104961 126 95 c 0
 127 2 170 -72 244 -107 c 0
 264.954537785 -117.177918353 294.511707156 -122.696077931 322.585298677 -122.696077931 c 0
 341.402538789 -122.696077931 359.553238865 -120.216885965 374 -115 c 0
 436 -95 484 -52 510 7 c 0
 517.364044395 22.8326954499 520.796475426 45.3084617572 520.796475426 69.4354755836 c 0
 520.796475426 110.83499183 510.690337847 157.09629101 493 183 c 0
 471 215 416 265 403 265 c 0
 400 265 387 270 373 276 c 0
EndSplineSet
Validated: 1
EndChar

StartChar: f
Encoding: 102 102 102
Width: 640
Flags: HW
LayerCount: 2
Fore
SplineSet
306 746 m 0
 307 747 312 748 318 746 c 0
 333.424208679 742.14394783 437.468481842 737.693130127 486.563041935 737.693130127 c 0
 501.127579193 737.693130127 510.85605217 738.084841736 512 739 c 0
 514 742 522 744 529 744 c 0
 540 744 541 742 541 729 c 0
 541 720 538 713 535 711 c 0
 522 706 461 590 426 506 c 0
 391 422 378 391 363 359 c 0
 353 339 346 321 346 319 c 0
 346 312 358 309 385 309 c 0
 418 309 437 302 468 277 c 0
 503 250 506 247 530 201 c 0
 546 169 551 156 552 130 c 0
 552.71453118 122.318789817 553.046146254 113.96747645 553.046146254 105.367868372 c 0
 553.046146254 65.8262150438 546.035039256 21.0350392555 537 12 c 0
 532 8 525 -2 521 -10 c 0
 502 -47 467 -87 437 -107 c 0
 408 -127 361 -147 345 -147 c 0
 341 -147 336 -150 333 -154 c 0
 329 -159 326 -160 322 -156 c 0
 320 -154 313 -152 306 -152 c 0
 283 -151 222 -131 205 -117 c 0
 151 -74 128 -30 115 54 c 0
 114.164960277 60.1584179602 113.754832463 66.4911587554 113.754832463 72.9618307625 c 0
 113.754832463 128.482671979 143.949658029 194.15841796 195 247 c 0
 214 267 233 283 237 283 c 0
 243 283 288 308 288 311 c 0
 288 317 252 383 235 409 c 0
 224 426 206 456 196 475 c 0
 185 495 174 514 171 518 c 0
 168 521 159 539 151 557 c 0
 121.002506144 626.369204543 110.337719346 648.28540085 104.177813327 648.28540085 c 0
 103.766603987 648.28540085 103.375469902 648.187734951 103 648 c 0
 100 647 98 650 98 657 c 0
 98 663 95 676 91 686 c 0
 86 700 85 709 88 715 c 0
 91 720 93 727 95 731 c 0
 97 739 147 743 246 743 c 0
 277 743 304 745 306 746 c 0
465 710 m 0
 433.075400876 713.192459912 304.124862972 715.569575801 213.241652664 715.569575801 c 0
 161.784453378 715.569575801 122.530556123 714.807540088 120 713 c 0
 118.626225608 712.175735365 117.856373162 710.89852927 117.856373162 708.608366277 c 0
 117.856373162 702.563234163 123.22034269 689.460295107 137 659 c 0
 150 631 168 593 176 573 c 0
 184 554 193 535 197 531 c 0
 200 527 209 511 216 495 c 0
 224 478 239 452 250 437 c 0
 261 421 279 392 290 371 c 0
 301 351 312 333 314 332 c 0
 314.140829302 331.964792674 314.287856383 331.947249019 314.441004871 331.947249019 c 0
 322.987664449 331.947249019 350.598524534 386.58432965 384 475 c 0
 388 485 393 497 395 502 c 0
 419 564 459 648 482 682 c 0
 487 690 492 699 492 702 c 0
 492 705 480 708 465 710 c 0
319 282 m 0
 319 285.203074226 315.960093481 286.759532422 310.601543127 286.759532422 c 0
 300.903635286 286.759532422 283.611291639 281.661542956 263 272 c 0
 221 251 187 214 162 163 c 0
 147.723206549 132.766790338 144.730943547 125.80792473 144.730943547 98.8851514779 c 0
 144.730943547 93.7498055981 144.839811379 87.8881106819 145 81 c 0
 145 -8 181 -78 243 -109 c 0
 261.099751242 -118.049875621 291.484539798 -126.280748755 304.506883084 -126.280748755 c 0
 305.874067158 -126.280748755 307.049875621 -126.190024876 308 -126 c 0
 310 -125 320 -125 330 -124 c 0
 378 -124 438 -90 470 -44 c 0
 512 14 525 51 525 108 c 0
 525 151 517 176 491 215 c 0
 479 233 440 266 418 278 c 0
 407.747928287 283.126035856 376.14640865 286.609806488 352.659527589 286.609806488 c 0
 339.491368818 286.609806488 328.873964144 285.514718626 326 283 c 0
 322 279 319 279 319 282 c 0
305 91 m 0
 311 94 320 96 323 96 c 0
 332 96 334 84 329 70 c 0
 324 59 322 58 309 61 c 0
 298 63 294 66 294 75 c 0
 292 84 295 88 305 91 c 0
EndSplineSet
Validated: 1
EndChar

StartChar: g
Encoding: 103 103 103
Width: 640
Flags: HW
LayerCount: 2
Fore
SplineSet
295 28 m 0
 296 76 297 285 298 294 c 0
 298.117963123 295.769446839 298.19418035 297.330164204 298.19418035 298.723189396 c 0
 298.19418035 309.139152983 293.932958812 310.179631226 271 319 c 0
 237 330 168 375 148 398 c 0
 139 408 122 431 110 448 c 0
 99 466 90 478 89 480 c 0
 87 484 82 493 80 523 c 0
 78.7596792155 537.263689022 74.4425671338 552.296575869 74.4425671338 567.621634515 c 0
 74.4425671338 577.008019613 76.0620850995 586.504009807 81 596 c 0
 113 659 142 713 190 740 c 0
 203 748 217 757 222 761 c 0
 227 765 237 772 244 775 c 0
 253.378221735 780.091034656 266.848859344 782.453792063 282.738216706 782.453792063 c 0
 326.148748316 782.453792063 387.612849931 764.817930688 433 737 c 0
 472 712 521 650 554 582 c 0
 557.107100562 575.341927368 559.229091541 566.516613657 559.229091541 558.759798231 c 0
 559.229091541 549.041251367 555.898055859 541 547 541 c 0
 540 541 534 542 534 544 c 0
 533 546 533 556 532 566 c 0
 530 610 481 677 424 713 c 0
 389 735 374 742 347 744 c 0
 335 746 317 749 308 751 c 0
 301.758538144 752.70221687 294.79269072 753.519073601 287.444974765 753.519073601 c 0
 268.893349391 753.519073601 247.907429709 748.311863449 230 739 c 0
 219 734 203 725 194 721 c 0
 185 716 167 702 154 690 c 0
 120.106217153 656.894444661 98.0171837916 593.345061704 98.0171837916 539.509531029 c 0
 98.0171837916 525.04557948 99.611640129 511.282804533 103 499 c 0
 109 479 141 432 164 410 c 0
 198 378 267 341 302 335 c 2
 320 333 l 1
 317 223 l 2
 316.660897157 209.77498914 316.523028106 197.84362408 316.523028106 187.123043239 c 0
 316.523028106 140.471346608 319.133776628 116.747588303 319.133776628 109.123656807 c 0
 319.133776628 108.166523729 319.092628344 107.463141722 319 107 c 0
 318.261203875 104.783611625 318.068227464 102.021403535 318.068227464 98.3605324279 c 0
 318.068227464 94.3561386426 318.299119474 89.2765144186 318.299119474 82.6598757354 c 0
 318.299119474 78.9501899547 318.22654092 74.7573593129 318 70 c 0
 318 42.25 314.625 11.125 314.625 -25.484375 c 0
 314.625 -37.6875 315 -50.5 316 -64 c 0
 316.708497378 -73.2104659123 317.040518355 -81.7934711566 317.040518355 -89.5711940376 c 0
 317.040518355 -103.749015733 315.937253933 -115.250984267 314 -123 c 0
 309 -140 308 -142 300 -137 c 0
 293 -134 292 -131 296 -126 c 0
 298.666666667 -122.666666667 300 -115.777777778 300 -102.666666667 c 0
 300 -96.1111111111 299.666666667 -88 299 -78 c 0
 297 -55 296 -7 295 28 c 0
EndSplineSet
Validated: 1
EndChar

StartChar: h
Encoding: 104 104 104
Width: 1024
Flags: H
LayerCount: 2
Fore
SplineSet
735 550 m 24
 731 551 734 554 732 559 c 0
 727 573 713 627 684 662 c 0
 679 669 669 680 662 688 c 0
 648 705 589 743 563 751 c 0
 555.360679775 754.05572809 545.38699101 755.360679775 536.645531465 755.360679775 c 0
 533.94427191 755.360679775 531.360679775 755.236067977 529 755 c 0
 518 753 512 754 511 758 c 0
 509.794228634 761.617314098 500.672863406 763.296115413 488.375638594 763.296115413 c 0
 470.076951546 763.296115413 444.746133918 759.578838325 428 753 c 0
 397 741 344 690 328 657 c 0
 311 621 298 567 298 533 c 0
 298 506 300 498 313 475 c 0
 334 435 356 408 381 389 c 0
 407 370 464 349 496 346 c 0
 508 346 519 344 520 343 c 0
 521 342 522 243 522 122 c 0
 523 2 525 -99 527 -103 c 0
 529.450296453 -106.062870566 536.403557437 -107.249505911 559.353114222 -107.249505911 c 0
 573.867688369 -107.249505911 594.780780836 -106.774851773 625 -106 c 0
 676 -104 722 -102 727 -100 c 0
 732 -99 740 -101 745 -105 c 0
 749.615290964 -108.40074071 752.460423145 -110.916402029 752.460423145 -112.804977573 c 0
 752.460423145 -118.691195777 724.822434115 -118.485820101 637 -120 c 0
 558.456800886 -121.848075273 539.682790546 -127.111532762 524.660003615 -127.111532762 c 0
 523.425025347 -127.111532762 522.215397814 -127.075962363 521 -127 c 0
 510 -127 510 -129 503 -126 c 0
 497 -123.333333333 492.777777778 -122 483.222222222 -122 c 0
 478.444444444 -122 472.333333333 -122.333333333 464 -123 c 0
 420 -127 377 -129 333 -129 c 0
 299.83675112 -129.947521397 298.994186931 -138.077417169 293.042313737 -138.077417169 c 0
 292.712668418 -138.077417169 292.367350224 -138.052478603 292 -138 c 0
 284 -137 277 -142 277 -127 c 2
 277 -112 l 1
 314 -112 l 2
 374 -111 496 -107 503 -105 c 0
 508 -103 508 -97 506 -75 c 0
 504 -60 502 34 501 134 c 0
 499 234 497 316 497 317 c 0
 495 319 456 326 429 329 c 0
 409 331 342 388 320 423 c 0
 309 438 298 451 294 452 c 0
 290 454 286 462 284 478 c 0
 283 491 280 514 278 530 c 0
 277 537.5 276.5 545.25 276.5 551.875 c 0
 276.5 558.5 277 564 278 567 c 0
 284 580 291 614 291 627 c 0
 291 633 293 637 296 637 c 0
 298 637 304 647 309 659 c 0
 334 714 396 769 451 781 c 0
 461.980762114 783.92820323 476.712812921 785.784609691 488.134665205 785.784609691 c 0
 492.3153533 785.784609691 496.052558883 785.535898385 499 785 c 0
 510 784 533 782 550 780 c 0
 567 779 582 776 583 774 c 0
 585 772 591 766 597 762 c 0
 603 758 622 745 639 734 c 0
 669 714 694 688 717 653 c 0
 724 643 733 630 739 624 c 0
 744 617 749 602 750 591 c 0
 751 580 757 571 759 568 c 0
 760 563 767 554 758 551 c 0
 755 550 744 547 735 550 c 24
EndSplineSet
Validated: 1
EndChar

StartChar: i
Encoding: 105 105 105
Width: 640
Flags: HW
LayerCount: 2
Fore
SplineSet
271 781 m 16
 278.011564559 782.038750305 284.820816206 782.470561875 291.392729508 782.470561875 c 0
 310.127815474 782.470561875 326.934063949 778.961249695 341 776 c 2
 375 769 l 1
 424 720 l 2
 470 674 476 667 501 616 c 0
 520 579 528 557 528 545 c 2
 528 528 l 1
 513 536 l 2
 502 543 498 548 494 569 c 0
 487 605 465 644 431 682 c 0
 392 725 369 743 338 753 c 0
 326.333333333 757.083333333 319.430555556 759.125 314.115740741 759.125 c 0
 310.319444444 759.125 307.333333333 758.083333333 304 756 c 0
 297 752 294 752 289 756 c 0
 286.172691705 758.261846636 281.817703836 759.315760584 276.350217339 759.315760584 c 0
 252.81050373 759.315760584 208.648998434 739.779921752 177 713 c 0
 122 669 106 645 91 591 c 0
 84.875 570.875 81.8125 551.515625 81.8125 532.586914062 c 0
 81.8125 508.25 86.875 484.625 97 461 c 0
 119 408 163 364 209 347 c 0
 236 337 306 318 320 318 c 0
 327 318 332 316 332 313 c 0
 332 311 338 297 345 282 c 0
 353 267 360 251 362 245 c 0
 367 229 407 154 434 94 c 24
 446 69 436 89 462 27 c 0
 471 6 482 -22 488 -36 c 0
 499.272727273 -65.1212121212 514.957759412 -93.3599632691 519.304505106 -93.3599632691 c 0
 519.584940312 -93.3599632691 519.818181818 -93.2424242424 520 -93 c 0
 522 -91 524 -96 526 -103 c 0
 527 -110 530 -122 532 -128 c 0
 535 -137 533 -143 527 -151 c 0
 521 -159 519 -160 519 -154 c 0
 519 -150 515 -145 510 -144 c 0
 505 -142 502 -138 503 -134 c 0
 503.187405591 -133.718891614 503.278228829 -133.253398737 503.278228829 -132.61833052 c 0
 503.278228829 -126.475925183 494.781863661 -104.470024526 483 -80 c 0
 470 -54 460 -31 460 -29 c 0
 460 -18 410 86 405 86 c 0
 402 86 400 91 400 97 c 0
 400 102 393 120 385 137 c 0
 376 154 364 180 357 197 c 0
 344 234 320 280 314 284 c 0
 313.607361334 284.314110933 313.183889644 284.461723534 312.738301421 284.461723534 c 0
 308.227153564 284.461723534 301.449150562 269.332029422 301.449150562 258.669833852 c 0
 301.449150562 256.973906948 301.620634216 255.391007875 302 254 c 0
 303 250 301 244 298 241 c 0
 294 238 291 237 291 239 c 0
 291 239.253005369 290.930867346 239.375426836 290.797136724 239.375426836 c 0
 288.288025765 239.375426836 263.038579598 196.279563491 245 164 c 0
 238 150 223 125 213 109 c 0
 203 93 191 69 186 56 c 0
 181 43 175 31 172 29 c 0
 170 28 157 4 145 -22 c 0
 132 -49 115 -83 106 -97 c 0
 97 -111 90 -127 90 -133 c 0
 89 -138 84 -144 79 -147 c 0
 73 -150 68 -154 68 -158 c 0
 68 -161 66 -164 62 -164 c 0
 61.5626830737 -164 61.3554591043 -163.542802307 61.3554591043 -162.676595143 c 0
 61.3554591043 -147.696954841 123.327987695 -10.3986892264 129 -0 c 0
 151 43 171 82 173 86 c 0
 176 90 181 100 185 109 c 0
 189 117 199 135 208 149 c 0
 217 163 228 185 235 197 c 0
 241 210 254 236 264 256 c 0
 274.301408404 273.793341789 281.094750193 290.709666924 281.094750193 296.071831091 c 0
 281.094750193 296.435467079 281.063508327 296.745966692 281 297 c 0
 279 301 266 306 248 309 c 0
 231 312 211 319 202 325 c 0
 193 332 182 337 178 337 c 0
 167 337 103 403 89 429 c 0
 81 444 74 453 71 452 c 0
 69.6616945864 451.598508376 68.4845846969 451.358212276 67.4470974475 451.358212276 c 0
 60.7323389173 451.358212276 59.8661694586 461.423865985 59 503 c 0
 59 557 63 596 70 603 c 0
 73 606 82 622 91 639 c 0
 101 660 119 684 141 707 c 0
 169 736 182 746 213 760 c 0
 234 770 247 778 271 781 c 16
EndSplineSet
Validated: 1
EndChar

StartChar: j
Encoding: 106 106 106
Width: 640
Flags: HW
LayerCount: 2
Fore
SplineSet
425 148 m 24
 445 102 449 103 476 29 c 0
 493 -15 536 -87 546 -87 c 0
 551 -87 554 -90 554 -95 c 0
 554 -100 558 -106 561 -109 c 0
 569 -116 570 -124 563 -139 c 0
 559 -148 556 -149 548 -146 c 0
 541.937822174 -143.401923789 417.375644347 -140.803847577 332.796115413 -140.803847577 c 0
 319.711616751 -140.803847577 307.583993101 -140.866025404 297 -141 c 0
 292 -141 248 -141 199 -141 c 0
 147 -141 105 -143 100 -145 c 0
 90 -151 85 -133 92 -117 c 24
 105 -84 111 -93 148 -28 c 0
 161 -4 176 24 181 34 c 0
 186 44 195 61 202 72 c 0
 208 83 213 94 213 97 c 0
 213 100 218 110 224 119 c 0
 230 128 237 141 239 148 c 0
 240 155 244 165 247 170 c 0
 250 175 263 204 276 234 c 0
 290 264 302 291 305 293 c 0
 307 296 309 301 309 305 c 0
 309 312 303 313 283 315 c 0
 268 316 242 322 224 327 c 0
 197 335 188 341 162 367 c 0
 144 384 124 406 117 416 c 0
 109 426 101 434 98 434 c 0
 94 434 90 454 85 486 c 0
 81 515 76 544 75 551 c 0
 73 558 75 561 76 564 c 0
 78 569 92 623 113 654 c 24
 141 697 171 735 199 751 c 0
 208 756 224 766 234 773 c 0
 244 781 257 787 263 787 c 0
 270 787 284 790 295 794 c 0
 304.50155281 796.639320225 316.023248883 797.8854382 328.406799552 797.8854382 c 0
 362.9427191 797.8854382 404.181892698 788.193495505 427 772 c 0
 452 754 492 702 518 655 c 0
 529 636 542 616 547 611 c 0
 554 603 555 596 553 580 c 0
 550 555 549 554 535 559 c 0
 526 563 523 568 520 583 c 0
 516 611 498 647 470 687 c 0
 427 749 394 771 347 772 c 0
 332 772 317 773 315 775 c 0
 314.673265984 775.196040409 314.094589893 775.289595906 313.291876148 775.289595906 c 0
 301.810687593 775.289595906 244.497023528 756.150491559 223 744 c 0
 215 740 194 722 175 704 c 0
 141 670 122 636 113 599 c 0
 111 588 104 583 106 572 c 24
 112 517 111 467 133 433 c 0
 148 408 189 370 209 363 c 0
 243.117063105 348.670833496 280.027663797 340.394331766 301.305724431 340.394331766 c 0
 311.211562261 340.394331766 317.729365048 342.188095145 319 346 c 0
 320 349 325 348 335 345 c 0
 347 340 350 337 350 324 c 0
 350 317 351 309 354 307 c 0
 356 306 359 299 361 293 c 0
 362 286 374 260 386 234 c 0
 399 208 409 186 409 184 c 0
 409 183 419 162 425 148 c 24
212 43 m 24
 201 22 196 12 183 -10 c 0
 169 -32 158 -51 158 -52 c 0
 158 -53 153 -63 145 -74 c 0
 138 -86 131 -97 131 -99 c 0
 131 -106 173 -109 247 -109 c 0
 282 -109 314 -109 318 -109 c 0
 321 -109 357 -110 397 -111 c 0
 419 -111.75 437.4375 -112.125 452.59375 -112.125 c 0
 491.985141735 -112.125 509.212007353 -109.591911301 509.212007353 -104.525733903 c 0
 509.212007353 -103.744117064 508.801960678 -102.902205763 508 -102 c 0
 497 -88 460 -16 413 84 c 0
 406 99 398 119 395 130 c 0
 392 140 382 164 374 184 c 0
 365 204 356 225 354 230 c 0
 352 235 347 246 343 256 c 0
 337 272 327 279 327 268 c 0
 327 266 323 260 318 255 c 0
 313 250 306 236 302 223 c 0
 299 210 291 195 286 188 c 0
 281 182 276 170 275 163 c 0
 273 155 267 142 263 135 c 0
 252 117 232 79 212 43 c 24
EndSplineSet
Validated: 1
EndChar

StartChar: k
Encoding: 107 107 107
Width: 640
Flags: HW
LayerCount: 2
Fore
SplineSet
79 -3 m 0
 75.4963317616 9.53944422148 74.0329445966 23.915141409 74.0329445966 39.0799037072 c 0
 74.0329445966 106.151946969 102.659632323 188.659632323 110 196 c 0
 115 202 127 222 134 237 c 0
 144 256 150 266 163 281 c 0
 182 302 203 335 219 335 c 0
 239 335 240 342 221 348 c 0
 179 361 137 400 108 459 c 0
 100 475 98 474 95 482 c 24
 85 515 84 553 78 557 c 0
 77.2915026221 557.354248689 76.9594816451 559.559506349 76.9594816451 563.160104885 c 0
 76.9594816451 579.887590257 84.1254921336 626.73072509 94 658 c 8
 99 675 109 676 119 694 c 0
 142 732 175 762 203 771 c 0
 215 775 228 780 233 782 c 0
 238 785 254 789 268 792 c 0
 283 795 300 798 308 799 c 0
 320 799 410 755 441 734 c 0
 485.054009329 704.630660448 552.693591861 597.765866082 552.693591861 563.385957691 c 0
 552.693591861 560.306492283 552.150913946 557.808579058 551 556 c 0
 546 548 530 560 530 572 c 0
 530 582 506 634 499 639 c 0
 497 640 491 648 487 656 c 0
 459 700 403 742 343 762 c 0
 322.231903792 768.749631268 307.124801473 772.264408884 291.520365791 772.264408884 c 0
 277.070172438 772.264408884 262.193498981 769.250368732 242 763 c 0
 225 758 205 753 200 751 c 0
 184 748 154 715 137 689 c 0
 112 650 101 616 101 567 c 0
 101 529 103 520 119 481 c 0
 140 427 172 393 220 371 c 0
 246.812343328 358.551412026 290.130084086 347.936757101 312.196118198 347.936757101 c 0
 313.173536408 347.936757101 314.109257496 347.95758369 315 348 c 0
 319 348 323 347 323 345 c 0
 324.25658351 337.879360111 324.811388301 330.056941504 324.811388301 323.369918273 c 0
 324.811388301 314.092169136 323.74341649 307 322 307 c 0
 320 307 318 310 318 314 c 0
 318 319.004065309 306.410929762 321.317810742 290.952565385 321.317810742 c 0
 272.430156603 321.317810742 248.352549156 317.995934691 232 312 c 0
 189 296 140 232 114 152 c 0
 107.090169944 131.270509831 104.954915028 89.0554315297 104.954915028 56.6966927672 c 0
 104.954915028 42.2254248594 105.381966011 29.7254248594 106 22 c 0
 110 -24 125 -42 136 -53 c 0
 142 -59 149 -69 152 -75 c 0
 158 -86 223 -120 249 -125 c 0
 258 -127 269 -132 274 -134 c 0
 281 -136 287.75 -137 294.125 -137 c 0
 300.5 -137 306.5 -136 312 -134 c 0
 319 -131 328 -127 335 -127 c 0
 336.518295404 -127.108449672 338.052272584 -127.162013131 339.600797749 -127.162013131 c 0
 380.888506407 -127.162013131 432.518295404 -89.0840557994 473 -38 c 0
 520 21 536 43 542 77 c 0
 545.619026474 98.7141588429 552.381417576 109.950435591 558.116002711 109.950435591 c 0
 560.304245961 109.950435591 562.342831769 108.314336463 564 105 c 0
 564.989807579 103.515288632 565.435326801 100.751499623 565.435326801 97.0857514935 c 0
 565.435326801 78.5305253203 554.020384842 36.8656093332 544 21 c 0
 536 9 530 -2 530 -4 c 0
 530 -14 463 -91 433 -116 c 0
 412 -133 394 -141 337 -158 c 0
 326.25 -161 312.6875 -162.5 297.640625 -162.5 c 0
 252.5 -162.5 194 -149 158 -122 c 0
 136 -106 83 -15 79 -3 c 0
554 18 m 0
 554 23 555 26 556 24 c 0
 558 23 558 19 557 15 c 0
 555 12 554 13 554 18 c 0
451 -125 m 0
 447 -124 449 -122 454 -122 c 0
 459 -122 462 -123 460 -125 c 0
 459 -126 454 -127 451 -125 c 0
EndSplineSet
Validated: 1
EndChar

StartChar: l
Encoding: 108 108 108
Width: 640
Flags: HW
LayerCount: 2
Fore
SplineSet
292 803 m 0
 302.255666838 806.550038521 317.490207157 808.232999486 333.775800369 808.232999486 c 0
 358.777178565 808.232999486 386.255666838 804.266615306 402 797 c 0
 448 777 505 717 526 667 c 0
 530 657 537 643 541 637 c 0
 552.827008544 618.911633991 561.26596547 580.978965647 561.26596547 556.874697015 c 0
 561.26596547 546.331779487 559.651523381 538.43434892 556 536 c 0
 553 534 551 528 551 521 c 2
 551 508 l 1
 545 521 l 2
 541 528 536 545 535 560 c 0
 531 594 500 668 479 697 c 0
 433.889522118 757.938715735 387.526378669 785.681793926 326.527014876 785.681793926 c 0
 310.449745934 785.681793926 293.355753446 783.754585932 275 780 c 0
 212 767 169 731 135 664 c 0
 116 627 115 622 113 578 c 0
 112.744270272 571.777243278 112.612069521 565.757946049 112.612069521 559.919809466 c 0
 112.612069521 497.269976868 127.835945924 455.482108134 169 407 c 0
 200.018442309 370.165599758 266.741438334 339.908354148 317.254942468 339.908354148 c 0
 318.853408245 339.908354148 320.43564243 339.938652644 322 340 c 0
 324.178197351 340.094704233 326.34742581 340.142321784 328.509490335 340.142321784 c 0
 372.006726669 340.142321784 412.604366398 320.869154766 465 278 c 0
 481 264 523 206 540 174 c 0
 550 154 552 142 555 97 c 0
 555.333333333 85.3333333333 555.555555556 75 555.555555556 66.1481481481 c 0
 555.555555556 48.4444444444 554.666666667 36.6666666667 552 32 c 0
 549 26 541 5 533 -14 c 0
 513 -64 502 -77 465 -105 c 0
 423.008498737 -136.493625947 367.792351137 -153.783002125 316.833940176 -153.783002125 c 0
 294.979887526 -153.783002125 273.908923674 -150.603116204 255 -144 c 0
 195 -123 121 -36 102 36 c 0
 99 49 94 61 93 64 c 0
 90 66 88 74 88 82 c 0
 88 93 90 95 99 93 c 0
 108 92 111 86 119 57 c 0
 141 -21 192 -84 255 -112 c 0
 270.702235023 -119.137379556 295.008039395 -122.652203597 320.914867327 -122.652203597 c 0
 349.4541307 -122.652203597 379.936313365 -118.38679514 403 -110 c 0
 464 -87 493 -60 517 -1 c 0
 534 38 534 43 534 90 c 0
 533 148 529 159 491 211 c 0
 466 246 433 277 408 290 c 0
 387 301 338 313 313 313 c 0
 261 314 192 344 159 379 c 0
 128 413 98 467 95 491 c 0
 95 495 95 492 88 514 c 0
 83.8412300394 525.882199888 81.4472935058 538.470333146 81.4472935058 549.038286314 c 0
 81.4472935058 556.258206213 82.5646599663 562.535209938 85 567 c 0
 87 570 90 585 93 600 c 0
 99 629 123 682 145 715 c 0
 162 739 195 772 203 772 c 0
 206 772 215 777 224 784 c 0
 233 791 246 796 256 796 c 0
 266 796 282 799 292 803 c 0
EndSplineSet
Validated: 1
EndChar

StartChar: m
Encoding: 109 109 109
Width: 640
Flags: HW
LayerCount: 2
Fore
SplineSet
281 798 m 0
 294 802 305 805 306 805 c 0
 306.365246267 805.104356076 306.959186538 805.154261199 307.758239317 805.154261199 c 0
 322.273154031 805.154261199 404.469602343 788.686931771 413 783 c 0
 452 758 466 748 488 725 c 0
 521 693 540 663 544 641 c 0
 548.083333333 614.75 550.125 593.604166667 550.125 579.944444444 c 0
 550.125 570.1875 549.083333333 564.25 547 563 c 0
 538 558 529 566 526 583 c 0
 513 666 493 699 424 748 c 0
 389.334649742 771.482979207 355.294526596 783.399256849 320.306538212 783.399256849 c 0
 292.717478804 783.399256849 264.539056979 775.989969213 235 761 c 0
 184 735 157 706 127 639 c 0
 112 606 111 602 111 556 c 0
 112 481 128 437 171 393 c 0
 209 354 223 349 280 349 c 0
 285.679718106 349.08113883 291.089512312 349.122776602 296.249147215 349.122776602 c 0
 354.679718106 349.122776602 381.028470752 343.782917549 404 330 c 0
 416 322 427 316 429 316 c 0
 433 316 488 270 490 264 c 0
 491 262 497 255 503 248 c 0
 509 241 522 218 533 198 c 0
 551 163 552 160 554 104 c 2
 557 46 l 1
 539 7 l 2
 498 -78 440 -123 357 -134 c 0
 349 -135 338 -138 334 -139 c 0
 330.728186609 -140.487187905 326.129336498 -141.178153779 320.519218142 -141.178153779 c 0
 307.267838443 -141.178153779 288.37431015 -137.323061771 268 -131 c 0
 253 -126 237 -122 232 -122 c 0
 209 -122 143 -56 121 -11 c 0
 116 0 106 18 100 27 c 0
 88 45 88 49 88 104 c 2
 88 162 l 1
 117 218 l 2
 136 256 144 277 152 282 c 0
 182 300 208 319 208 322 c 0
 208 324 211 332 201 337 c 0
 173 349 108 421 108 439 c 0
 108 443 102 458 95 473 c 0
 85.600469468 493.508066615 82.7725138782 502.333333333 82.7725138782 526.929008737 c 0
 82.7725138782 531.11694423 82.8545027756 535.762099923 83 541 c 0
 84 601 106 656 151 715 c 0
 172 742 182 750 217 770 c 0
 240 782 269 795 281 798 c 0
378 318 m 0
 366.853392725 323.573303638 337.749232368 327.205250185 309.960238751 327.205250185 c 0
 297.86051225 327.205250185 286.010122495 326.516685226 276 325 c 0
 248 321 220 308 184 283 c 0
 162 266 153 256 137 226 c 0
 115.611785064 185.600038454 104.812823326 146.259002228 104.812823326 109.235142563 c 0
 104.812823326 83.941555357 109.852927039 59.7294434328 120 37 c 0
 134 6 166 -41 192 -67 c 0
 224.178946606 -99.8636050445 273.233151595 -117.258223238 325.362257016 -117.258223238 c 0
 349.372000538 -117.258223238 374.03404132 -113.568197478 398 -106 c 0
 439 -93 457 -80 485 -46 c 0
 515.667279411 -8.58591911859 532.03923202 46.1330310499 532.03923202 99.0057458478 c 0
 532.03923202 132.336821887 525.532904412 164.934191175 512 192 c 0
 488 238 435 288 378 318 c 0
EndSplineSet
Validated: 1
EndChar

StartChar: n
Encoding: 110 110 110
Width: 640
Flags: HW
LayerCount: 2
Fore
SplineSet
315 780 m 16
 309.111231064 781.385592691 302.172534806 782.021237294 294.583973421 782.021237294 c 0
 258.358438872 782.021237294 207.323624669 767.536018273 185 751 c 0
 177 745 168 740 165 740 c 0
 162 740 146 725 128 707 c 0
 100 679 95 671 85 641 c 0
 77.3633862697 617.612870451 73.5994435454 589.897461543 73.5994435454 563.072730788 c 0
 73.5994435454 533.69510442 78.1139020884 505.385754032 87 485 c 0
 96 459 102 453 138 427 c 0
 159 411 185 393 195 388 c 0
 218 376 272 361 291 361 c 0
 298 361 311 358 318 356 c 0
 325 352 349 347 370 344 c 0
 391 341 413 335 417 331 c 0
 421 327 439 319 456 312 c 0
 473 305 491 296 496 292 c 0
 514 275 543 253 547 253 c 0
 553 253 581 180 586 151 c 0
 588.585144756 136.227744249 590.079191813 124.728781598 590.079191813 113.63209788 c 0
 590.079191813 94.6814173879 585.721791306 76.9039867056 575 46 c 0
 559 -0 550 -13 503 -61 c 0
 478 -86 399 -127 364 -133 c 0
 352.309793265 -135.125492134 336.729330388 -136.121555065 320.103758493 -136.121555065 c 0
 289.797408225 -136.121555065 256.018290643 -132.8117618 236 -127 c 0
 193 -117 143 -89 113 -58 c 0
 98 -43 86 -27 86 -23 c 0
 86 -19 82 -10 78 -5 c 0
 74 2 69 24 67 51 c 0
 65.4502964531 66.4970354689 64.500988177 77.4911064067 64.500988177 87.1805820284 c 0
 64.500988177 102.500988177 66.8742588672 114.559906035 73 136 c 0
 79 162 88 184 98 198 c 0
 107 210 114 223 114 226 c 0
 114 234 154 272 174 284 c 0
 182 289 189 294 189 296 c 0
 189 300 253 332 273 337 c 0
 283 340 283 341 263 347 c 0
 252 350 234 356 225 359 c 0
 215 363 203 365 198 365 c 0
 194 365 176 376 159 389 c 0
 141 401 122 415 115 419 c 0
 81 437 73 451 52 531 c 0
 50.5128120949 537.543626783 49.8218462212 546.564388774 49.8218462212 556.720269963 c 0
 49.8218462212 580.708968466 53.6769382292 611.030814688 60 630 c 0
 63 640 67 653 69 660 c 0
 76 696 209 800 248 801 c 0
 258 801 274 802 284 804 c 0
 288.574821723 804.879773408 293.923644697 805.295146067 299.850356553 805.295146067 c 0
 327.60681698 805.295146067 368.038187267 796.184725093 401 783 c 0
 444 766 484 738 516 704 c 0
 542 677 543 675 555 623 c 0
 560.847818767 598.709060505 563.862751258 583.321477878 563.862751258 574.1065589 c 0
 563.862751258 565.414915885 561.180507081 562.214802507 555.663257642 562.214802507 c 0
 554.026376455 562.214802507 552.139953673 562.496481489 550 563 c 0
 544 564 542 568 541 578 c 0
 540 606 530 650 521 668 c 0
 495 719 420 754 315 780 c 16
411 309 m 0
 397.139990637 314.544003745 361.188497425 318.647258544 338.090909673 318.647258544 c 0
 327.858667486 318.647258544 320.148996723 317.841997191 318 316 c 0
 316 314 303 313 288 314 c 0
 265 314 256 312 233 300 c 0
 162 262 133 234 108 178 c 0
 105 172 99 158 94 148 c 0
 88.5644219058 135.187565921 85.9929492971 111.973906658 85.9929492971 86.3186364553 c 0
 85.9929492971 45.8956024525 92.3768559849 -0.588945235376 104 -22 c 0
 116 -44 144 -70 172 -86 c 0
 217 -111 244 -118 308 -118 c 2
 364 -118 l 1
 414 -96 l 2
 454 -77 471 -67 492 -46 c 0
 520 -18 543 18 553 50 c 0
 557 60 562 73 565 78 c 0
 569 83 572 96 572 106 c 0
 572 134 563 180 556 185 c 0
 553 188 549 198 547 206 c 0
 542 235 480 289 443 297 c 0
 436 299 421 304 411 309 c 0
304 111 m 0
 314 119 321 119 328 112 c 0
 336 104 335 90 326 87 c 0
 315 82 296 89 296 98 c 0
 296 102 300 108 304 111 c 0
EndSplineSet
Validated: 1
EndChar

StartChar: o
Encoding: 111 111 111
Width: 640
Flags: HW
LayerCount: 2
Fore
SplineSet
520 428 m 0
 483 379 451 356 384 333 c 0
 332.728813559 315.288135593 330.990807239 315.825337547 330.990807239 283.576081294 c 0
 330.990807239 281.230680839 331 278.711864407 331 276 c 0
 330 256 330 225 328 207 c 0
 327.44151844 201.973665961 327.194938533 195.309848245 327.194938533 187.661764308 c 0
 327.194938533 167.920997883 328.83772234 141.622776602 331 120 c 0
 333 98 334 79.75 334 57.625 c 0
 334 35.5 333 9.5 331 -28 c 0
 329.848361657 -48.7294901688 329.492485838 -63.7294901688 329.492485838 -75.1261190701 c 0
 329.492485838 -93.5662519898 330.424180829 -102.572636899 330.424180829 -111.151658708 c 0
 330.424180829 -120.290440964 329.366937687 -128.94427191 325 -148 c 8
 324 -153 308 -155 303 -151 c 0
 299.4 -148 297.6 -141.04 297.6 -133.576 c 0
 297.6 -128.6 298.4 -123.4 300 -119 c 0
 303.708286934 -108.616796585 305.76640683 -24.5261321366 305.76640683 92.0687547149 c 0
 305.76640683 132.682423904 305.516685226 177.239987006 305 224 c 2
 304 327 l 1
 314 336 l 2
 321 341 330 345 336 345 c 0
 351 345 406 364 434 379 c 0
 464 395 507 439 522 467 c 0
 532 487 533 494 533 551 c 2
 533 613 l 1
 515 644 l 2
 500 670 492 678 468 694 c 0
 452 704 437 714 435 717 c 0
 432 719 423 723 415 725 c 0
 406 728 388 734 374 739 c 0
 352 747 314.444444444 751.888888889 284.444444444 751.888888889 c 0
 269.444444444 751.888888889 256.333333333 750.666666667 248 748 c 0
 200 733 173 714 142 675 c 0
 120 648 111 626 105 588 c 0
 101.236109396 561.652765772 96.9055438929 548.905729124 92.0083034906 548.905729124 c 0
 90.3999876513 548.905729124 88.7305531544 550.280559329 87 553 c 0
 84.5028090774 557.161984871 83.2181664195 563.575845091 83.2181664195 572.602052625 c 0
 83.2181664195 585.263111658 85.7457863839 603.064137971 91 627 c 0
 96 648 105 670 124 690 c 24
 158 726 199 762 224 768 c 0
 232 770 236 773 238 775 c 0
 239 776 242 780 248 780 c 0
 253 781 260 782 263 781 c 0
 265 780 287 778 311 775 c 0
 412 763 494 711 531 660 c 0
 537 652 535 655 544 646 c 0
 552.918197336 637.081802664 556.577932277 630.792836525 556.577932277 582.368732863 c 0
 556.577932277 571.064943073 556.378509575 557.465166522 556 541 c 0
 555 481 524 432 520 428 c 0
EndSplineSet
Validated: 1
EndChar

StartChar: p
Encoding: 112 112 112
Width: 640
Flags: HW
LayerCount: 2
Fore
SplineSet
75 -123 m 8
 66 -123 72 -101 74 -99 c 0
 74.6339745962 -97.0980762114 92.1487483156 -96.4019237886 119.664465424 -96.4019237886 c 0
 135.550672104 -96.4019237886 154.770526581 -96.6339745962 176 -97 c 0
 192.25 -97.25 206.6875 -97.375 219.234375 -97.375 c 0
 256.875 -97.375 277.5 -96.25 279 -94 c 0
 280 -92 282 -54 284 -10 c 0
 284 34 287 92 289 117 c 0
 291.143593539 143.259020858 292.138438763 199.098310843 292.138438763 246.811612479 c 0
 292.138438763 288.132543795 291.392304845 323.358983849 290 328 c 0
 288 332 294 336 313 340 c 0
 359 351 411 369 423 379 c 0
 443 396 473 446 492 492 c 0
 495 500 500 523 503 542 c 0
 504.310955667 552.159906421 504.977434549 561.863308451 504.977434549 571.163011123 c 0
 504.977434549 618.613985259 487.625874372 655.554778336 450 689 c 0
 419 715 353 736 315 737 c 16
 306.237601434 737.21635552 298.060324257 737.339091618 290.39094598 737.339091618 c 0
 227.16425217 737.339091618 198.456534077 728.997422877 161 696 c 0
 150 686 136 668 130 656 c 0
 118 630 106 587 106 569 c 0
 106 554 98 534 90 531 c 0
 87 530 85 533 85 538 c 0
 85 543 91 617 92 624 c 0
 93 635 96 644 98 644 c 0
 100 644 104 651 108 659 c 0
 127 706 194 749 279 769 c 0
 285.496575182 770.443683374 291.993150364 771.236047471 298.865845069 771.236047471 c 0
 311.035261205 771.236047471 324.383941929 768.751712409 341 763 c 0
 356 758 371 753 373 751 c 0
 375 749 391 743 408 738 c 0
 437 729 443 725 475 694 c 0
 502 667 511 655 515 640 c 0
 518 629 523 619 526 618 c 0
 529.990192306 615.149862638 532.355728016 586.955082379 532.355728016 559.531648 c 0
 532.355728016 538.846112704 531.009807694 518.599450554 528 510 c 0
 525 500 509 468 493 438 c 0
 468 392 460 381 443 368 c 0
 432 360 419 349 415 343 c 0
 412 337 406 333 403 334 c 0
 402.123105626 334.438447187 400.525326491 334.636599454 398.333090555 334.636599454 c 0
 390.525326491 334.636599454 375.177080941 332.123105626 358 329 c 2
 320 322 l 1
 318 223 l 2
 317.333333333 197.666666667 317 178.222222222 317 163.481481481 c 0
 317 134 318.333333333 123.333333333 321 122 c 0
 325 121 325 119 320 116 c 0
 313 111 311 95 309 4 c 0
 308 -35 306 -73 306 -81 c 0
 305 -94 306 -96 313 -95 c 0
 318 -95 369 -94 427 -94 c 0
 527 -94 567 -97 567 -106 c 0
 567 -111 552 -115 538 -115 c 0
 480.352941176 -115 326.401384083 -124.494809689 172.768980256 -124.494809689 c 0
 139.847750865 -124.494809689 106.941176471 -124.058823529 75 -123 c 8
EndSplineSet
Validated: 1
EndChar

StartChar: q
Encoding: 113 113 113
Width: 640
Flags: HW
LayerCount: 2
Fore
SplineSet
295 333 m 24
 302 343 320 339 325 342 c 0
 329 344 340 346 348 346 c 0
 365 346 433 370 448 382 c 0
 454 387 468 398 479 406 c 0
 507.458468614 427.589183087 533.027932107 467.475398613 533.027932107 515.263436493 c 0
 533.027932107 516.172786982 533.018673496 517.084998693 533 518 c 0
 531 598 506 668 474 695 c 0
 468 700 443 728 424 734 c 0
 393.886356298 743.464288021 356.925209154 748.116816865 321.316920625 748.116816865 c 0
 274.152754855 748.116816865 229.362008689 739.954542519 206 724 c 0
 169 697 148 671 131 628 c 0
 123 607 115 581 114 570 c 0
 113 558 110 549 105 547 c 0
 101 545 98 540 98 537 c 0
 98 533 96 530 94 530 c 0
 89.2714987294 530 87.1825690736 543.353126992 87.1825690736 560.453737916 c 0
 87.1825690736 586.751091664 92.1225430431 621.910626588 100 631 c 0
 103 634 111 649 118 662 c 0
 126 679 140 697 159 715 c 0
 200 754 230 767 286 769 c 0
 299 769 308 772 311 773 c 0
 316 774 326 771 331 772 c 0
 334 773 343 771 356 770 c 0
 393 766 446 753 474 738 c 0
 481 735 495 720 505 705 c 0
 516 690 530 672 536 665 c 0
 542 657 549 645 550 637 c 0
 551 630 555 607 560 586 c 0
 563.5 568.5 565.25 558.5 565.25 548 c 0
 565.25 537.5 563.5 526.5 560 507 c 0
 556 485 552 459 551 449 c 0
 550 429 545 418 536 416 c 0
 532 415 517 405 503 393 c 0
 477 373 445 356 420 348 c 0
 413 346 409 341 407 339 c 0
 405 335 406 333 403 333 c 0
 364 330 345 328 343 326 c 0
 342 325 344 318 348 310 c 0
 352 302 366 268 378 235 c 0
 397 183 436 97 448 82 c 0
 450 79 455 67 459 55 c 0
 462 43 472 24 478 13 c 0
 485 2 495 -16 500 -26 c 0
 517 -61 524 -72 532 -77 c 0
 536 -81 540 -88 540 -96 c 0
 540 -102 543 -109 546 -110 c 0
 550 -111 550 -114 546 -121 c 0
 543 -126 540 -134 540 -137 c 0
 540 -141 538 -144 536 -144 c 0
 533 -144 531 -142 531 -140 c 0
 531 -137 526 -132 518 -128 c 0
 511 -124 505 -116 505 -112 c 0
 505 -100 484 -51 466 -20 c 0
 448 12 441 26 418 75 c 0
 409 96 394 127 385 145 c 0
 377 163 365 194 358 213 c 0
 339.754605406 267.736183781 327.042082124 291.119430133 317.20586646 291.119430133 c 0
 316.79905358 291.119430133 316.39716074 291.079432148 316 291 c 0
 312 289 308 286 308 282 c 0
 308 279 306 276 304 276 c 0
 301 276 293 262 284 244 c 0
 275 227 259 197 249 178 c 0
 222 129 194 71 154 -19 c 0
 149 -31 137 -57 128 -76 c 0
 119 -96 111 -114 111 -116 c 0
 111 -118 107 -122 102 -125 c 0
 98 -128 94 -135 94 -139 c 0
 94 -152 87 -150 79 -135 c 0
 74 -125 74 -121 78 -114 c 0
 81 -110 85 -101 87 -93 c 0
 88 -86 91 -79 94 -78 c 0
 98 -75 150 27 165 65 c 0
 171 80 177 97 177 101 c 0
 177 106 179 110 182 110 c 0
 184 110 189 117 192 125 c 0
 196 134 209 159 222 181 c 0
 242 217 260 278 295 333 c 24
EndSplineSet
Validated: 1
EndChar

StartChar: r
Encoding: 114 114 114
Width: 640
Flags: HW
LayerCount: 2
Fore
SplineSet
564 -138 m 16
 547.2 -143.4 542.64 -144.48 530.232 -144.48 c 0
 521.96 -144.48 510.2 -144 489 -144 c 0
 456 -144 417 -143 401 -140 c 0
 386.584312217 -137.747548784 374.603921946 -136.712746323 365.058829184 -136.712746323 c 0
 353.415687783 -136.712746323 345.396078054 -138.252451216 341 -141 c 0
 339.901923789 -141.366025404 337.196152423 -141.598076211 333.520181276 -141.598076211 c 0
 327.153212483 -141.598076211 317.875644347 -140.901923789 309 -139 c 0
 294 -137 254 -135 220 -135 c 0
 190.800763377 -135.858801077 160.863987464 -140.405298605 147.291459754 -140.405298605 c 0
 145.059946142 -140.405298605 143.270790306 -140.282397846 142 -140 c 0
 128 -137 123 -131 118 -137 c 0
 115.374722088 -140.836944641 112.871788864 -142.512466452 110.639441318 -142.512466452 c 0
 105.140891956 -142.512466452 101.283980764 -132.347107393 101.283980764 -119.277561954 c 0
 101.283980764 -111.378221735 102.692946108 -102.417955361 106 -94 c 0
 111 -84 117 -73 121 -69 c 0
 126 -66 135 -44 143 -20 c 0
 150 3 159 24 163 27 c 0
 166 30 169 39 169 46 c 0
 169 54 171 62 173 65 c 0
 175 67 180 79 184 93 c 0
 188 106 195 121 200 127 c 0
 204 133 208 141 208 146 c 0
 208 150 210 154 212 156 c 0
 214 157 221 170 227 185 c 0
 233 201 246 226 256 241 c 0
 266 257 276 275 279 281 c 0
 281 287 286 298 290 305 c 0
 293 313 296 325 295 332 c 0
 294 345 294 345 319 346 c 0
 328 346 330 345 340 350 c 0
 349 354 344 349 391 371 c 0
 426 388 440 398 469 427 c 0
 489 447 509 470 513 480 c 0
 521.555360963 497.110721926 530.842663938 536.179704212 530.842663938 551.494141607 c 0
 530.842663938 554.08010311 530.577855615 555.988752674 530 557 c 0
 528 559 527 574 526 588 c 0
 525 603 522 622 518 629 c 0
 497 676 439 737 397 758 c 0
 364 773 351 775 344 775 c 0
 340 775 339 776 331 774 c 0
 314 770 282 772 226 749 c 0
 197 738 166 712 146 681 c 0
 132 661 135 595 112 545 c 24
 107 535 92 548 94 567 c 0
 95 580 98 603 102 620 c 0
 106 637 120 687 164 746 c 24
 168 752 219 779 225 784 c 0
 235 791 265 798 322 807 c 0
 325.100111359 807.516685226 328.734149964 807.76640683 332.695211575 807.76640683 c 0
 344.066740906 807.76640683 358.133481812 805.708286934 370 802 c 0
 376 800 390 796 400 793 c 0
 410 790 418 786 418 784 c 0
 418 782 428 775 439 767 c 0
 456 754 516 685 527 664 c 0
 533 652 550 586 554 560 c 0
 556 546 555 539 551 535 c 0
 548 532 545 524 545 518 c 0
 545 489 530 459 497 423 c 0
 465 386 430 355 422 355 c 0
 419 355 412 350 404 344 c 0
 397 338 388 333 383 333 c 0
 372 333 369 327 379 319 c 0
 383 315 392 296 399 276 c 0
 411 240 422 209 433 182 c 0
 436 175 443 158 449 145 c 0
 454 132 461 116 465 110 c 0
 478 87 497 44 497 40 c 0
 497 29 542 -68 550 -75 c 0
 555 -79 558 -84 558 -87 c 0
 558 -90 562 -96 566 -101 c 0
 572 -107 572 -110 567 -119 c 0
 564 -125 571 -136 564 -138 c 16
425 -113 m 16
 437.666666667 -113.333333333 452 -113.444444444 465.740740741 -113.444444444 c 0
 493.222222222 -113.444444444 518.333333333 -113 523 -113 c 0
 533 -113 534 -112 527 -107 c 0
 523 -104 521 -100 522 -97 c 0
 522.06377085 -96.8086874487 522.09500793 -96.5523073556 522.09500793 -96.2342311183 c 0
 522.09500793 -91.5645075197 515.362291496 -73.5970412906 506 -53 c 0
 496 -31 488 -11 488 -8 c 0
 488 -2 420 153 414 161 c 0
 411 163 405 179 399 196 c 0
 393 212 385 232 381 239 c 0
 378 247 371 267 365 284 c 0
 360 304 354 316 350 316 c 0
 347 316 344 314 344 311 c 0
 344 308 339 307 331 309 c 0
 328.713941137 309.527552045 327.015428057 310.302491789 325.322604185 310.302491789 c 0
 317.388943501 310.302491789 309.580244095 293.281234781 242 154 c 0
 235 139 229 123 229 118 c 0
 229 114 228 109 226 108 c 0
 221 105 207 75 191 33 c 0
 162 -44 152 -70 143 -85 c 0
 138 -94 134 -102 135 -103 c 0
 136 -104 198 -106 272 -107 c 0
 347 -107 365 -111 425 -113 c 16
EndSplineSet
Validated: 1
EndChar

StartChar: s
Encoding: 115 115 115
Width: 640
Flags: HW
LayerCount: 2
Fore
SplineSet
76 3 m 0
 75.2212807378 18.3148121556 74.7794524142 34.4381625636 74.7794524142 50.1457817297 c 0
 74.7794524142 94.9514435222 78.374450136 136.374450136 88 146 c 0
 92 150 95 150 95 155 c 0
 95 168 170 253 215 292 c 0
 232 307 279 326 303 328 c 0
 332 330 396 348 413 359 c 0
 439 375 471 413 487 446 c 0
 500.386946922 473.610578027 503.273287522 479.519902988 503.273287522 506.485005478 c 0
 503.273287522 511.748434433 503.163315817 517.814104036 503 525 c 0
 503 572 494 613 480 641 c 0
 471 659 394 733 384 733 c 0
 382 733 372 740 363 742 c 16
 330.625 748.125 294.421875 756.546875 273.818359375 756.546875 c 0
 270.875 756.546875 268.25 756.375 266 756 c 0
 225 751 199 738 169 707 c 0
 127 666 100 606 98 553 c 0
 97 549 94 540 90 535 c 2
 84 526 l 1
 79 539 l 2
 77 546 76 551 78 551 c 0
 81 551 82 561 82 572 c 0
 82 584 84 594 86 595 c 0
 87 596 94 610 99 626 c 0
 111 662 139 708 163 728 c 0
 172 737 183 749 187 755 c 0
 192 763 202 768 230 775 c 0
 249 780 272 785 279 786 c 0
 286 787 294 788 296 788 c 0
 305 788 388 760 404 749 c 0
 434 729 498 651 507 630 c 0
 520.525284963 597.152879375 534.050569926 561.505758751 534.050569926 540.190665746 c 0
 534.050569926 539.442541385 534.033908217 538.712072555 534 538 c 0
 530 473 527 439 514 412 c 0
 506 396 479 378 462 363 c 0
 430 335 404 326 397 326 c 0
 393 326 332 310 307 302 c 0
 303 301 292 299 281 299 c 0
 267 298 255 294 237 282 c 0
 198 257 142 204 130 181 c 0
 124 170 113 151 106 138 c 0
 94 117 94 116 93 59 c 0
 93 1 93 0 108 -29 c 0
 126 -65 150 -96 168 -108 c 0
 189 -122 251 -144 275 -145 c 0
 284.214269188 -145.969923072 295.780415291 -147.880596911 307.987583547 -147.880596911 c 0
 320.951830641 -147.880596911 334.639076868 -145.725576957 347 -138 c 8
 404 -103 422 -101 474 -21 c 0
 491 5 509 52 513 80 c 0
 515 102 517 106 523 106 c 0
 530 106 532 103 532 92 c 0
 532 69.5769625945 522.495413866 13.8878737201 518.312098322 13.8878737201 c 0
 518.204458284 13.8878737201 518.100341321 13.9247440094 518 14 c 0
 517.872286057 14.0425713142 517.739135164 14.0652071437 517.598849962 14.0652071437 c 0
 514.44383631 14.0652071437 507.68028926 2.61600640513 478 -51 c 0
 469 -69 412 -130 393 -141 c 0
 387 -145 366 -153 346 -158 c 0
 326 -163 311 -168 309 -169 c 0
 306 -170 301 -174 296 -171 c 0
 291 -169 275 -165 258 -162 c 0
 242 -159 212 -149 191 -140 c 0
 157 -124 149 -119 129 -94 c 0
 117 -78 104 -60 100 -52 c 0
 96 -44 77 -20 76 3 c 0
EndSplineSet
Validated: 1
EndChar

StartChar: t
Encoding: 116 116 116
Width: 640
Flags: HW
LayerCount: 2
Fore
SplineSet
535 676 m 0
 539 667 561 603 566 593 c 0
 568.714807105 587.817186437 569.906850239 577.21333314 569.906850239 563.804141263 c 0
 569.906850239 522.881255406 558.80438902 455.829983853 546 437 c 0
 534 418 489 375 473 365 c 0
 463 360 451 351 445 346 c 0
 439 340 425 335 413 333 c 0
 390 330 384 324 397 320 c 0
 414 315 481 275 494 262 c 0
 506 251 535 210 546 189 c 0
 553.588349914 173.823300172 562.076435054 133.454014034 562.076435054 110.564052337 c 0
 562.076435054 109.322325901 562.051456261 108.132037736 562 107 c 0
 561 80 554 58 531 9 c 0
 512 -33 509 -36 474 -64 c 0
 455 -80 429 -97 419 -102 c 0
 400.915600885 -109.685869624 371.589013004 -112.466056878 343.311142903 -112.466056878 c 0
 309.042571906 -112.466056878 276.314130376 -108.383120177 267 -104 c 0
 260 -101 251 -96 238 -90 c 0
 226 -85 215 -78 211 -73 c 0
 207 -68 199 -58 196 -58 c 0
 189 -58 163 -29 146 -2 c 0
 139 11 130 24 127 26 c 0
 119 34 103 76 103 91 c 0
 103 101 106 107 111 110 c 0
 122 116 125 112 125 95 c 0
 125 60 177 -23 216 -51 c 0
 279.306122449 -96.0816326531 280.049979175 -97.0016659725 321.48184005 -97.0016659725 c 0
 323.244897959 -97.0016659725 325.081632653 -97 327 -97 c 0
 350 -97 381 -95 396 -92 c 0
 420 -88 428 -84 453 -63 c 0
 468 -50 486 -35 491 -30 c 0
 510 -9 540 68 542 104 c 0
 542.063475817 105.459943788 542.094718199 106.948091831 542.094718199 108.462014453 c 0
 542.094718199 154.648860296 513.016124839 224.825185619 483 250 c 0
 468 263 432 284 399 300 c 0
 389 305 371 310 359 312 c 0
 341 314 337 316 337 323 c 0
 337 328 340 332 349 333 c 0
 355 335 368 338 378 340 c 0
 387 342 404 346 413 348 c 0
 447 355 512 415 532 456 c 0
 544 481 546 489 547 532 c 0
 547.561552813 543.792609069 547.886599454 553.141321036 547.886599454 561.042216193 c 0
 547.886599454 581.280776406 545.753788749 592.01941016 540 610 c 0
 534 626 527 644 523 650 c 0
 519 657 515 663 514 666 c 0
 506 683 455 728 425 743 c 0
 410.862050807 750.952596421 377.204413394 757.343617784 357.833211899 757.343617784 c 0
 355.281911078 757.343617784 352.978428983 757.232756351 351 757 c 0
 346.030551922 756.096463986 342.183622671 755.754187385 338.91751792 755.754187385 c 0
 328.707481661 755.754187385 324.173404765 759.09899821 308.767275781 759.09899821 c 0
 307.283899826 759.09899821 305.699731668 759.067989267 304 759 c 0
 302.360138566 758.918006928 300.827842953 758.883073903 299.389332455 758.883073903 c 0
 291.101803169 758.883073903 285.927122451 760.042545931 281.230126599 760.042545931 c 0
 276.799094976 760.042545931 272.793182659 759.010664918 267 755 c 0
 258 750 251 747 249 748 c 0
 248 749 237 743 225 735 c 0
 213 726 203 720 203 722 c 0
 203 724 192 714 180 701 c 0
 165 685 154 668 147 650 c 0
 142 635 134 616 131 608 c 0
 127 600 125 584 125 573 c 0
 125 561 124 549 122 545 c 0
 119 537 109 536 105 543 c 0
 104.69892057 543.60215886 104.558994603 544.838859483 104.558994603 546.593856052 c 0
 104.558994603 562.325905027 115.80287848 619.70611677 123 635 c 0
 126 643 133 659 138 672 c 0
 149 699 159 711 200 745 c 0
 222 762 238 771 256 776 c 0
 274.0978469 781.254213616 288.105803322 783.781833581 308.171527323 783.781833581 c 0
 322.476601543 783.781833581 339.860487748 782.497190923 364 780 c 0
 410 775 423 771 469 740 c 0
 498 721 532 684 535 676 c 0
EndSplineSet
Validated: 1
EndChar

StartChar: u
Encoding: 117 117 117
Width: 640
Flags: HW
LayerCount: 2
Fore
SplineSet
97 35 m 0
 91.3236833793 44.9335540863 89.4232148498 63.0481123704 89.4232148498 82.5119350199 c 0
 89.4232148498 117.911359648 95.7095395776 157.773848944 97 161 c 0
 98 164 105 176 110 189 c 0
 115 202 129 227 142 245 c 0
 159 271 170 281 199 299 c 0
 218 312 237 323 240 323 c 0
 242 323 249 326 254 330 c 0
 267.928571429 342.071428571 289.617346939 348.107142857 320.667638484 348.107142857 c 0
 323.056122449 348.107142857 325.5 348.071428571 328 348 c 0
 333.5 347.833333333 338.083333333 347.694444444 342.097222222 347.694444444 c 0
 362.166666667 347.694444444 368 351.166666667 403 372 c 0
 448 399 474 424 494 462 c 0
 499 473 508 487 512 493 c 0
 516.708497378 500.062746067 518.337835373 508.972987763 518.337835373 529.39620101 c 0
 518.337835373 534.998122673 518.215250437 541.466234704 518 549 c 0
 517 604 511 629 487 675 c 0
 464 720 446 737 395 764 c 0
 357 783 350 785 314 786 c 0
 305.829840664 786.466866248 299.076447934 786.770259426 292.938461194 786.770259426 c 0
 272.782035907 786.770259426 259.262076301 783.498503142 224 772 c 0
 179 758 173 755 154 735 c 0
 138 718 129 703 119 676 c 0
 111 656 103 634 99 627 c 0
 95 621 92 604 92 588 c 0
 92 564.159469934 90.8171261731 554.513425791 86.1771576294 554.513425791 c 0
 84.7837441779 554.513425791 83.0785557873 555.383345499 81 557 c 0
 79.2565835097 559.32455532 78.1886116992 564.013167019 78.1886116992 572.635943621 c 0
 78.1886116992 578.850889359 78.7434164903 587.109609582 80 598 c 0
 84 629 87 643 106 679 c 0
 118 704 134 732 144 743 c 0
 166 769 203 787 272 803 c 0
 276.350496694 803.966777043 283.329718595 804.407809045 291.681088951 804.407809045 c 0
 317.883167769 804.407809045 357.592190955 800.066445914 372 794 c 0
 429 770 496 721 496 703 c 0
 496 700 503 685 512 670 c 0
 522 653 530 633 534 613 c 0
 537 596 541 578 542 573 c 0
 542.763932023 571.090169944 543.090169944 566.991869381 543.090169944 561.541019662 c 0
 543.090169944 552.72135955 542.236067977 540.360679775 541 528 c 0
 537 495 535 491 516 466 c 0
 505 451 496 437 496 434 c 0
 496 432 488 420 478 408 c 0
 464 390 438 369 388 335 c 0
 387.156346917 334.437564611 386.708110792 333.736733287 386.708110792 332.850246773 c 0
 386.708110792 327.432105011 403.452268904 315.078690347 449 285 c 0
 482 263 493 253 512 225 c 0
 547 174 558 142 561 91 c 0
 561.605551275 80.7056283171 561.936083291 72.4280645439 561.936083291 65.6676938886 c 0
 561.936083291 50.1000770416 560.183346174 42.5777948981 556 37 c 0
 553 32 549 20 548 12 c 0
 547 2 545 -3 541 -2 c 0
 538 -2 531 -10 527 -21 c 0
 522 -31 515 -42 511 -45 c 0
 508 -49 505 -53 505 -56 c 0
 505 -60 494 -72 480 -84 c 0
 467 -96 456 -107 456 -110 c 0
 456 -113.715324401 374.903642011 -147.626101244 306.466286363 -147.626101244 c 0
 301.222479058 -147.626101244 296.052991888 -147.427013399 291 -147 c 8
 252 -144 222 -114 188 -86 c 0
 181 -81 168 -73 160 -64 c 0
 144 -47 102 27 97 35 c 0
303 323 m 0
 304 325 302 327 297 327 c 0
 292 327 286 324 284 321 c 0
 283 318 275 313 267 310 c 0
 240 301 182 256 159 228 c 0
 147 212 137 198 137 195 c 0
 137 192 131 180 125 166 c 0
 115.955908483 148.997107948 111.623243029 127.413662778 111.623243029 103.94833383 c 0
 111.623243029 62.5499644634 125.108782767 15.2941803587 150 -23 c 0
 167 -49 185 -65 212 -79 c 0
 220 -83 235 -93 244 -101 c 0
 263 -117 287 -125 312 -125 c 0
 333 -125 392 -113 405 -106 c 0
 410 -103 418 -99 424 -96 c 0
 436 -90 478 -51 488 -37 c 0
 531 24 536 39 537 114 c 0
 537 139 535 147 521 176 c 0
 491 235 479 250 438 275 c 0
 417 288 392 301 383 304 c 0
 348 314 329 318 315 318 c 0
 306 318 301 320 303 323 c 0
EndSplineSet
Validated: 1
EndChar

StartChar: v
Encoding: 118 118 118
Width: 640
Flags: HW
LayerCount: 2
Fore
SplineSet
262 777 m 0
 274.627617495 780.283180549 288.913584915 781.844228482 303.939719579 781.844228482 c 0
 348.410693812 781.844228482 399.364855745 768.170877153 433 745 c 0
 458 728 507 671 526 638 c 0
 536.8 618.8 543.28 571.88 543.28 533.528 c 0
 543.28 507.96 540.4 486.2 534 479 c 0
 530 475 518 458 508 443 c 0
 498 428 486 412 481 409 c 0
 476 405 461 395 446 384 c 0
 416 362 379 340 356 330 c 0
 336 322 335 317 351 314 c 0
 399 303 473 265 500 236 c 0
 514 220 549 150 549 136 c 0
 549 128 551 119 553 115 c 0
 553.966777043 113.066445914 554.407809045 109.438824472 554.407809045 104.85131535 c 0
 554.407809045 90.4581953627 550.066445914 66.616280349 544 56 c 0
 542 51 535 37 531 23 c 0
 526 10 518 -8 513 -16 c 0
 503 -30 454 -71 425 -89 c 0
 417 -94 405 -102 399 -107 c 0
 392 -112 378 -119 366 -121 c 0
 355 -124 343 -128 341 -131 c 0
 337.341883153 -133.612940605 316.751668969 -135.133487833 294.357460201 -135.133487833 c 0
 273.899166452 -135.133487833 251.935296976 -133.864471274 240 -131 c 0
 210 -124 189 -117 184 -111 c 0
 181 -109 169 -99 157 -90 c 0
 112 -56 92 -15 87 52 c 0
 86.5401695415 59.1733551528 86.3086986576 66.2198438752 86.3086986576 73.1433553038 c 0
 86.3086986576 141.503149934 108.87420286 197.87420286 157 246 c 0
 173 263 189 276 191 276 c 0
 193 276 204 282 214 289 c 0
 225 297 234 303 236 303 c 0
 237 303 250 308 265 315 c 0
 310 336 335 346 342 346 c 0
 345 346 359 354 373 364 c 0
 388 374 401 381 404 381 c 0
 406 381 409 383 410 385 c 0
 411 387 423 396 438 406 c 0
 471 427 498 458 511 491 c 0
 517.762395693 507.905989232 520.237604307 519.095729026 520.237604307 546.31296096 c 0
 520.237604307 551.294060114 520.154700538 556.811978465 520 563 c 0
 520 597 518 616 513 626 c 0
 504 646 467 693 442 716 c 0
 411.216867205 744.635472367 361.983953162 760.971090569 314.846965692 760.971090569 c 0
 296.13976262 760.971090569 277.762678258 758.398150626 261 753 c 0
 216 738 163 691 132 638 c 0
 124 623 112 591 107 570 c 0
 101 546 96 539 89 547 c 0
 86.6991606966 549.123851665 85.6513063637 553.189830033 85.6513063637 558.637983907 c 0
 85.6513063637 583.972510184 108.309629162 639.194567355 133 668 c 0
 139 676 151 693 160 705 c 0
 178 732 231 770 262 777 c 0
332 296 m 0
 312.531327891 298.962624017 301.123295535 300.671370738 292.696527662 300.671370738 c 0
 281.212778783 300.671370738 275.265663946 297.497983969 262 290 c 0
 146 225 107 168 107 59 c 0
 107 22 115 -16 127 -37 c 0
 137 -54 174 -86 203 -101 c 0
 211 -106 236 -112 258 -114 c 0
 271.775002066 -115.66969722 281.890900074 -116.468179188 290.89335897 -116.468179188 c 0
 303.457586027 -116.468179188 313.853031931 -114.912878475 329 -112 c 0
 370 -103 436 -64 475 -27 c 0
 499 -4 505 5 518 39 c 0
 528.166006037 64.8385986767 533.667012686 84.576813539 533.667012686 104.446698719 c 0
 533.667012686 131.485820144 523.48024019 158.768768865 501 202 c 0
 483 236 391 287 332 296 c 0
311 126 m 0
 319.333914055 132.77130517 324.683471242 136.015643132 329.451020152 136.015643132 c 0
 333.836527304 136.015643132 337.729565913 133.270434087 343 128 c 0
 356 115 354 107 339 99 c 0
 333.082333004 96.0411665019 327.575042367 94.587046322 322.629907505 94.587046322 c 0
 314.20454385 94.587046322 307.411020689 98.8081044344 303 107 c 0
 299 115 300 118 311 126 c 0
EndSplineSet
Validated: 1
EndChar

StartChar: w
Encoding: 119 119 119
Width: 640
Flags: HW
LayerCount: 2
Fore
SplineSet
303 113 m 0
 303 162.333333333 304.777777778 228.111111111 304.777777778 268.259259259 c 0
 304.777777778 288.333333333 304.333333333 302 303 304 c 0
 300 310 261 327 253 327 c 0
 250 327 246 329 246 331 c 0
 245 333 230 342 213 350 c 0
 175 370 129 416 112 450 c 0
 105 464 95 482 89 490 c 0
 83 498 78 510 78 518 c 0
 78 525 76 537 73 544 c 0
 70 553 72 555 73 560 c 0
 74.7266499161 564.31662479 77.1986298155 573.10522948 77.1986298155 587.652738022 c 0
 77.1986298155 589.955788943 77.1366750419 592.403174203 77 595 c 0
 76.8528509725 599.561619854 76.7490076175 603.473654618 76.7490076175 606.936834504 c 0
 76.7490076175 627.008841653 80.2372786059 632.003066936 99 661 c 0
 125 701 167 743 200 764 c 0
 234 784 245 788 276 792 c 0
 286.980762114 793.464101615 307.07179677 794.392304845 326.465482833 794.392304845 c 0
 333.564064606 794.392304845 340.569219382 794.267949192 347 794 c 0
 382 793 395 790 412 781 c 0
 453 759 514 702 529 670 c 0
 534 659 541 653 542 651 c 0
 548 640 552 636 555 603 c 0
 555.781182935 588.157524241 560.223846534 573.92529526 560.223846534 562.686884899 c 0
 560.223846534 559.538895017 559.875268261 556.625804784 559 554 c 0
 551 531 526 450 517 434 c 0
 495 395 483 378 476 378 c 0
 474 378 459 366 444 351 c 0
 418 326 404 318 354 300 c 2
 332 292 l 1
 329 136 l 2
 328.292893219 75.188816818 327.585786438 13.3776336359 327.585786438 -25.0383655952 c 0
 327.585786438 -40.9507934888 327.707106781 -52.8492424049 328 -59 c 0
 328 -81 327 -109 326 -121 c 0
 324 -141 322 -144 310 -150 c 0
 296 -156 285 -153 295 -147 c 0
 299 -144 301 -108 303 -33 c 0
 303.666666667 3 303.888888889 24.8888888889 303.888888889 40.1851851852 c 0
 303.888888889 70.7777777778 303 75 303 113 c 0
518 653 m 8
 493 712 437 744 394 760 c 0
 381.170824513 765.131670195 354.91128914 767.629936491 327.924328565 767.629936491 c 0
 302.322249802 767.629936491 276.065488357 765.381496825 260 761 c 0
 246 756 229 748 221 743 c 0
 214 738 204 733 198 731 c 0
 183 726 115 653 105 631 c 0
 99.1081867662 617.532998323 96.758563653 605.482872694 96.758563653 584.712803551 c 0
 96.758563653 580.806176703 96.8416876048 576.59105946 97 572 c 0
 99 469 158 416 241 358 c 0
 264 342 292 336 298 334 c 0
 299.162749479 333.273281576 301.909857961 332.926809313 305.842179383 332.926809313 c 0
 328.965188412 332.926809313 393.069623175 344.906873697 417 362 c 0
 460 392 493 429 514 473 c 0
 526.416381152 499.525905189 534.691925999 532.74085364 534.691925999 568.330366876 c 0
 534.691925999 595.800233149 529.761714041 624.684762495 518 653 c 8
EndSplineSet
Validated: 1
EndChar

StartChar: x
Encoding: 120 120 120
Width: 640
Flags: HW
LayerCount: 2
Fore
SplineSet
498 426 m 0
 480 389 432 337 404 325 c 0
 393 321 382 315 380 313 c 0
 379 311 364 306 346 303 c 0
 320.516301459 299.138833554 310.537553492 295.874011362 310.537553492 290.442432119 c 0
 310.537553492 288.840412423 311.405633024 287.049900398 313 285 c 0
 317 282 323 29 323 -109 c 0
 323 -123 323 -124 336 -121 c 0
 343 -120 383 -118 424 -117 c 0
 466 -116 508 -114 518 -112 c 0
 535 -109 536 -110 540 -121 c 0
 545 -134 542 -142 533 -138 c 0
 530 -137 526 -138 525 -141 c 0
 524 -145 499 -146 424 -146 c 0
 370 -146 312 -148 297 -150 c 0
 282 -152 228 -153 179 -153 c 0
 91 -153 88 -153 88 -161 c 0
 88 -166 85 -170 82 -170 c 0
 78 -170 75 -166 75 -161 c 0
 75 -156 74 -149 71 -145 c 0
 69 -140 69 -135 72 -131 c 0
 77 -126 90 -125 146 -124 c 0
 183 -124 232 -124 255 -123 c 2
 296 -123 l 1
 296 -24 l 2
 296.333333333 -1.66666666667 296.444444444 16.2222222222 296.444444444 30.4814814815 c 0
 296.444444444 59 296 73 296 79 c 0
 296 84 296 86 296 91 c 0
 296 94.6923076923 297.514792899 167.686390533 297.514792899 225.153846154 c 0
 297.514792899 261.071005917 296.923076923 290.923076923 295 294 c 0
 294 296 278 300 260 302 c 0
 220 306 227 305 202 316 c 0
 191 321 181 325 180 325 c 0
 179 325 165 333 151 342 c 0
 137 351 123 359 122 359 c 0
 120 359 114 358 108 369 c 0
 101 381 96 386 93 392 c 0
 91 396 84 397 82 409 c 0
 80 418 77 432 74 440 c 0
 72 448 69 470 67 488 c 0
 66 497 65.4444444444 504.222222222 65.4444444444 511.111111111 c 0
 65.4444444444 524.888888889 67.6666666667 537.333333333 73 560 c 0
 80 593 86 606 105 634 c 0
 118 654 135 673 149 683 c 0
 181 706 246 743 254 743 c 0
 258 743 264 745 267 747 c 0
 270.452763009 749.466259292 277.433338258 750.594382907 286.801660266 750.594382907 c 0
 315.419295526 750.594382907 366.317800178 740.067481416 407 725 c 0
 424 718 437 709 460 684 c 0
 477 666 493 645 496 637 c 0
 500 628 507 617 513 611 c 0
 522 602 524 593 527 562 c 0
 528.464101615 546.626933041 529.392304845 532.325662852 529.392304845 524.980762114 c 0
 529.392304845 522.292341855 529.267949192 520.535898385 529 520 c 0
 528 519 527 503 527 485 c 0
 527 464 502 432 498 426 c 0
306 726 m 8
 271 724 249 721 208 696 c 0
 141 655 131 645 109 600 c 0
 95.3584995203 573.519440245 90.0878535714 552.190175586 90.0878535714 514.310745951 c 0
 90.0878535714 504.984935608 90.4073236141 494.655968923 91 483 c 0
 92 436 94 428 103 414 c 0
 142 355 205 321 280 319 c 0
 283.80045153 318.89587804 287.530434075 318.843252647 291.193051904 318.843252647 c 0
 357.882890725 318.843252647 402.238622134 336.290683114 443 378 c 0
 473 409 484 427 499 469 c 0
 506.935080009 490.299425288 510.684088345 513.866306066 510.684088345 536.641198971 c 0
 510.684088345 568.399211177 503.394376831 598.617252649 490 619 c 0
 483 629 465 651 449 669 c 0
 424 696 418 701 394 708 c 0
 350.998533696 722.058171676 346.292578428 726.542465594 323.331202622 726.542465594 c 0
 318.526280101 726.542465594 312.921948997 726.34609745 306 726 c 8
EndSplineSet
Validated: 1
EndChar

StartChar: y
Encoding: 121 121 121
Width: 640
Flags: HW
LayerCount: 2
Fore
SplineSet
486 -113 m 8
 471 -89 465 -80 450 -51 c 0
 434 -22 417 9 410 18 c 0
 405 27 398 40 397 46 c 0
 394 62 378 99 365 120 c 0
 342 157 334 172 310 221 c 0
 294.20855654 252.58288692 285.997951551 266.610147907 280.327663682 266.610147907 c 0
 277.021115641 266.610147907 274.578395831 261.840214279 272 253 c 0
 270 244 266 243 263 239 c 0
 247 220 247 215 243 207 c 0
 241 205 236 194 229 183 c 0
 221 172 210 152 204 139 c 0
 163 45 71 -134 56 -152 c 0
 51 -158 47 -166 46 -171 c 0
 43 -189 40 -183 40 -160 c 0
 40 -141 43 -132 55 -113 c 0
 72 -88 92 -51 123 15 c 0
 167 109 205 185 223 216 c 0
 234 235 243 250 243 251 c 0
 243 252 248 263 256 274 c 0
 264.892916293 287.743597907 269.537520674 297.892470351 269.537520674 305.437348508 c 0
 269.537520674 316.557586945 259.447955157 322.021117339 238 325 c 0
 167 336 107 378 72 411 c 0
 61 421 57 425 51 432 c 0
 46 438 31 480 27 525 c 0
 26.839732422 526.923210936 26.7629433578 529.006957475 26.7629433578 531.236831572 c 0
 26.7629433578 556.833847049 36.8814716789 601.686154294 47 644 c 8
 51 658 58 663 65 677 c 0
 72 690 81 705 85 709 c 0
 125 746 155 769 173 775 c 0
 185 780 199 786 204 788 c 0
 208.622498999 790.7734994 225.210796317 796.111098439 239.541834331 796.111098439 c 0
 240.712192874 796.111098439 241.867496998 796.0755002 243 796 c 8
 293 792 339 790 370 775 c 0
 402 759 414 750 440 721 c 0
 478 680 491 648 506 594 c 16
 509.432235637 581.300728142 510.74402781 565.774198332 510.74402781 550.857178559 c 0
 510.74402781 522.312672523 505.940658618 496 502 496 c 0
 499 496 490 483 483 468 c 0
 469 438 437 393 418 375 c 0
 407 365 320 320 312 320 c 0
 298 320 296 313 305 289 c 0
 319 254 362 169 385 132 c 0
 397 114 410 86 416 71 c 0
 421 55 435 26 446 7 c 0
 458 -13 467 -30 467 -32 c 0
 467 -36 496 -81 499 -83 c 0
 501 -84 503 -86 503 -89 c 0
 503 -92 509 -103 516 -114 c 0
 531 -134 531 -142 516 -142 c 0
 512 -142 508 -144 507 -146 c 0
 506.957066048 -146.085867904 506.892012205 -146.127496027 506.806263013 -146.127496027 c 0
 504.894777191 -146.127496027 492.699462335 -125.441858623 486 -113 c 8
296 772 m 0
 278 775 262 778 260 778 c 0
 259 778 253 776 247 775 c 0
 222 771 167 751 153 741 c 0
 108 707 93 691 78 657 c 0
 69 639 60 619 57 613 c 0
 54 606 52 580 52 543 c 0
 52 475 54 469 92 423 c 0
 109 402 124 390 146 378 c 0
 177.592724295 361.274440079 237.677929156 343.685471657 260.468879462 343.685471657 c 0
 262.205485032 343.685471657 263.725559921 343.78759332 265 344 c 0
 271 346 280 344 286 342 c 0
 288.596442563 340.701778719 291.298221281 340.035574373 294.652334713 340.035574373 c 0
 301.632710417 340.035574373 311.438438329 342.920997883 329 349 c 0
 391 372 437 409 457 455 c 0
 476.666173592 497.752551286 480.247877538 511.260612309 480.247877538 549.28607557 c 0
 480.247877538 555.732184317 480.144948974 562.88285744 480 571 c 0
 478 618 477 626 465 651 c 0
 456 669 441 689 418 711 c 0
 380 749 355 761 296 772 c 0
EndSplineSet
Validated: 1
EndChar

StartChar: z
Encoding: 122 122 122
Width: 640
Flags: HW
LayerCount: 2
Fore
SplineSet
482 683 m 0
 500.11899708 649.210518959 506.007752513 605.588882868 506.007752513 568.458546982 c 0
 506.007752513 529.766671422 499.613271138 498.123568515 494 492 c 0
 490 488 481 472 474 458 c 0
 468 444 453 422 442 410 c 0
 432 398 421 384 419 379 c 0
 415 370 374 346 363 346 c 0
 360 346 354 342 348 336 c 0
 342 329 331 325 316 323 c 0
 295 320 293 319 293 307 c 0
 293 290 298 278 351 167 c 0
 366 135 380 107 382 107 c 0
 384 106 385 102 385 99 c 0
 385 96 392 81 401 65 c 0
 410 51 422 29 428 18 c 0
 444 -10 466 -38 491 -73 c 24
 497 -81 503 -84 508 -93 c 0
 512 -103 516 -114 516 -118 c 0
 516 -127 501 -133 493 -127 c 0
 490.797958971 -125.348469228 483.140810163 -124.606123087 469.528038111 -124.606123087 c 0
 458.413256273 -124.606123087 443.32805894 -125.101020514 424 -126 c 0
 306 -134 290 -133 283 -134 c 0
 275 -136 269 -133 261 -133 c 0
 251 -132 261 -131 152 -130 c 0
 144.818181818 -129.909090909 138.157024793 -129.867768595 131.978211871 -129.867768595 c 0
 70.1900826446 -129.867768595 56.6363636364 -134 53 -134 c 0
 49 -133 46 -140 40 -128 c 0
 36.9719233982 -121.943846796 35.3765417818 -117.463658077 35.3765417818 -113.095254161 c 0
 35.3765417818 -105.922592271 39.6776436283 -99.0512989204 49 -86 c 0
 57 -75 67 -58 72 -47 c 0
 77 -37 93 -9 108 15 c 0
 123 38 142 71 150 87 c 0
 158 104 168 123 172 130 c 0
 176 137 189 165 201 191 c 0
 214 218 232 254 243 273 c 0
 254 291 263 310 263 313 c 0
 263 318 256 321 243 323 c 0
 232 324 222 327 221 329 c 0
 219 332 210 333 201 333 c 0
 189 333 176 338 163 345 c 0
 139 359 74 410 67 421 c 0
 63 426 58 430 55 430 c 0
 51 430 48 438 46 459 c 0
 44 475 41 503 37 521 c 0
 35.2142857143 533.142857143 34.3214285714 545.413265306 34.3214285714 557.629008746 c 0
 34.3214285714 579.617346939 37.2142857143 601.428571429 43 622 c 0
 46 630 47 644 54 657 c 24
 59 668 64 668 74 682 c 0
 84 696 97 712 104 716 c 0
 110 720 122 729 129 736 c 0
 152 759 190 784 200 784 c 0
 205 784 215 786 222 789 c 0
 228 791 242 795 252 797 c 0
 259.751208926 798.291868154 271.153187632 798.853582353 283.376148187 798.853582353 c 0
 308.999032859 798.853582353 338.229670386 796.385164807 345 793 c 0
 350 791 360 788 367 788 c 0
 374 788 382 785 386 781 c 0
 389 777 403 766 417 756 c 0
 440 739 464 717 482 683 c 0
279 774 m 8
 241 772 240 775 185 751 c 0
 172 745 109 694 98 679 c 0
 82 661 68 631 61 604 c 0
 57.1533936612 587.972473589 55.3618401455 576.877073952 55.3618401455 562.281823261 c 0
 55.3618401455 554.11116124 55.9233031694 544.843665137 57 533 c 0
 59 511 62 487 63 480 c 0
 67 464 81 434 88 425 c 0
 98 414 152 374 167 367 c 0
 193.920997883 355.334234251 234.531531499 347.69480254 269.320873422 347.69480254 c 0
 273.299791956 347.69480254 277.202564056 347.794733192 281 348 c 0
 313 349 323 352 359 370 c 0
 409 393 439 423 462 471 c 0
 474.142135624 497.886157453 484.77986862 533.798730671 484.77986862 547.423444105 c 0
 484.77986862 549.508157249 484.530818393 551.071067812 484 552 c 0
 482 554 483 561 486 567 c 0
 487.183346174 570.550038521 487.744333162 574.722436227 487.744333162 580.008170692 c 0
 487.744333162 588.122744393 486.422205102 598.861218113 484 614 c 0
 477 651 472 663 459 677 c 0
 455 682 446 694 439 703 c 0
 427 721 400 743 373 759 c 0
 350.589850874 771.067003376 324.465095358 774.218951416 293.985388198 774.218951416 c 0
 289.102885955 774.218951416 284.108633936 774.138071187 279 774 c 8
267 261 m 0
 236 225 210 167 210 158 c 0
 210 156 202 139 192 120 c 0
 182 101 171 80 168 73 c 0
 153 42 138 19 105 -31 c 0
 100 -37 96 -45 96 -48 c 0
 96 -51 91 -64 83 -76 c 0
 76 -89 72 -100 74 -102 c 0
 76 -103 148 -105 235 -105 c 0
 250.5 -105.1 265.23 -105.15 279.192 -105.15 c 0
 404.85 -105.15 468.3 -101.1 471 -93 c 0
 471.051042119 -92.8979157617 471.076031259 -92.7619626502 471.076031259 -92.5937364248 c 0
 471.076031259 -89.4661311269 462.438536689 -75.1833260933 452 -60 c 0
 431 -31 420 -13 389 45 c 0
 380 61 368 81 361 90 c 0
 355 98 350 106 350 109 c 0
 350 113 335 148 328 158 c 0
 322 168 317 178 302 216 c 0
 291.6 241.6 285.04 265.92 275.152 265.92 c 0
 272.68 265.92 270 264.4 267 261 c 0
EndSplineSet
Validated: 1
EndChar

